{"glyphs":{"0":{"ha":922,"x_min":63,"x_max":860,"o":"m 461 -17 q 238 49 328 -17 q 106 228 149 115 q 63 481 63 340 q 106 725 63 617 q 238 897 149 833 q 461 960 328 960 q 684 897 594 960 q 817 725 774 833 q 860 481 860 617 q 817 228 860 340 q 684 49 774 115 q 461 -17 594 -17 m 461 163 q 574 252 538 163 q 610 481 610 342 q 574 696 610 611 q 461 781 538 781 q 349 696 385 781 q 313 481 313 611 q 349 252 313 342 q 461 163 385 163 z "},"1":{"ha":922,"x_min":149,"x_max":849,"o":"m 849 174 l 849 0 l 149 0 l 149 174 l 374 174 l 374 771 l 200 771 l 165 944 l 624 944 l 624 174 l 849 174 z "},"2":{"ha":922,"x_min":67,"x_max":836,"o":"m 96 132 l 321 350 q 476 529 425 450 q 528 660 528 608 q 486 748 528 715 q 367 781 444 781 q 115 688 250 781 l 67 856 q 404 960 219 960 q 588 926 504 960 q 722 829 672 892 q 772 686 772 767 q 522 257 772 478 l 435 179 l 435 176 l 836 176 l 836 0 l 96 0 l 96 132 z "},"3":{"ha":922,"x_min":67,"x_max":814,"o":"m 619 515 q 760 430 707 488 q 814 292 814 372 q 765 137 814 207 q 620 25 715 67 q 393 -17 525 -17 q 216 0 304 -17 q 67 49 128 17 l 114 219 q 393 163 260 163 q 521 193 476 163 q 565 276 565 224 q 528 366 565 332 q 425 400 490 400 q 272 378 353 400 l 257 553 q 409 594 364 579 q 484 635 454 608 q 514 707 514 661 q 486 760 514 739 q 411 781 458 781 q 143 707 285 781 l 94 874 q 425 960 231 960 q 602 930 525 960 q 721 846 679 900 q 763 719 763 792 q 725 603 763 654 q 619 515 688 551 z "},"4":{"ha":922,"x_min":38,"x_max":899,"o":"m 899 203 l 743 203 l 743 0 l 493 0 l 493 203 l 38 203 l 38 340 l 500 944 l 743 944 l 743 379 l 899 379 l 899 203 m 493 379 l 493 524 l 499 693 l 497 693 l 386 528 l 272 379 l 493 379 z "},"5":{"ha":922,"x_min":88,"x_max":835,"o":"m 444 611 q 655 573 567 611 q 789 467 743 535 q 835 313 835 400 q 783 147 835 222 q 634 28 732 72 q 400 -17 536 -17 q 231 0 315 -17 q 88 49 146 17 l 135 219 q 400 163 274 163 q 540 199 494 163 q 586 297 586 235 q 417 432 586 432 q 301 419 358 432 q 171 383 243 407 l 139 407 l 185 944 l 806 944 l 806 768 l 406 768 l 388 608 q 444 611 426 611 z "},"6":{"ha":922,"x_min":74,"x_max":849,"o":"m 499 611 q 685 567 606 611 q 807 450 765 522 q 849 299 849 378 q 802 140 849 213 q 667 23 756 67 q 461 -21 579 -21 q 178 79 283 -21 q 74 376 74 179 q 149 668 74 543 q 364 867 225 793 q 693 960 503 942 l 725 789 q 493 716 576 758 q 367 588 410 674 q 499 611 433 611 m 461 156 q 563 192 528 156 q 599 285 599 229 q 565 392 599 349 q 471 435 531 435 q 324 379 390 435 l 324 347 q 360 205 324 254 q 461 156 397 156 z "},"7":{"ha":922,"x_min":67,"x_max":856,"o":"m 601 765 l 601 768 l 67 768 l 67 944 l 856 944 l 856 797 l 454 0 l 167 0 l 601 765 z "},"8":{"ha":922,"x_min":76,"x_max":846,"o":"m 663 503 q 797 406 749 461 q 846 269 846 351 q 804 124 846 189 q 676 22 763 60 q 463 -17 590 -17 q 248 19 335 -17 q 119 113 161 56 q 76 238 76 171 q 238 474 76 383 q 140 558 175 510 q 104 674 104 606 q 144 818 104 753 q 265 922 185 883 q 463 960 346 960 q 658 924 578 960 q 778 832 738 889 q 818 710 818 775 q 778 592 818 643 q 663 503 738 542 m 463 783 q 381 756 408 783 q 354 688 354 728 q 388 626 354 651 q 490 572 422 600 q 549 634 531 601 q 568 696 568 667 q 542 758 568 732 q 463 783 515 783 m 463 160 q 563 188 531 160 q 596 256 596 215 q 555 332 596 301 q 435 392 514 363 q 355 331 383 367 q 326 251 326 296 q 360 187 326 214 q 463 160 394 160 z "},"9":{"ha":922,"x_min":74,"x_max":849,"o":"m 461 960 q 744 860 639 960 q 849 563 849 760 q 773 271 849 396 q 558 72 697 146 q 229 -21 419 -3 l 197 150 q 429 223 346 181 q 556 351 513 265 q 424 328 489 328 q 237 372 317 328 q 115 489 157 417 q 74 640 74 561 q 120 799 74 726 q 255 916 167 872 q 461 960 343 960 m 451 504 q 599 560 532 504 l 599 592 q 562 734 599 685 q 461 783 525 783 q 359 747 394 783 q 324 654 324 710 q 358 547 324 590 q 451 504 392 504 z "},"\r":{"ha":833,"x_min":0,"x_max":0,"o":""}," ":{"ha":347,"x_min":0,"x_max":0,"o":""},"A":{"ha":982,"x_min":7,"x_max":975,"o":"m 649 218 l 329 218 l 258 0 l 7 0 l 369 957 l 611 957 l 975 0 l 721 0 l 649 218 m 593 389 l 489 703 l 386 389 l 593 389 z "},"Á":{"ha":982,"x_min":7,"x_max":975,"o":"m 7 0 m 649 218 l 329 218 l 258 0 l 7 0 l 369 957 l 611 957 l 975 0 l 721 0 l 649 218 m 593 389 l 489 703 l 386 389 l 593 389 m 569 1267 l 826 1267 l 578 1028 l 374 1028 l 569 1267 z "},"Ă":{"ha":982,"x_min":7,"x_max":975,"o":"m 7 0 m 649 218 l 329 218 l 258 0 l 7 0 l 369 957 l 611 957 l 975 0 l 721 0 l 649 218 m 593 389 l 489 703 l 386 389 l 593 389 m 489 1014 q 288 1081 361 1014 q 211 1265 214 1149 l 388 1267 q 417 1197 390 1219 q 489 1174 444 1174 q 560 1197 533 1174 q 590 1267 588 1219 l 767 1264 q 690 1081 764 1147 q 489 1014 617 1014 z "},"Â":{"ha":982,"x_min":7,"x_max":975,"o":"m 7 0 m 649 218 l 329 218 l 258 0 l 7 0 l 369 957 l 611 957 l 975 0 l 721 0 l 649 218 m 593 389 l 489 703 l 386 389 l 593 389 m 582 1028 l 489 1150 l 396 1028 l 167 1028 l 374 1267 l 604 1267 l 811 1028 l 582 1028 z "},"Ä":{"ha":982,"x_min":7,"x_max":975,"o":"m 7 0 m 649 218 l 329 218 l 258 0 l 7 0 l 369 957 l 611 957 l 975 0 l 721 0 l 649 218 m 593 389 l 489 703 l 386 389 l 593 389 m 310 1028 q 228 1062 263 1028 q 194 1143 194 1096 q 228 1224 194 1190 q 310 1258 263 1258 q 391 1224 357 1258 q 425 1143 425 1190 q 391 1062 425 1096 q 310 1028 357 1028 m 668 1028 q 587 1062 621 1028 q 553 1143 553 1096 q 587 1224 553 1190 q 668 1258 621 1258 q 749 1224 715 1258 q 783 1143 783 1190 q 749 1062 783 1096 q 668 1028 715 1028 z "},"À":{"ha":982,"x_min":7,"x_max":975,"o":"m 7 0 m 649 218 l 329 218 l 258 0 l 7 0 l 369 957 l 611 957 l 975 0 l 721 0 l 649 218 m 593 389 l 489 703 l 386 389 l 593 389 m 154 1267 l 411 1267 l 607 1028 l 403 1028 l 154 1267 z "},"Ā":{"ha":982,"x_min":7,"x_max":975,"o":"m 7 0 m 649 218 l 329 218 l 258 0 l 7 0 l 369 957 l 611 957 l 975 0 l 721 0 l 649 218 m 593 389 l 489 703 l 386 389 l 593 389 m 211 1236 l 767 1236 l 767 1067 l 211 1067 l 211 1236 z "},"Ą":{"ha":982,"x_min":7,"x_max":997,"o":"m 997 -299 q 911 -357 969 -331 q 792 -383 853 -383 q 653 -340 706 -383 q 601 -218 601 -296 q 633 -105 601 -164 q 721 1 664 -46 l 649 218 l 329 218 l 258 0 l 7 0 l 369 957 l 611 957 l 975 0 l 908 0 q 822 -92 851 -49 q 792 -167 792 -135 q 805 -199 792 -187 q 840 -210 818 -210 q 936 -165 883 -210 l 997 -299 m 593 389 l 489 703 l 386 389 l 593 389 z "},"Å":{"ha":982,"x_min":7,"x_max":975,"o":"m 7 0 m 649 218 l 329 218 l 258 0 l 7 0 l 369 957 l 611 957 l 975 0 l 721 0 l 649 218 m 593 389 l 489 703 l 386 389 l 593 389 m 489 1014 q 331 1057 388 1014 q 275 1168 275 1100 q 331 1279 275 1236 q 489 1322 388 1322 q 647 1279 590 1322 q 703 1168 703 1236 q 647 1057 703 1100 q 489 1014 590 1014 m 489 1122 q 547 1168 547 1122 q 489 1214 547 1214 q 446 1202 461 1214 q 431 1168 431 1190 q 489 1122 431 1122 z "},"Ã":{"ha":982,"x_min":7,"x_max":975,"o":"m 7 0 m 649 218 l 329 218 l 258 0 l 7 0 l 369 957 l 611 957 l 975 0 l 721 0 l 649 218 m 593 389 l 489 703 l 386 389 l 593 389 m 211 1019 q 265 1199 218 1133 q 385 1265 313 1265 q 436 1256 411 1265 q 494 1231 461 1247 q 543 1208 525 1215 q 579 1201 561 1201 q 636 1279 617 1201 l 767 1274 q 711 1098 760 1168 q 593 1028 663 1028 q 538 1038 564 1028 q 474 1065 511 1047 q 431 1085 447 1079 q 399 1092 414 1092 q 365 1074 379 1092 q 342 1014 351 1056 l 211 1019 z "},"Æ":{"ha":1407,"x_min":-21,"x_max":1338,"o":"m 1338 174 l 1338 0 l 697 0 l 697 301 l 407 301 l 407 303 l 231 0 l -21 0 l 563 944 l 1310 944 l 1310 771 l 947 771 l 947 565 l 1254 565 l 1254 392 l 947 392 l 947 174 l 1338 174 m 697 475 l 697 801 l 507 475 l 697 475 z "},"B":{"ha":961,"x_min":125,"x_max":906,"o":"m 681 500 q 848 414 790 479 q 906 256 906 349 q 803 64 906 128 q 503 0 701 0 l 125 0 l 125 944 l 503 944 q 774 890 683 944 q 864 714 864 835 q 817 579 864 636 q 681 500 769 522 m 375 771 l 375 586 l 503 586 q 614 682 614 586 q 586 751 614 732 q 503 771 558 771 l 375 771 m 503 174 q 617 202 578 174 q 656 293 656 231 q 617 384 656 356 q 503 413 578 413 l 375 413 l 375 174 l 503 174 z "},"C":{"ha":947,"x_min":63,"x_max":888,"o":"m 592 -17 q 300 51 419 -17 q 122 230 181 118 q 63 474 63 342 q 124 715 63 604 q 308 893 186 826 q 603 960 431 960 q 886 897 764 960 l 836 722 q 729 765 785 749 q 603 781 674 781 q 447 740 513 781 q 347 628 381 699 q 313 472 313 558 q 385 249 313 336 q 592 163 457 163 q 840 219 707 163 l 888 49 q 751 1 831 19 q 592 -17 672 -17 z "},"Ć":{"ha":947,"x_min":63,"x_max":919,"o":"m 63 0 m 592 -17 q 300 51 419 -17 q 122 230 181 118 q 63 474 63 342 q 124 715 63 604 q 308 893 186 826 q 603 960 431 960 q 886 897 764 960 l 836 722 q 729 765 785 749 q 603 781 674 781 q 447 740 513 781 q 347 628 381 699 q 313 472 313 558 q 385 249 313 336 q 592 163 457 163 q 840 219 707 163 l 888 49 q 751 1 831 19 q 592 -17 672 -17 m 663 1267 l 919 1267 l 671 1028 l 467 1028 l 663 1267 z "},"Č":{"ha":947,"x_min":63,"x_max":904,"o":"m 63 0 m 592 -17 q 300 51 419 -17 q 122 230 181 118 q 63 474 63 342 q 124 715 63 604 q 308 893 186 826 q 603 960 431 960 q 886 897 764 960 l 836 722 q 729 765 785 749 q 603 781 674 781 q 447 740 513 781 q 347 628 381 699 q 313 472 313 558 q 385 249 313 336 q 592 163 457 163 q 840 219 707 163 l 888 49 q 751 1 831 19 q 592 -17 672 -17 m 904 1267 l 697 1028 l 467 1028 l 260 1267 l 489 1267 l 582 1144 l 675 1267 l 904 1267 z "},"Ç":{"ha":947,"x_min":63,"x_max":888,"o":"m 632 -60 q 720 -99 685 -67 q 756 -178 756 -132 q 731 -253 756 -217 q 646 -315 706 -290 q 490 -340 586 -340 l 460 -233 q 554 -222 529 -233 q 579 -187 579 -210 q 567 -163 579 -172 q 533 -154 554 -154 q 496 -161 515 -154 l 453 -101 l 501 -11 q 260 76 358 7 q 112 249 161 146 q 63 474 63 353 q 124 715 63 604 q 308 893 186 826 q 603 960 431 960 q 886 897 764 960 l 836 722 q 729 765 785 749 q 603 781 674 781 q 447 740 513 781 q 347 628 381 699 q 313 472 313 558 q 385 249 313 336 q 592 163 457 163 q 840 219 707 163 l 888 49 q 781 9 842 26 q 657 -14 721 -8 l 632 -60 z "},"D":{"ha":1079,"x_min":125,"x_max":1017,"o":"m 517 944 q 789 883 676 944 q 959 715 901 822 q 1017 474 1017 608 q 959 228 1017 336 q 789 60 901 121 q 517 0 676 0 l 125 0 l 125 944 l 517 944 m 517 176 q 701 257 635 176 q 767 472 767 338 q 701 687 767 606 q 517 768 635 768 l 375 768 l 375 176 l 517 176 z "},"Ð":{"ha":1079,"x_min":4,"x_max":1017,"o":"m 517 944 q 789 883 676 944 q 959 715 901 822 q 1017 474 1017 608 q 959 228 1017 336 q 789 60 901 121 q 517 0 676 0 l 125 0 l 125 415 l 4 415 l 4 585 l 125 585 l 125 944 l 517 944 m 517 176 q 701 257 635 176 q 767 472 767 338 q 701 687 767 606 q 517 768 635 768 l 375 768 l 375 585 l 546 585 l 546 415 l 375 415 l 375 176 l 517 176 z "},"Ď":{"ha":1079,"x_min":125,"x_max":1017,"o":"m 125 0 m 517 944 q 789 883 676 944 q 959 715 901 822 q 1017 474 1017 608 q 959 228 1017 336 q 789 60 901 121 q 517 0 676 0 l 125 0 l 125 944 l 517 944 m 517 176 q 701 257 635 176 q 767 472 767 338 q 701 687 767 606 q 517 768 635 768 l 375 768 l 375 176 l 517 176 m 826 1267 l 619 1028 l 389 1028 l 182 1267 l 411 1267 l 504 1144 l 597 1267 l 826 1267 z "},"Đ":{"ha":1079,"x_min":4,"x_max":1017,"o":"m 517 944 q 789 883 676 944 q 959 715 901 822 q 1017 474 1017 608 q 959 228 1017 336 q 789 60 901 121 q 517 0 676 0 l 125 0 l 125 415 l 4 415 l 4 585 l 125 585 l 125 944 l 517 944 m 517 176 q 701 257 635 176 q 767 472 767 338 q 701 687 767 606 q 517 768 635 768 l 375 768 l 375 585 l 546 585 l 546 415 l 375 415 l 375 176 l 517 176 z "},"E":{"ha":835,"x_min":125,"x_max":765,"o":"m 765 174 l 765 0 l 125 0 l 125 944 l 738 944 l 738 771 l 375 771 l 375 586 l 682 586 l 682 413 l 375 413 l 375 174 l 765 174 z "},"É":{"ha":835,"x_min":125,"x_max":774,"o":"m 125 0 m 765 174 l 765 0 l 125 0 l 125 944 l 738 944 l 738 771 l 375 771 l 375 586 l 682 586 l 682 413 l 375 413 l 375 174 l 765 174 m 517 1267 l 774 1267 l 525 1028 l 321 1028 l 517 1267 z "},"Ě":{"ha":835,"x_min":114,"x_max":765,"o":"m 114 0 m 765 174 l 765 0 l 125 0 l 125 944 l 738 944 l 738 771 l 375 771 l 375 586 l 682 586 l 682 413 l 375 413 l 375 174 l 765 174 m 758 1267 l 551 1028 l 321 1028 l 114 1267 l 343 1267 l 436 1144 l 529 1267 l 758 1267 z "},"Ê":{"ha":835,"x_min":114,"x_max":765,"o":"m 114 0 m 765 174 l 765 0 l 125 0 l 125 944 l 738 944 l 738 771 l 375 771 l 375 586 l 682 586 l 682 413 l 375 413 l 375 174 l 765 174 m 529 1028 l 436 1150 l 343 1028 l 114 1028 l 321 1267 l 551 1267 l 758 1028 l 529 1028 z "},"Ë":{"ha":835,"x_min":125,"x_max":765,"o":"m 125 0 m 765 174 l 765 0 l 125 0 l 125 944 l 738 944 l 738 771 l 375 771 l 375 586 l 682 586 l 682 413 l 375 413 l 375 174 l 765 174 m 257 1028 q 176 1062 210 1028 q 142 1143 142 1096 q 176 1224 142 1190 q 257 1258 210 1258 q 338 1224 304 1258 q 372 1143 372 1190 q 338 1062 372 1096 q 257 1028 304 1028 m 615 1028 q 534 1062 568 1028 q 500 1143 500 1096 q 534 1224 500 1190 q 615 1258 568 1258 q 697 1224 663 1258 q 731 1143 731 1190 q 697 1062 731 1096 q 615 1028 663 1028 z "},"Ė":{"ha":835,"x_min":125,"x_max":765,"o":"m 125 0 m 765 174 l 765 0 l 125 0 l 125 944 l 738 944 l 738 771 l 375 771 l 375 586 l 682 586 l 682 413 l 375 413 l 375 174 l 765 174 m 436 1028 q 355 1062 389 1028 q 321 1143 321 1096 q 355 1224 321 1190 q 436 1258 389 1258 q 517 1224 483 1258 q 551 1143 551 1190 q 517 1062 551 1096 q 436 1028 483 1028 z "},"È":{"ha":835,"x_min":101,"x_max":765,"o":"m 101 0 m 765 174 l 765 0 l 125 0 l 125 944 l 738 944 l 738 771 l 375 771 l 375 586 l 682 586 l 682 413 l 375 413 l 375 174 l 765 174 m 101 1267 l 358 1267 l 554 1028 l 350 1028 l 101 1267 z "},"Ē":{"ha":835,"x_min":125,"x_max":765,"o":"m 125 0 m 765 174 l 765 0 l 125 0 l 125 944 l 738 944 l 738 771 l 375 771 l 375 586 l 682 586 l 682 413 l 375 413 l 375 174 l 765 174 m 158 1236 l 714 1236 l 714 1067 l 158 1067 l 158 1236 z "},"Ę":{"ha":835,"x_min":125,"x_max":765,"o":"m 125 0 m 765 174 l 765 0 l 125 0 l 125 944 l 738 944 l 738 771 l 375 771 l 375 586 l 682 586 l 682 413 l 375 413 l 375 174 l 765 174 m 550 -383 q 412 -340 464 -383 q 360 -218 360 -296 q 399 -92 360 -157 q 506 21 438 -26 l 693 21 q 587 -82 624 -33 q 550 -167 550 -131 q 563 -199 550 -187 q 599 -210 576 -210 q 694 -165 642 -210 l 756 -299 q 669 -357 728 -331 q 550 -383 611 -383 z "},"F":{"ha":765,"x_min":125,"x_max":738,"o":"m 375 768 l 375 532 l 682 532 l 682 356 l 375 356 l 375 0 l 125 0 l 125 944 l 738 944 l 738 768 l 375 768 z "},"G":{"ha":988,"x_min":63,"x_max":925,"o":"m 925 467 l 925 49 q 770 1 858 19 q 592 -17 682 -17 q 300 51 419 -17 q 122 230 181 118 q 63 474 63 342 q 124 715 63 604 q 308 893 186 826 q 603 960 431 960 q 886 897 764 960 l 836 722 q 729 765 785 749 q 603 781 674 781 q 447 740 513 781 q 347 628 381 699 q 313 472 313 558 q 385 249 313 336 q 592 163 457 163 q 683 169 635 163 l 683 467 l 925 467 z "},"Ğ":{"ha":988,"x_min":63,"x_max":925,"o":"m 63 0 m 925 467 l 925 49 q 770 1 858 19 q 592 -17 682 -17 q 300 51 419 -17 q 122 230 181 118 q 63 474 63 342 q 124 715 63 604 q 308 893 186 826 q 603 960 431 960 q 886 897 764 960 l 836 722 q 729 765 785 749 q 603 781 674 781 q 447 740 513 781 q 347 628 381 699 q 313 472 313 558 q 385 249 313 336 q 592 163 457 163 q 683 169 635 163 l 683 467 l 925 467 m 582 1014 q 381 1081 454 1014 q 304 1265 307 1149 l 481 1267 q 510 1197 483 1219 q 582 1174 538 1174 q 653 1197 626 1174 q 683 1267 681 1219 l 860 1264 q 783 1081 857 1147 q 582 1014 710 1014 z "},"Ģ":{"ha":988,"x_min":63,"x_max":925,"o":"m 63 0 m 925 467 l 925 49 q 770 1 858 19 q 592 -17 682 -17 q 300 51 419 -17 q 122 230 181 118 q 63 474 63 342 q 124 715 63 604 q 308 893 186 826 q 603 960 431 960 q 886 897 764 960 l 836 722 q 729 765 785 749 q 603 781 674 781 q 447 740 513 781 q 347 628 381 699 q 313 472 313 558 q 385 249 313 336 q 592 163 457 163 q 683 169 635 163 l 683 467 l 925 467 m 450 -261 q 557 -201 557 -260 q 540 -167 557 -181 q 488 -151 524 -153 l 535 -37 q 686 -90 639 -47 q 733 -192 733 -132 q 666 -318 733 -269 q 483 -368 599 -367 l 450 -261 z "},"H":{"ha":1138,"x_min":125,"x_max":1013,"o":"m 1013 944 l 1013 0 l 763 0 l 763 411 l 375 411 l 375 0 l 125 0 l 125 944 l 375 944 l 375 588 l 763 588 l 763 944 l 1013 944 z "},"Ħ":{"ha":1138,"x_min":4,"x_max":1133,"o":"m 1133 686 l 1013 686 l 1013 0 l 763 0 l 763 411 l 375 411 l 375 0 l 125 0 l 125 686 l 4 686 l 4 856 l 125 856 l 125 944 l 375 944 l 375 856 l 763 856 l 763 944 l 1013 944 l 1013 856 l 1133 856 l 1133 686 m 763 686 l 375 686 l 375 588 l 763 588 l 763 686 z "},"I":{"ha":500,"x_min":125,"x_max":375,"o":"m 125 944 l 375 944 l 375 0 l 125 0 l 125 944 z "},"Ĳ":{"ha":1000,"x_min":125,"x_max":875,"o":"m 125 0 m 125 944 l 375 944 l 375 0 l 125 0 l 125 944 m 554 -332 q 404 -321 496 -332 l 419 -146 q 511 -153 475 -153 q 598 -118 571 -153 q 625 -11 625 -83 l 625 944 l 875 944 l 875 -14 q 795 -249 875 -167 q 554 -332 715 -332 z "},"Í":{"ha":500,"x_min":125,"x_max":588,"o":"m 125 0 m 125 944 l 375 944 l 375 0 l 125 0 l 125 944 m 331 1267 l 588 1267 l 339 1028 l 135 1028 l 331 1267 z "},"Î":{"ha":500,"x_min":-72,"x_max":572,"o":"m 0 0 m 125 944 l 375 944 l 375 0 l 125 0 l 125 944 m 343 1028 l 250 1150 l 157 1028 l -72 1028 l 135 1267 l 365 1267 l 572 1028 l 343 1028 z "},"Ï":{"ha":500,"x_min":-44,"x_max":544,"o":"m 0 0 m 125 944 l 375 944 l 375 0 l 125 0 l 125 944 m 71 1028 q -10 1062 24 1028 q -44 1143 -44 1096 q -10 1224 -44 1190 q 71 1258 24 1258 q 152 1224 118 1258 q 186 1143 186 1190 q 152 1062 186 1096 q 71 1028 118 1028 m 429 1028 q 348 1062 382 1028 q 314 1143 314 1096 q 348 1224 314 1190 q 429 1258 382 1258 q 510 1224 476 1258 q 544 1143 544 1190 q 510 1062 544 1096 q 429 1028 476 1028 z "},"İ":{"ha":500,"x_min":125,"x_max":375,"o":"m 125 0 m 125 944 l 375 944 l 375 0 l 125 0 l 125 944 m 250 1028 q 169 1062 203 1028 q 135 1143 135 1096 q 169 1224 135 1190 q 250 1258 203 1258 q 331 1224 297 1258 q 365 1143 365 1190 q 331 1062 365 1096 q 250 1028 297 1028 z "},"Ì":{"ha":500,"x_min":-85,"x_max":375,"o":"m 0 0 m 125 944 l 375 944 l 375 0 l 125 0 l 125 944 m -85 1267 l 172 1267 l 368 1028 l 164 1028 l -85 1267 z "},"Ī":{"ha":500,"x_min":-28,"x_max":528,"o":"m 0 0 m 125 944 l 375 944 l 375 0 l 125 0 l 125 944 m -28 1236 l 528 1236 l 528 1067 l -28 1067 l -28 1236 z "},"Į":{"ha":500,"x_min":6,"x_max":401,"o":"m 401 -299 q 315 -357 374 -331 q 196 -383 257 -383 q 58 -340 110 -383 q 6 -218 6 -296 q 37 -105 6 -164 q 125 1 68 -46 l 125 944 l 375 944 l 375 0 l 313 0 q 226 -92 256 -49 q 196 -167 196 -135 q 209 -199 196 -187 q 244 -210 222 -210 q 340 -165 288 -210 l 401 -299 z "},"Ĩ":{"ha":500,"x_min":-28,"x_max":528,"o":"m 0 0 m 125 944 l 375 944 l 375 0 l 125 0 l 125 944 m -28 1019 q 26 1199 -21 1133 q 146 1265 74 1265 q 197 1256 172 1265 q 256 1231 222 1247 q 304 1208 286 1215 q 340 1201 322 1201 q 397 1279 378 1201 l 528 1274 q 472 1098 521 1168 q 354 1028 424 1028 q 299 1038 325 1028 q 235 1065 272 1047 q 192 1085 208 1079 q 160 1092 175 1092 q 126 1074 140 1092 q 103 1014 113 1056 l -28 1019 z "},"J":{"ha":500,"x_min":-96,"x_max":375,"o":"m 54 -332 q -96 -321 -4 -332 l -81 -146 q 11 -153 -25 -153 q 98 -118 71 -153 q 125 -11 125 -83 l 125 944 l 375 944 l 375 -14 q 295 -249 375 -167 q 54 -332 215 -332 z "},"Ĵ":{"ha":500,"x_min":-96,"x_max":572,"o":"m 0 0 m 54 -332 q -96 -321 -4 -332 l -81 -146 q 11 -153 -25 -153 q 98 -118 71 -153 q 125 -11 125 -83 l 125 944 l 375 944 l 375 -14 q 295 -249 375 -167 q 54 -332 215 -332 m 343 1028 l 250 1150 l 157 1028 l -72 1028 l 135 1267 l 365 1267 l 572 1028 l 343 1028 z "},"K":{"ha":1026,"x_min":125,"x_max":1019,"o":"m 718 0 l 375 478 l 375 0 l 125 0 l 125 944 l 375 944 l 375 535 l 697 944 l 985 944 l 608 510 l 1019 0 l 718 0 z "},"Ķ":{"ha":1026,"x_min":125,"x_max":1019,"o":"m 125 0 m 718 0 l 375 478 l 375 0 l 125 0 l 125 944 l 375 944 l 375 535 l 697 944 l 985 944 l 608 510 l 1019 0 l 718 0 m 401 -261 q 508 -201 508 -260 q 492 -167 508 -181 q 439 -151 475 -153 l 486 -37 q 638 -90 590 -47 q 685 -192 685 -132 q 617 -318 685 -269 q 435 -368 550 -367 l 401 -261 z "},"L":{"ha":779,"x_min":125,"x_max":765,"o":"m 765 174 l 765 0 l 125 0 l 125 944 l 375 944 l 375 174 l 765 174 z "},"Ĺ":{"ha":779,"x_min":125,"x_max":765,"o":"m 125 0 m 765 174 l 765 0 l 125 0 l 125 944 l 375 944 l 375 174 l 765 174 m 331 1267 l 588 1267 l 339 1028 l 135 1028 l 331 1267 z "},"Ľ":{"ha":779,"x_min":125,"x_max":765,"o":"m 125 0 m 765 174 l 765 0 l 125 0 l 125 944 l 375 944 l 375 174 l 765 174 m 492 629 q 542 704 526 665 q 557 792 557 743 q 518 944 557 869 l 733 944 q 753 817 753 878 q 697 659 753 731 q 557 543 640 588 l 492 629 z "},"Ļ":{"ha":779,"x_min":125,"x_max":765,"o":"m 125 0 m 765 174 l 765 0 l 125 0 l 125 944 l 375 944 l 375 174 l 765 174 m 321 -261 q 428 -201 428 -260 q 411 -167 428 -181 q 358 -151 394 -153 l 406 -37 q 557 -90 510 -47 q 604 -192 604 -132 q 537 -318 604 -269 q 354 -368 469 -367 l 321 -261 z "},"Ŀ":{"ha":779,"x_min":125,"x_max":772,"o":"m 125 0 m 765 174 l 765 0 l 125 0 l 125 944 l 375 944 l 375 174 l 765 174 m 626 360 q 524 403 567 360 q 481 506 481 446 q 524 609 481 567 q 626 651 567 651 q 730 609 688 651 q 772 506 772 567 q 730 403 772 446 q 626 360 688 360 z "},"Ł":{"ha":779,"x_min":-26,"x_max":765,"o":"m 765 174 l 765 0 l 125 0 l 125 239 l 67 201 l -26 349 l 125 444 l 125 944 l 375 944 l 375 603 l 597 743 l 690 596 l 375 396 l 375 174 l 765 174 z "},"M":{"ha":1281,"x_min":125,"x_max":1156,"o":"m 1156 944 l 1156 0 l 913 0 l 913 250 l 926 553 l 735 229 l 546 229 l 350 560 l 368 250 l 368 0 l 125 0 l 125 944 l 361 944 l 640 482 l 919 944 l 1156 944 z "},"N":{"ha":1138,"x_min":125,"x_max":1013,"o":"m 1013 944 l 1013 0 l 788 -1 l 357 590 l 375 283 l 375 0 l 125 0 l 125 944 l 350 944 l 781 357 l 763 660 l 763 944 l 1013 944 z "},"Ń":{"ha":1138,"x_min":125,"x_max":1013,"o":"m 125 0 m 1013 944 l 1013 0 l 788 -1 l 357 590 l 375 283 l 375 0 l 125 0 l 125 944 l 350 944 l 781 357 l 763 660 l 763 944 l 1013 944 m 647 1267 l 904 1267 l 656 1028 l 451 1028 l 647 1267 z "},"Ň":{"ha":1138,"x_min":125,"x_max":1013,"o":"m 125 0 m 1013 944 l 1013 0 l 788 -1 l 357 590 l 375 283 l 375 0 l 125 0 l 125 944 l 350 944 l 781 357 l 763 660 l 763 944 l 1013 944 m 889 1267 l 682 1028 l 451 1028 l 244 1267 l 474 1267 l 567 1144 l 660 1267 l 889 1267 z "},"Ņ":{"ha":1138,"x_min":125,"x_max":1013,"o":"m 125 0 m 1013 944 l 1013 0 l 788 -1 l 357 590 l 375 283 l 375 0 l 125 0 l 125 944 l 350 944 l 781 357 l 763 660 l 763 944 l 1013 944 m 426 -261 q 533 -201 533 -260 q 517 -167 533 -181 q 464 -151 500 -153 l 511 -37 q 663 -90 615 -47 q 710 -192 710 -132 q 642 -318 710 -269 q 460 -368 575 -367 l 426 -261 z "},"Ñ":{"ha":1138,"x_min":125,"x_max":1013,"o":"m 125 0 m 1013 944 l 1013 0 l 788 -1 l 357 590 l 375 283 l 375 0 l 125 0 l 125 944 l 350 944 l 781 357 l 763 660 l 763 944 l 1013 944 m 289 1019 q 343 1199 296 1133 q 463 1265 390 1265 q 514 1256 489 1265 q 572 1231 539 1247 q 621 1208 603 1215 q 657 1201 639 1201 q 714 1279 694 1201 l 844 1274 q 789 1098 838 1168 q 671 1028 740 1028 q 615 1038 642 1028 q 551 1065 589 1047 q 508 1085 525 1079 q 476 1092 492 1092 q 443 1074 457 1092 q 419 1014 429 1056 l 289 1019 z "},"O":{"ha":1150,"x_min":63,"x_max":1088,"o":"m 575 -17 q 297 49 413 -17 q 122 226 181 115 q 63 472 63 338 q 122 718 63 607 q 297 894 181 829 q 575 960 413 960 q 853 894 738 960 q 1028 717 969 828 q 1088 472 1088 607 q 1028 225 1088 336 q 853 49 969 114 q 575 -17 738 -17 m 575 163 q 716 203 657 163 q 806 313 775 243 q 838 472 838 383 q 767 694 838 607 q 575 781 697 781 q 383 694 453 781 q 313 472 313 607 q 344 313 313 383 q 434 203 375 243 q 575 163 493 163 z "},"Ó":{"ha":1150,"x_min":63,"x_max":1088,"o":"m 63 0 m 575 -17 q 297 49 413 -17 q 122 226 181 115 q 63 472 63 338 q 122 718 63 607 q 297 894 181 829 q 575 960 413 960 q 853 894 738 960 q 1028 717 969 828 q 1088 472 1088 607 q 1028 225 1088 336 q 853 49 969 114 q 575 -17 738 -17 m 575 163 q 716 203 657 163 q 806 313 775 243 q 838 472 838 383 q 767 694 838 607 q 575 781 697 781 q 383 694 453 781 q 313 472 313 607 q 344 313 313 383 q 434 203 375 243 q 575 163 493 163 m 656 1267 l 913 1267 l 664 1028 l 460 1028 l 656 1267 z "},"Ô":{"ha":1150,"x_min":63,"x_max":1088,"o":"m 63 0 m 575 -17 q 297 49 413 -17 q 122 226 181 115 q 63 472 63 338 q 122 718 63 607 q 297 894 181 829 q 575 960 413 960 q 853 894 738 960 q 1028 717 969 828 q 1088 472 1088 607 q 1028 225 1088 336 q 853 49 969 114 q 575 -17 738 -17 m 575 163 q 716 203 657 163 q 806 313 775 243 q 838 472 838 383 q 767 694 838 607 q 575 781 697 781 q 383 694 453 781 q 313 472 313 607 q 344 313 313 383 q 434 203 375 243 q 575 163 493 163 m 668 1028 l 575 1150 l 482 1028 l 253 1028 l 460 1267 l 690 1267 l 897 1028 l 668 1028 z "},"Ö":{"ha":1150,"x_min":63,"x_max":1088,"o":"m 63 0 m 575 -17 q 297 49 413 -17 q 122 226 181 115 q 63 472 63 338 q 122 718 63 607 q 297 894 181 829 q 575 960 413 960 q 853 894 738 960 q 1028 717 969 828 q 1088 472 1088 607 q 1028 225 1088 336 q 853 49 969 114 q 575 -17 738 -17 m 575 163 q 716 203 657 163 q 806 313 775 243 q 838 472 838 383 q 767 694 838 607 q 575 781 697 781 q 383 694 453 781 q 313 472 313 607 q 344 313 313 383 q 434 203 375 243 q 575 163 493 163 m 396 1028 q 315 1062 349 1028 q 281 1143 281 1096 q 315 1224 281 1190 q 396 1258 349 1258 q 477 1224 443 1258 q 511 1143 511 1190 q 477 1062 511 1096 q 396 1028 443 1028 m 754 1028 q 673 1062 707 1028 q 639 1143 639 1096 q 673 1224 639 1190 q 754 1258 707 1258 q 835 1224 801 1258 q 869 1143 869 1190 q 835 1062 869 1096 q 754 1028 801 1028 z "},"Ò":{"ha":1150,"x_min":63,"x_max":1088,"o":"m 63 0 m 575 -17 q 297 49 413 -17 q 122 226 181 115 q 63 472 63 338 q 122 718 63 607 q 297 894 181 829 q 575 960 413 960 q 853 894 738 960 q 1028 717 969 828 q 1088 472 1088 607 q 1028 225 1088 336 q 853 49 969 114 q 575 -17 738 -17 m 575 163 q 716 203 657 163 q 806 313 775 243 q 838 472 838 383 q 767 694 838 607 q 575 781 697 781 q 383 694 453 781 q 313 472 313 607 q 344 313 313 383 q 434 203 375 243 q 575 163 493 163 m 240 1267 l 497 1267 l 693 1028 l 489 1028 l 240 1267 z "},"Ő":{"ha":1150,"x_min":63,"x_max":1088,"o":"m 63 0 m 575 -17 q 297 49 413 -17 q 122 226 181 115 q 63 472 63 338 q 122 718 63 607 q 297 894 181 829 q 575 960 413 960 q 853 894 738 960 q 1028 717 969 828 q 1088 472 1088 607 q 1028 225 1088 336 q 853 49 969 114 q 575 -17 738 -17 m 575 163 q 716 203 657 163 q 806 313 775 243 q 838 472 838 383 q 767 694 838 607 q 575 781 697 781 q 383 694 453 781 q 313 472 313 607 q 344 313 313 383 q 434 203 375 243 q 575 163 493 163 m 538 1267 l 767 1267 l 518 1028 l 342 1028 l 538 1267 m 829 1267 l 1058 1267 l 810 1028 l 633 1028 l 829 1267 z "},"Ō":{"ha":1150,"x_min":63,"x_max":1088,"o":"m 63 0 m 575 -17 q 297 49 413 -17 q 122 226 181 115 q 63 472 63 338 q 122 718 63 607 q 297 894 181 829 q 575 960 413 960 q 853 894 738 960 q 1028 717 969 828 q 1088 472 1088 607 q 1028 225 1088 336 q 853 49 969 114 q 575 -17 738 -17 m 575 163 q 716 203 657 163 q 806 313 775 243 q 838 472 838 383 q 767 694 838 607 q 575 781 697 781 q 383 694 453 781 q 313 472 313 607 q 344 313 313 383 q 434 203 375 243 q 575 163 493 163 m 297 1236 l 853 1236 l 853 1067 l 297 1067 l 297 1236 z "},"Ø":{"ha":1150,"x_min":63,"x_max":1088,"o":"m 972 799 q 1058 649 1029 733 q 1088 472 1088 565 q 1028 225 1088 336 q 853 49 969 114 q 575 -17 738 -17 q 322 36 435 -17 l 210 -97 l 76 17 l 182 140 q 93 291 124 206 q 63 472 63 376 q 122 718 63 607 q 297 894 181 829 q 575 960 413 960 q 832 906 721 960 l 940 1032 l 1074 918 l 972 799 m 313 472 q 339 325 313 388 l 700 750 q 575 781 646 781 q 383 694 453 781 q 313 472 313 607 m 575 163 q 716 203 657 163 q 806 313 775 243 q 838 472 838 383 q 814 613 838 549 l 454 190 q 575 163 507 163 z "},"Õ":{"ha":1150,"x_min":63,"x_max":1088,"o":"m 63 0 m 575 -17 q 297 49 413 -17 q 122 226 181 115 q 63 472 63 338 q 122 718 63 607 q 297 894 181 829 q 575 960 413 960 q 853 894 738 960 q 1028 717 969 828 q 1088 472 1088 607 q 1028 225 1088 336 q 853 49 969 114 q 575 -17 738 -17 m 575 163 q 716 203 657 163 q 806 313 775 243 q 838 472 838 383 q 767 694 838 607 q 575 781 697 781 q 383 694 453 781 q 313 472 313 607 q 344 313 313 383 q 434 203 375 243 q 575 163 493 163 m 297 1019 q 351 1199 304 1133 q 471 1265 399 1265 q 522 1256 497 1265 q 581 1231 547 1247 q 629 1208 611 1215 q 665 1201 647 1201 q 722 1279 703 1201 l 853 1274 q 797 1098 846 1168 q 679 1028 749 1028 q 624 1038 650 1028 q 560 1065 597 1047 q 517 1085 533 1079 q 485 1092 500 1092 q 451 1074 465 1092 q 428 1014 438 1056 l 297 1019 z "},"Œ":{"ha":1414,"x_min":63,"x_max":1344,"o":"m 1344 174 l 1344 0 l 563 0 q 290 61 403 0 q 120 229 178 122 q 63 471 63 336 q 120 716 63 608 q 290 884 178 824 q 563 944 403 944 l 1317 944 l 1317 771 l 954 771 l 954 586 l 1261 586 l 1261 413 l 954 413 l 954 174 l 1344 174 m 704 176 l 704 768 l 563 768 q 378 688 444 768 q 313 472 313 607 q 378 258 313 339 q 563 176 444 176 l 704 176 z "},"P":{"ha":947,"x_min":125,"x_max":906,"o":"m 517 944 q 813 869 719 944 q 906 632 906 794 q 813 394 906 469 q 517 319 719 319 l 375 319 l 375 0 l 125 0 l 125 944 l 517 944 m 517 493 q 624 527 592 494 q 656 632 656 560 q 624 738 656 706 q 517 771 592 771 l 375 771 l 375 493 l 517 493 z "},"Þ":{"ha":979,"x_min":125,"x_max":906,"o":"m 517 799 q 813 724 719 799 q 906 486 906 649 q 813 249 906 324 q 517 174 719 174 l 375 174 l 375 0 l 125 0 l 125 944 l 375 944 l 375 799 l 517 799 m 517 347 q 624 381 592 349 q 656 486 656 414 q 624 592 656 560 q 517 625 592 625 l 375 625 l 375 347 l 517 347 z "},"Q":{"ha":1150,"x_min":63,"x_max":1292,"o":"m 1292 -272 q 1189 -318 1238 -304 q 1088 -332 1140 -332 q 890 -300 975 -332 q 742 -192 806 -268 l 594 -17 l 575 -17 q 297 49 413 -17 q 122 226 181 115 q 63 472 63 338 q 122 718 63 607 q 297 894 181 829 q 575 960 413 960 q 853 894 738 960 q 1028 717 969 828 q 1088 472 1088 607 q 1020 210 1088 326 q 825 35 953 94 l 881 -31 q 988 -123 936 -97 q 1094 -149 1040 -149 q 1269 -103 1186 -149 l 1292 -272 m 313 472 q 344 313 313 383 q 434 203 375 243 q 575 163 493 163 q 716 203 657 163 q 806 313 775 243 q 838 472 838 383 q 767 694 838 607 q 575 781 697 781 q 383 694 453 781 q 313 472 313 607 z "},"R":{"ha":1031,"x_min":125,"x_max":1017,"o":"m 508 347 l 375 347 l 375 0 l 125 0 l 125 944 l 503 944 q 799 876 706 944 q 892 660 892 807 q 751 403 892 468 l 1017 0 l 728 0 l 508 347 m 375 521 l 503 521 q 609 551 576 521 q 642 646 642 582 q 610 742 642 713 q 503 771 578 771 l 375 771 l 375 521 z "},"Ŕ":{"ha":1031,"x_min":125,"x_max":1017,"o":"m 125 0 m 508 347 l 375 347 l 375 0 l 125 0 l 125 944 l 503 944 q 799 876 706 944 q 892 660 892 807 q 751 403 892 468 l 1017 0 l 728 0 l 508 347 m 375 521 l 503 521 q 609 551 576 521 q 642 646 642 582 q 610 742 642 713 q 503 771 578 771 l 375 771 l 375 521 m 564 1267 l 821 1267 l 572 1028 l 368 1028 l 564 1267 z "},"Ř":{"ha":1031,"x_min":125,"x_max":1017,"o":"m 125 0 m 508 347 l 375 347 l 375 0 l 125 0 l 125 944 l 503 944 q 799 876 706 944 q 892 660 892 807 q 751 403 892 468 l 1017 0 l 728 0 l 508 347 m 375 521 l 503 521 q 609 551 576 521 q 642 646 642 582 q 610 742 642 713 q 503 771 578 771 l 375 771 l 375 521 m 806 1267 l 599 1028 l 368 1028 l 161 1267 l 390 1267 l 483 1144 l 576 1267 l 806 1267 z "},"Ŗ":{"ha":1031,"x_min":125,"x_max":1017,"o":"m 125 0 m 508 347 l 375 347 l 375 0 l 125 0 l 125 944 l 503 944 q 799 876 706 944 q 892 660 892 807 q 751 403 892 468 l 1017 0 l 728 0 l 508 347 m 375 521 l 503 521 q 609 551 576 521 q 642 646 642 582 q 610 742 642 713 q 503 771 578 771 l 375 771 l 375 521 m 385 -261 q 492 -201 492 -260 q 475 -167 492 -181 q 422 -151 458 -153 l 469 -37 q 621 -90 574 -47 q 668 -192 668 -132 q 601 -318 668 -269 q 418 -368 533 -367 l 385 -261 z "},"S":{"ha":853,"x_min":53,"x_max":797,"o":"m 379 -17 q 201 1 288 -17 q 53 49 115 18 l 100 219 q 243 176 178 190 q 376 163 308 163 q 502 187 451 163 q 553 260 553 211 q 529 315 553 292 q 469 356 506 339 q 368 396 433 372 q 220 458 278 429 q 122 539 163 488 q 81 667 81 590 q 188 882 81 804 q 478 960 294 960 q 624 943 550 960 q 756 897 699 926 l 707 728 q 593 767 646 754 q 486 781 540 781 q 369 755 414 781 q 325 683 325 729 q 367 619 325 644 q 499 561 408 594 q 651 495 590 526 q 754 410 711 464 q 797 276 797 356 q 690 60 797 138 q 379 -17 583 -17 z "},"Ś":{"ha":853,"x_min":53,"x_max":797,"o":"m 53 0 m 379 -17 q 201 1 288 -17 q 53 49 115 18 l 100 219 q 243 176 178 190 q 376 163 308 163 q 502 187 451 163 q 553 260 553 211 q 529 315 553 292 q 469 356 506 339 q 368 396 433 372 q 220 458 278 429 q 122 539 163 488 q 81 667 81 590 q 188 882 81 804 q 478 960 294 960 q 624 943 550 960 q 756 897 699 926 l 707 728 q 593 767 646 754 q 486 781 540 781 q 369 755 414 781 q 325 683 325 729 q 367 619 325 644 q 499 561 408 594 q 651 495 590 526 q 754 410 711 464 q 797 276 797 356 q 690 60 797 138 q 379 -17 583 -17 m 532 1267 l 789 1267 l 540 1028 l 336 1028 l 532 1267 z "},"Š":{"ha":853,"x_min":53,"x_max":797,"o":"m 53 0 m 379 -17 q 201 1 288 -17 q 53 49 115 18 l 100 219 q 243 176 178 190 q 376 163 308 163 q 502 187 451 163 q 553 260 553 211 q 529 315 553 292 q 469 356 506 339 q 368 396 433 372 q 220 458 278 429 q 122 539 163 488 q 81 667 81 590 q 188 882 81 804 q 478 960 294 960 q 624 943 550 960 q 756 897 699 926 l 707 728 q 593 767 646 754 q 486 781 540 781 q 369 755 414 781 q 325 683 325 729 q 367 619 325 644 q 499 561 408 594 q 651 495 590 526 q 754 410 711 464 q 797 276 797 356 q 690 60 797 138 q 379 -17 583 -17 m 774 1267 l 567 1028 l 336 1028 l 129 1267 l 358 1267 l 451 1144 l 544 1267 l 774 1267 z "},"Ş":{"ha":853,"x_min":53,"x_max":797,"o":"m 797 276 q 724 88 797 161 q 508 -7 651 15 l 481 -60 q 569 -99 533 -67 q 604 -178 604 -132 q 579 -253 604 -217 q 494 -315 554 -290 q 339 -340 435 -340 l 308 -233 q 403 -222 378 -233 q 428 -187 428 -210 q 415 -163 428 -172 q 382 -154 403 -154 q 344 -161 364 -154 l 301 -101 l 347 -17 q 186 3 264 -14 q 53 49 108 21 l 100 219 q 243 176 178 190 q 376 163 308 163 q 502 187 451 163 q 553 260 553 211 q 529 315 553 292 q 469 356 506 339 q 368 396 433 372 q 220 458 278 429 q 122 539 163 488 q 81 667 81 590 q 188 882 81 804 q 478 960 294 960 q 624 943 550 960 q 756 897 699 926 l 707 728 q 593 767 646 754 q 486 781 540 781 q 369 755 414 781 q 325 683 325 729 q 367 619 325 644 q 499 561 408 594 q 651 495 590 526 q 754 410 711 464 q 797 276 797 356 z "},"Ș":{"ha":853,"x_min":53,"x_max":797,"o":"m 53 0 m 379 -17 q 201 1 288 -17 q 53 49 115 18 l 100 219 q 243 176 178 190 q 376 163 308 163 q 502 187 451 163 q 553 260 553 211 q 529 315 553 292 q 469 356 506 339 q 368 396 433 372 q 220 458 278 429 q 122 539 163 488 q 81 667 81 590 q 188 882 81 804 q 478 960 294 960 q 624 943 550 960 q 756 897 699 926 l 707 728 q 593 767 646 754 q 486 781 540 781 q 369 755 414 781 q 325 683 325 729 q 367 619 325 644 q 499 561 408 594 q 651 495 590 526 q 754 410 711 464 q 797 276 797 356 q 690 60 797 138 q 379 -17 583 -17 m 299 -261 q 406 -201 406 -260 q 389 -167 406 -181 q 336 -151 372 -153 l 383 -37 q 535 -90 488 -47 q 582 -192 582 -132 q 515 -318 582 -269 q 332 -368 447 -367 l 299 -261 z "},"T":{"ha":819,"x_min":28,"x_max":792,"o":"m 792 768 l 535 768 l 535 0 l 285 0 l 285 768 l 28 768 l 28 944 l 792 944 l 792 768 z "},"Ť":{"ha":819,"x_min":28,"x_max":792,"o":"m 28 0 m 792 768 l 535 768 l 535 0 l 285 0 l 285 768 l 28 768 l 28 944 l 792 944 l 792 768 m 732 1267 l 525 1028 l 294 1028 l 88 1267 l 317 1267 l 410 1144 l 503 1267 l 732 1267 z "},"Ț":{"ha":819,"x_min":28,"x_max":792,"o":"m 28 0 m 792 768 l 535 768 l 535 0 l 285 0 l 285 768 l 28 768 l 28 944 l 792 944 l 792 768 m 269 -261 q 376 -201 376 -260 q 360 -167 376 -181 q 307 -151 343 -153 l 354 -37 q 506 -90 458 -47 q 553 -192 553 -132 q 485 -318 553 -269 q 303 -368 418 -367 l 269 -261 z "},"U":{"ha":1110,"x_min":111,"x_max":999,"o":"m 556 -17 q 225 88 339 -17 q 111 378 111 193 l 111 944 l 361 944 l 361 379 q 410 214 361 265 q 556 163 460 163 q 699 214 650 163 q 749 379 749 265 l 749 944 l 999 944 l 999 381 q 885 89 999 194 q 556 -17 771 -17 z "},"Ú":{"ha":1110,"x_min":111,"x_max":999,"o":"m 111 0 m 556 -17 q 225 88 339 -17 q 111 378 111 193 l 111 944 l 361 944 l 361 379 q 410 214 361 265 q 556 163 460 163 q 699 214 650 163 q 749 379 749 265 l 749 944 l 999 944 l 999 381 q 885 89 999 194 q 556 -17 771 -17 m 636 1267 l 893 1267 l 644 1028 l 440 1028 l 636 1267 z "},"Û":{"ha":1110,"x_min":111,"x_max":999,"o":"m 111 0 m 556 -17 q 225 88 339 -17 q 111 378 111 193 l 111 944 l 361 944 l 361 379 q 410 214 361 265 q 556 163 460 163 q 699 214 650 163 q 749 379 749 265 l 749 944 l 999 944 l 999 381 q 885 89 999 194 q 556 -17 771 -17 m 649 1028 l 556 1150 l 463 1028 l 233 1028 l 440 1267 l 671 1267 l 878 1028 l 649 1028 z "},"Ü":{"ha":1110,"x_min":111,"x_max":999,"o":"m 111 0 m 556 -17 q 225 88 339 -17 q 111 378 111 193 l 111 944 l 361 944 l 361 379 q 410 214 361 265 q 556 163 460 163 q 699 214 650 163 q 749 379 749 265 l 749 944 l 999 944 l 999 381 q 885 89 999 194 q 556 -17 771 -17 m 376 1028 q 295 1062 329 1028 q 261 1143 261 1096 q 295 1224 261 1190 q 376 1258 329 1258 q 458 1224 424 1258 q 492 1143 492 1190 q 458 1062 492 1096 q 376 1028 424 1028 m 735 1028 q 653 1062 688 1028 q 619 1143 619 1096 q 653 1224 619 1190 q 735 1258 688 1258 q 816 1224 782 1258 q 850 1143 850 1190 q 816 1062 850 1096 q 735 1028 782 1028 z "},"Ù":{"ha":1110,"x_min":111,"x_max":999,"o":"m 111 0 m 556 -17 q 225 88 339 -17 q 111 378 111 193 l 111 944 l 361 944 l 361 379 q 410 214 361 265 q 556 163 460 163 q 699 214 650 163 q 749 379 749 265 l 749 944 l 999 944 l 999 381 q 885 89 999 194 q 556 -17 771 -17 m 221 1267 l 478 1267 l 674 1028 l 469 1028 l 221 1267 z "},"Ű":{"ha":1110,"x_min":111,"x_max":1039,"o":"m 111 0 m 556 -17 q 225 88 339 -17 q 111 378 111 193 l 111 944 l 361 944 l 361 379 q 410 214 361 265 q 556 163 460 163 q 699 214 650 163 q 749 379 749 265 l 749 944 l 999 944 l 999 381 q 885 89 999 194 q 556 -17 771 -17 m 518 1267 l 747 1267 l 499 1028 l 322 1028 l 518 1267 m 810 1267 l 1039 1267 l 790 1028 l 614 1028 l 810 1267 z "},"Ū":{"ha":1110,"x_min":111,"x_max":999,"o":"m 111 0 m 556 -17 q 225 88 339 -17 q 111 378 111 193 l 111 944 l 361 944 l 361 379 q 410 214 361 265 q 556 163 460 163 q 699 214 650 163 q 749 379 749 265 l 749 944 l 999 944 l 999 381 q 885 89 999 194 q 556 -17 771 -17 m 278 1236 l 833 1236 l 833 1067 l 278 1067 l 278 1236 z "},"Ų":{"ha":1110,"x_min":111,"x_max":999,"o":"m 999 944 l 999 381 q 930 140 999 236 q 729 6 861 43 q 606 -167 606 -97 q 619 -199 606 -187 q 654 -210 632 -210 q 750 -165 697 -210 l 811 -299 q 725 -357 783 -331 q 606 -383 667 -383 q 467 -340 519 -383 q 415 -218 415 -296 q 442 -115 415 -168 q 515 -15 468 -61 q 215 98 318 -6 q 111 378 111 201 l 111 944 l 361 944 l 361 379 q 410 214 361 265 q 556 163 460 163 q 699 214 650 163 q 749 379 749 265 l 749 944 l 999 944 z "},"Ů":{"ha":1110,"x_min":111,"x_max":999,"o":"m 111 0 m 556 -17 q 225 88 339 -17 q 111 378 111 193 l 111 944 l 361 944 l 361 379 q 410 214 361 265 q 556 163 460 163 q 699 214 650 163 q 749 379 749 265 l 749 944 l 999 944 l 999 381 q 885 89 999 194 q 556 -17 771 -17 m 556 1014 q 398 1057 454 1014 q 342 1168 342 1100 q 398 1279 342 1236 q 556 1322 454 1322 q 713 1279 657 1322 q 769 1168 769 1236 q 713 1057 769 1100 q 556 1014 657 1014 m 556 1122 q 614 1168 614 1122 q 556 1214 614 1214 q 513 1202 528 1214 q 497 1168 497 1190 q 556 1122 497 1122 z "},"V":{"ha":1007,"x_min":14,"x_max":993,"o":"m 993 944 l 633 -7 l 375 -7 l 14 944 l 268 944 l 506 225 l 742 944 l 993 944 z "},"W":{"ha":1544,"x_min":14,"x_max":1531,"o":"m 1531 944 l 1203 -7 l 949 -7 l 761 642 l 575 -7 l 321 -7 l 14 944 l 268 944 l 451 247 l 642 944 l 883 944 l 1076 243 l 1271 944 l 1531 944 z "},"X":{"ha":1036,"x_min":21,"x_max":1015,"o":"m 722 0 l 515 322 l 310 0 l 21 0 l 374 485 l 39 944 l 332 944 l 517 639 l 700 944 l 989 944 l 656 489 l 1015 0 l 722 0 z "},"Y":{"ha":961,"x_min":7,"x_max":954,"o":"m 606 381 l 606 0 l 356 0 l 356 376 l 7 944 l 269 944 l 481 558 l 694 944 l 954 944 l 606 381 z "},"Ý":{"ha":961,"x_min":7,"x_max":954,"o":"m 7 0 m 606 381 l 606 0 l 356 0 l 356 376 l 7 944 l 269 944 l 481 558 l 694 944 l 954 944 l 606 381 m 561 1267 l 818 1267 l 569 1028 l 365 1028 l 561 1267 z "},"Ÿ":{"ha":961,"x_min":7,"x_max":954,"o":"m 7 0 m 606 381 l 606 0 l 356 0 l 356 376 l 7 944 l 269 944 l 481 558 l 694 944 l 954 944 l 606 381 m 301 1028 q 220 1062 254 1028 q 186 1143 186 1096 q 220 1224 186 1190 q 301 1258 254 1258 q 383 1224 349 1258 q 417 1143 417 1190 q 383 1062 417 1096 q 301 1028 349 1028 m 660 1028 q 578 1062 613 1028 q 544 1143 544 1096 q 578 1224 544 1190 q 660 1258 613 1258 q 741 1224 707 1258 q 775 1143 775 1190 q 741 1062 775 1096 q 660 1028 707 1028 z "},"Z":{"ha":985,"x_min":69,"x_max":943,"o":"m 943 176 l 943 0 l 69 0 l 69 138 l 603 768 l 88 768 l 88 944 l 924 944 l 924 796 l 392 176 l 943 176 z "},"Ź":{"ha":985,"x_min":69,"x_max":943,"o":"m 69 0 m 943 176 l 943 0 l 69 0 l 69 138 l 603 768 l 88 768 l 88 944 l 924 944 l 924 796 l 392 176 l 943 176 m 588 1267 l 844 1267 l 596 1028 l 392 1028 l 588 1267 z "},"Ž":{"ha":985,"x_min":69,"x_max":943,"o":"m 69 0 m 943 176 l 943 0 l 69 0 l 69 138 l 603 768 l 88 768 l 88 944 l 924 944 l 924 796 l 392 176 l 943 176 m 829 1267 l 622 1028 l 392 1028 l 185 1267 l 414 1267 l 507 1144 l 600 1267 l 829 1267 z "},"Ż":{"ha":985,"x_min":69,"x_max":943,"o":"m 69 0 m 943 176 l 943 0 l 69 0 l 69 138 l 603 768 l 88 768 l 88 944 l 924 944 l 924 796 l 392 176 l 943 176 m 507 1028 q 426 1062 460 1028 q 392 1143 392 1096 q 426 1224 392 1190 q 507 1258 460 1258 q 588 1224 554 1258 q 622 1143 622 1190 q 588 1062 622 1096 q 507 1028 554 1028 z "},"a":{"ha":856,"x_min":56,"x_max":851,"o":"m 851 8 q 773 -6 807 -1 q 693 -10 739 -10 q 518 76 560 -10 q 401 11 460 33 q 274 -11 343 -11 q 161 15 211 -11 q 83 86 111 42 q 56 183 56 131 q 101 324 56 272 q 222 408 146 376 q 454 483 299 439 l 496 496 l 496 501 q 379 629 496 629 q 257 604 322 629 q 107 524 192 579 l 61 690 q 253 775 156 744 q 461 806 351 806 q 666 733 594 806 q 738 486 738 661 l 738 222 q 750 178 738 192 q 790 165 763 165 q 843 172 817 165 l 851 8 m 297 215 q 312 175 297 188 q 358 163 326 163 q 496 213 417 163 l 496 360 l 475 353 q 334 287 371 315 q 297 215 297 258 z "},"á":{"ha":856,"x_min":56,"x_max":851,"o":"m 56 0 m 851 8 q 773 -6 807 -1 q 693 -10 739 -10 q 518 76 560 -10 q 401 11 460 33 q 274 -11 343 -11 q 161 15 211 -11 q 83 86 111 42 q 56 183 56 131 q 101 324 56 272 q 222 408 146 376 q 454 483 299 439 l 496 496 l 496 501 q 379 629 496 629 q 257 604 322 629 q 107 524 192 579 l 61 690 q 253 775 156 744 q 461 806 351 806 q 666 733 594 806 q 738 486 738 661 l 738 222 q 750 178 738 192 q 790 165 763 165 q 843 172 817 165 l 851 8 m 297 215 q 312 175 297 188 q 358 163 326 163 q 496 213 417 163 l 496 360 l 475 353 q 334 287 371 315 q 297 215 297 258 m 453 1169 l 713 1169 l 504 875 l 318 875 l 453 1169 z "},"ă":{"ha":856,"x_min":56,"x_max":851,"o":"m 56 0 m 851 8 q 773 -6 807 -1 q 693 -10 739 -10 q 518 76 560 -10 q 401 11 460 33 q 274 -11 343 -11 q 161 15 211 -11 q 83 86 111 42 q 56 183 56 131 q 101 324 56 272 q 222 408 146 376 q 454 483 299 439 l 496 496 l 496 501 q 379 629 496 629 q 257 604 322 629 q 107 524 192 579 l 61 690 q 253 775 156 744 q 461 806 351 806 q 666 733 594 806 q 738 486 738 661 l 738 222 q 750 178 738 192 q 790 165 763 165 q 843 172 817 165 l 851 8 m 297 215 q 312 175 297 188 q 358 163 326 163 q 496 213 417 163 l 496 360 l 475 353 q 334 287 371 315 q 297 215 297 258 m 435 872 q 242 946 311 872 q 171 1167 174 1019 l 333 1169 q 363 1067 336 1101 q 435 1032 390 1032 q 506 1067 479 1032 q 536 1171 533 1101 l 699 1167 q 627 946 696 1019 q 435 872 558 872 z "},"â":{"ha":856,"x_min":56,"x_max":851,"o":"m 56 0 m 851 8 q 773 -6 807 -1 q 693 -10 739 -10 q 518 76 560 -10 q 401 11 460 33 q 274 -11 343 -11 q 161 15 211 -11 q 83 86 111 42 q 56 183 56 131 q 101 324 56 272 q 222 408 146 376 q 454 483 299 439 l 496 496 l 496 501 q 379 629 496 629 q 257 604 322 629 q 107 524 192 579 l 61 690 q 253 775 156 744 q 461 806 351 806 q 666 733 594 806 q 738 486 738 661 l 738 222 q 750 178 738 192 q 790 165 763 165 q 843 172 817 165 l 851 8 m 297 215 q 312 175 297 188 q 358 163 326 163 q 496 213 417 163 l 496 360 l 475 353 q 334 287 371 315 q 297 215 297 258 m 528 875 l 435 1025 l 342 875 l 156 875 l 315 1167 l 554 1167 l 714 875 l 528 875 z "},"ä":{"ha":856,"x_min":56,"x_max":851,"o":"m 56 0 m 851 8 q 773 -6 807 -1 q 693 -10 739 -10 q 518 76 560 -10 q 401 11 460 33 q 274 -11 343 -11 q 161 15 211 -11 q 83 86 111 42 q 56 183 56 131 q 101 324 56 272 q 222 408 146 376 q 454 483 299 439 l 496 496 l 496 501 q 379 629 496 629 q 257 604 322 629 q 107 524 192 579 l 61 690 q 253 775 156 744 q 461 806 351 806 q 666 733 594 806 q 738 486 738 661 l 738 222 q 750 178 738 192 q 790 165 763 165 q 843 172 817 165 l 851 8 m 297 215 q 312 175 297 188 q 358 163 326 163 q 496 213 417 163 l 496 360 l 475 353 q 334 287 371 315 q 297 215 297 258 m 256 893 q 167 931 204 893 q 129 1019 129 968 q 167 1108 129 1071 q 256 1146 204 1146 q 344 1108 307 1146 q 382 1019 382 1071 q 344 931 382 968 q 256 893 307 893 m 614 893 q 525 931 563 893 q 488 1019 488 968 q 525 1108 488 1071 q 614 1146 563 1146 q 703 1108 665 1146 q 740 1019 740 1071 q 703 931 740 968 q 614 893 665 893 z "},"à":{"ha":856,"x_min":56,"x_max":851,"o":"m 56 0 m 851 8 q 773 -6 807 -1 q 693 -10 739 -10 q 518 76 560 -10 q 401 11 460 33 q 274 -11 343 -11 q 161 15 211 -11 q 83 86 111 42 q 56 183 56 131 q 101 324 56 272 q 222 408 146 376 q 454 483 299 439 l 496 496 l 496 501 q 379 629 496 629 q 257 604 322 629 q 107 524 192 579 l 61 690 q 253 775 156 744 q 461 806 351 806 q 666 733 594 806 q 738 486 738 661 l 738 222 q 750 178 738 192 q 790 165 763 165 q 843 172 817 165 l 851 8 m 297 215 q 312 175 297 188 q 358 163 326 163 q 496 213 417 163 l 496 360 l 475 353 q 334 287 371 315 q 297 215 297 258 m 154 1169 l 414 1169 l 549 875 l 363 875 l 154 1169 z "},"ā":{"ha":856,"x_min":56,"x_max":851,"o":"m 56 0 m 851 8 q 773 -6 807 -1 q 693 -10 739 -10 q 518 76 560 -10 q 401 11 460 33 q 274 -11 343 -11 q 161 15 211 -11 q 83 86 111 42 q 56 183 56 131 q 101 324 56 272 q 222 408 146 376 q 454 483 299 439 l 496 496 l 496 501 q 379 629 496 629 q 257 604 322 629 q 107 524 192 579 l 61 690 q 253 775 156 744 q 461 806 351 806 q 666 733 594 806 q 738 486 738 661 l 738 222 q 750 178 738 192 q 790 165 763 165 q 843 172 817 165 l 851 8 m 297 215 q 312 175 297 188 q 358 163 326 163 q 496 213 417 163 l 496 360 l 475 353 q 334 287 371 315 q 297 215 297 258 m 157 1142 l 713 1142 l 713 972 l 157 972 l 157 1142 z "},"ą":{"ha":856,"x_min":56,"x_max":865,"o":"m 865 -299 q 779 -357 838 -331 q 660 -383 721 -383 q 522 -340 574 -383 q 469 -218 469 -296 q 503 -101 469 -161 q 596 6 536 -40 q 518 76 542 28 q 401 11 460 33 q 274 -11 343 -11 q 161 15 211 -11 q 83 86 111 42 q 56 183 56 131 q 101 324 56 272 q 222 408 146 376 q 454 483 299 439 l 496 496 l 496 501 q 379 629 496 629 q 257 604 322 629 q 107 524 192 579 l 61 690 q 253 775 156 744 q 461 806 351 806 q 666 733 594 806 q 738 486 738 661 l 738 222 q 750 178 738 192 q 790 165 763 165 q 843 172 817 165 l 851 8 q 771 -6 813 -1 q 688 -93 717 -51 q 660 -167 660 -135 q 673 -199 660 -187 q 708 -210 686 -210 q 804 -165 751 -210 l 865 -299 m 297 215 q 312 175 297 188 q 358 163 326 163 q 496 213 417 163 l 496 360 l 475 353 q 334 287 371 315 q 297 215 297 258 z "},"å":{"ha":856,"x_min":56,"x_max":851,"o":"m 56 0 m 851 8 q 773 -6 807 -1 q 693 -10 739 -10 q 518 76 560 -10 q 401 11 460 33 q 274 -11 343 -11 q 161 15 211 -11 q 83 86 111 42 q 56 183 56 131 q 101 324 56 272 q 222 408 146 376 q 454 483 299 439 l 496 496 l 496 501 q 379 629 496 629 q 257 604 322 629 q 107 524 192 579 l 61 690 q 253 775 156 744 q 461 806 351 806 q 666 733 594 806 q 738 486 738 661 l 738 222 q 750 178 738 192 q 790 165 763 165 q 843 172 817 165 l 851 8 m 297 215 q 312 175 297 188 q 358 163 326 163 q 496 213 417 163 l 496 360 l 475 353 q 334 287 371 315 q 297 215 297 258 m 435 868 q 320 892 368 868 q 248 954 272 915 q 224 1036 224 993 q 248 1118 224 1079 q 320 1181 272 1157 q 435 1204 368 1204 q 549 1181 501 1204 q 622 1118 597 1157 q 646 1036 646 1079 q 622 954 646 993 q 549 892 597 915 q 435 868 501 868 m 435 969 q 482 988 464 969 q 500 1036 500 1007 q 482 1084 500 1065 q 435 1103 464 1103 q 388 1084 406 1103 q 369 1036 369 1065 q 388 988 369 1007 q 435 969 406 969 z "},"ã":{"ha":856,"x_min":56,"x_max":851,"o":"m 56 0 m 851 8 q 773 -6 807 -1 q 693 -10 739 -10 q 518 76 560 -10 q 401 11 460 33 q 274 -11 343 -11 q 161 15 211 -11 q 83 86 111 42 q 56 183 56 131 q 101 324 56 272 q 222 408 146 376 q 454 483 299 439 l 496 496 l 496 501 q 379 629 496 629 q 257 604 322 629 q 107 524 192 579 l 61 690 q 253 775 156 744 q 461 806 351 806 q 666 733 594 806 q 738 486 738 661 l 738 222 q 750 178 738 192 q 790 165 763 165 q 843 172 817 165 l 851 8 m 297 215 q 312 175 297 188 q 358 163 326 163 q 496 213 417 163 l 496 360 l 475 353 q 334 287 371 315 q 297 215 297 258 m 157 922 q 211 1102 164 1036 q 331 1168 258 1168 q 382 1159 357 1168 q 440 1133 407 1150 q 489 1111 471 1118 q 525 1104 507 1104 q 582 1182 563 1104 l 713 1176 q 657 1001 706 1071 q 539 931 608 931 q 483 940 510 931 q 419 968 457 950 q 376 988 393 982 q 344 994 360 994 q 311 976 325 994 q 288 917 297 957 l 157 922 z "},"æ":{"ha":1296,"x_min":56,"x_max":1240,"o":"m 735 350 q 783 204 742 251 q 911 157 825 157 q 1030 180 975 157 q 1156 249 1085 203 l 1221 96 q 1075 10 1147 36 q 910 -17 1003 -17 q 715 21 797 -17 q 582 126 633 58 q 431 24 500 58 q 274 -11 361 -11 q 161 15 211 -11 q 83 86 111 42 q 56 183 56 131 q 101 324 56 272 q 222 408 146 376 q 454 483 299 439 l 496 496 l 496 501 q 379 629 496 629 q 257 604 322 629 q 107 524 192 579 l 61 690 q 253 775 156 744 q 461 806 351 806 q 647 729 588 806 q 910 806 750 806 q 1155 719 1071 806 q 1240 472 1239 632 q 1222 350 1240 410 l 735 350 m 1006 507 q 1007 529 1007 515 q 976 616 1006 586 q 896 646 947 646 q 743 507 774 646 l 1006 507 m 358 163 q 435 180 396 163 q 526 232 474 197 q 504 363 506 300 l 475 353 q 334 287 371 315 q 297 215 297 258 q 312 175 297 188 q 358 163 326 163 z "},"b":{"ha":965,"x_min":111,"x_max":910,"o":"m 538 806 q 731 759 647 806 q 863 621 815 713 q 910 396 910 529 q 857 162 910 254 q 717 26 804 69 q 526 -17 631 -17 q 313 57 413 -17 l 290 0 l 111 0 l 111 1111 l 353 1111 l 353 757 q 538 806 436 806 m 497 157 q 625 215 585 157 q 665 396 665 274 q 510 632 665 632 q 426 622 463 632 q 353 590 389 613 l 353 199 q 497 157 425 157 z "},"c":{"ha":767,"x_min":56,"x_max":742,"o":"m 471 -17 q 239 37 332 -17 q 101 183 146 90 q 56 393 56 275 q 101 600 56 507 q 244 749 147 693 q 492 806 342 806 q 608 793 546 806 q 710 761 671 781 l 664 594 q 492 632 571 632 q 350 572 400 632 q 300 394 300 511 q 344 217 300 278 q 471 157 389 157 q 572 174 526 157 q 676 224 618 190 l 742 71 q 622 8 693 33 q 471 -17 550 -17 z "},"ć":{"ha":767,"x_min":56,"x_max":744,"o":"m 56 0 m 471 -17 q 239 37 332 -17 q 101 183 146 90 q 56 393 56 275 q 101 600 56 507 q 244 749 147 693 q 492 806 342 806 q 608 793 546 806 q 710 761 671 781 l 664 594 q 492 632 571 632 q 350 572 400 632 q 300 394 300 511 q 344 217 300 278 q 471 157 389 157 q 572 174 526 157 q 676 224 618 190 l 742 71 q 622 8 693 33 q 471 -17 550 -17 m 485 1169 l 744 1169 l 536 875 l 350 875 l 485 1169 z "},"č":{"ha":767,"x_min":56,"x_max":746,"o":"m 56 0 m 471 -17 q 239 37 332 -17 q 101 183 146 90 q 56 393 56 275 q 101 600 56 507 q 244 749 147 693 q 492 806 342 806 q 608 793 546 806 q 710 761 671 781 l 664 594 q 492 632 571 632 q 350 572 400 632 q 300 394 300 511 q 344 217 300 278 q 471 157 389 157 q 572 174 526 157 q 676 224 618 190 l 742 71 q 622 8 693 33 q 471 -17 550 -17 m 746 1167 l 586 875 l 347 875 l 188 1167 l 374 1167 l 467 1017 l 560 1167 l 746 1167 z "},"ç":{"ha":767,"x_min":56,"x_max":742,"o":"m 513 -60 q 601 -99 565 -67 q 636 -178 636 -132 q 611 -253 636 -217 q 526 -315 586 -290 q 371 -340 467 -340 l 340 -233 q 435 -222 410 -233 q 460 -187 460 -210 q 447 -163 460 -172 q 414 -154 435 -154 q 376 -161 396 -154 l 333 -101 l 383 -10 q 138 123 221 14 q 56 393 56 232 q 101 600 56 507 q 244 749 147 693 q 492 806 342 806 q 608 793 546 806 q 710 761 671 781 l 664 594 q 492 632 571 632 q 350 572 400 632 q 300 394 300 511 q 344 217 300 278 q 471 157 389 157 q 572 174 526 157 q 676 224 618 190 l 742 71 q 651 19 704 42 q 539 -11 599 -3 l 513 -60 z "},"d":{"ha":965,"x_min":56,"x_max":854,"o":"m 854 1111 l 854 0 l 675 0 l 653 58 q 428 -17 553 -17 q 234 30 318 -17 q 103 168 150 76 q 56 393 56 260 q 179 709 56 613 q 508 806 303 806 q 613 796 561 806 l 613 1111 l 854 1111 m 300 393 q 456 157 300 157 q 540 167 503 157 q 613 199 576 176 l 613 622 q 524 632 567 632 q 355 573 410 632 q 300 393 300 514 z "},"ð":{"ha":978,"x_min":56,"x_max":885,"o":"m 664 918 q 827 678 769 813 q 885 410 885 544 q 833 185 885 282 q 688 36 781 89 q 478 -17 596 -17 q 245 35 340 -17 q 103 175 150 88 q 56 367 56 263 q 103 558 56 471 q 245 698 151 646 q 468 750 339 750 q 549 742 511 750 q 467 839 511 799 l 235 744 l 171 888 l 314 944 q 158 1011 244 982 l 299 1126 q 524 1029 419 1094 l 732 1113 l 794 971 l 664 918 m 478 157 q 596 223 551 157 q 640 406 640 289 q 636 483 640 444 q 562 553 606 531 q 468 576 518 576 q 344 519 389 576 q 300 367 300 461 q 346 217 300 276 q 478 157 392 157 z "},"ď":{"ha":965,"x_min":56,"x_max":1188,"o":"m 56 0 m 854 1111 l 854 0 l 675 0 l 653 58 q 428 -17 553 -17 q 234 30 318 -17 q 103 168 150 76 q 56 393 56 260 q 179 709 56 613 q 508 806 303 806 q 613 796 561 806 l 613 1111 l 854 1111 m 300 393 q 456 157 300 157 q 540 167 503 157 q 613 199 576 176 l 613 622 q 524 632 567 632 q 355 573 410 632 q 300 393 300 514 m 926 796 q 976 871 961 832 q 992 958 992 910 q 953 1111 992 1036 l 1168 1111 q 1188 983 1188 1044 q 1131 826 1188 897 q 992 710 1075 754 l 926 796 z "},"đ":{"ha":965,"x_min":56,"x_max":961,"o":"m 961 867 l 854 867 l 854 0 l 675 0 l 653 58 q 428 -17 553 -17 q 234 30 318 -17 q 103 168 150 76 q 56 393 56 260 q 179 709 56 613 q 508 806 303 806 q 613 796 561 806 l 613 867 l 388 867 l 388 1036 l 613 1036 l 613 1111 l 854 1111 l 854 1036 l 961 1036 l 961 867 m 300 393 q 456 157 300 157 q 540 167 503 157 q 613 199 576 176 l 613 622 q 524 632 567 632 q 355 573 410 632 q 300 393 300 514 z "},"e":{"ha":856,"x_min":56,"x_max":800,"o":"m 294 350 q 343 204 301 251 q 471 157 385 157 q 590 180 535 157 q 715 249 644 203 l 781 96 q 635 10 707 36 q 469 -17 563 -17 q 239 37 332 -17 q 101 183 146 90 q 56 393 56 275 q 161 693 56 581 q 469 806 267 806 q 715 719 631 806 q 800 472 799 632 q 782 350 800 410 l 294 350 m 565 507 q 567 529 567 515 q 536 616 565 586 q 456 646 507 646 q 303 507 333 646 l 565 507 z "},"é":{"ha":856,"x_min":56,"x_max":800,"o":"m 56 0 m 294 350 q 343 204 301 251 q 471 157 385 157 q 590 180 535 157 q 715 249 644 203 l 781 96 q 635 10 707 36 q 469 -17 563 -17 q 239 37 332 -17 q 101 183 146 90 q 56 393 56 275 q 161 693 56 581 q 469 806 267 806 q 715 719 631 806 q 800 472 799 632 q 782 350 800 410 l 294 350 m 565 507 q 567 529 567 515 q 536 616 565 586 q 456 646 507 646 q 303 507 333 646 l 565 507 m 471 1169 l 731 1169 l 522 875 l 336 875 l 471 1169 z "},"ě":{"ha":856,"x_min":56,"x_max":800,"o":"m 56 0 m 294 350 q 343 204 301 251 q 471 157 385 157 q 590 180 535 157 q 715 249 644 203 l 781 96 q 635 10 707 36 q 469 -17 563 -17 q 239 37 332 -17 q 101 183 146 90 q 56 393 56 275 q 161 693 56 581 q 469 806 267 806 q 715 719 631 806 q 800 472 799 632 q 782 350 800 410 l 294 350 m 565 507 q 567 529 567 515 q 536 616 565 586 q 456 646 507 646 q 303 507 333 646 l 565 507 m 732 1167 l 572 875 l 333 875 l 174 1167 l 360 1167 l 453 1017 l 546 1167 l 732 1167 z "},"ê":{"ha":856,"x_min":56,"x_max":800,"o":"m 56 0 m 294 350 q 343 204 301 251 q 471 157 385 157 q 590 180 535 157 q 715 249 644 203 l 781 96 q 635 10 707 36 q 469 -17 563 -17 q 239 37 332 -17 q 101 183 146 90 q 56 393 56 275 q 161 693 56 581 q 469 806 267 806 q 715 719 631 806 q 800 472 799 632 q 782 350 800 410 l 294 350 m 565 507 q 567 529 567 515 q 536 616 565 586 q 456 646 507 646 q 303 507 333 646 l 565 507 m 546 875 l 453 1025 l 360 875 l 174 875 l 333 1167 l 572 1167 l 732 875 l 546 875 z "},"ë":{"ha":856,"x_min":56,"x_max":800,"o":"m 56 0 m 294 350 q 343 204 301 251 q 471 157 385 157 q 590 180 535 157 q 715 249 644 203 l 781 96 q 635 10 707 36 q 469 -17 563 -17 q 239 37 332 -17 q 101 183 146 90 q 56 393 56 275 q 161 693 56 581 q 469 806 267 806 q 715 719 631 806 q 800 472 799 632 q 782 350 800 410 l 294 350 m 565 507 q 567 529 567 515 q 536 616 565 586 q 456 646 507 646 q 303 507 333 646 l 565 507 m 274 893 q 185 931 222 893 q 147 1019 147 968 q 185 1108 147 1071 q 274 1146 222 1146 q 363 1108 325 1146 q 400 1019 400 1071 q 363 931 400 968 q 274 893 325 893 m 632 893 q 543 931 581 893 q 506 1019 506 968 q 543 1108 506 1071 q 632 1146 581 1146 q 721 1108 683 1146 q 758 1019 758 1071 q 721 931 758 968 q 632 893 683 893 z "},"ė":{"ha":856,"x_min":56,"x_max":800,"o":"m 56 0 m 294 350 q 343 204 301 251 q 471 157 385 157 q 590 180 535 157 q 715 249 644 203 l 781 96 q 635 10 707 36 q 469 -17 563 -17 q 239 37 332 -17 q 101 183 146 90 q 56 393 56 275 q 161 693 56 581 q 469 806 267 806 q 715 719 631 806 q 800 472 799 632 q 782 350 800 410 l 294 350 m 565 507 q 567 529 567 515 q 536 616 565 586 q 456 646 507 646 q 303 507 333 646 l 565 507 m 453 893 q 364 931 401 893 q 326 1019 326 968 q 364 1108 326 1071 q 453 1146 401 1146 q 542 1108 504 1146 q 579 1019 579 1071 q 542 931 579 968 q 453 893 504 893 z "},"è":{"ha":856,"x_min":56,"x_max":800,"o":"m 56 0 m 294 350 q 343 204 301 251 q 471 157 385 157 q 590 180 535 157 q 715 249 644 203 l 781 96 q 635 10 707 36 q 469 -17 563 -17 q 239 37 332 -17 q 101 183 146 90 q 56 393 56 275 q 161 693 56 581 q 469 806 267 806 q 715 719 631 806 q 800 472 799 632 q 782 350 800 410 l 294 350 m 565 507 q 567 529 567 515 q 536 616 565 586 q 456 646 507 646 q 303 507 333 646 l 565 507 m 172 1169 l 432 1169 l 567 875 l 381 875 l 172 1169 z "},"ē":{"ha":856,"x_min":56,"x_max":800,"o":"m 56 0 m 294 350 q 343 204 301 251 q 471 157 385 157 q 590 180 535 157 q 715 249 644 203 l 781 96 q 635 10 707 36 q 469 -17 563 -17 q 239 37 332 -17 q 101 183 146 90 q 56 393 56 275 q 161 693 56 581 q 469 806 267 806 q 715 719 631 806 q 800 472 799 632 q 782 350 800 410 l 294 350 m 565 507 q 567 529 567 515 q 536 616 565 586 q 456 646 507 646 q 303 507 333 646 l 565 507 m 175 1142 l 731 1142 l 731 972 l 175 972 l 175 1142 z "},"ę":{"ha":856,"x_min":56,"x_max":800,"o":"m 294 350 q 343 204 301 251 q 471 157 385 157 q 590 180 535 157 q 715 249 644 203 l 781 96 q 661 21 718 46 l 663 21 q 556 -82 593 -33 q 519 -167 519 -131 q 533 -199 519 -187 q 568 -210 546 -210 q 664 -165 611 -210 l 725 -299 q 639 -357 697 -331 q 519 -383 581 -383 q 381 -340 433 -383 q 329 -218 329 -296 q 356 -115 329 -168 q 429 -15 382 -61 q 150 108 244 -4 q 56 393 56 221 q 161 693 56 581 q 469 806 267 806 q 715 719 631 806 q 800 472 799 632 q 782 350 800 410 l 294 350 m 565 507 q 567 529 567 515 q 536 616 565 586 q 456 646 507 646 q 303 507 333 646 l 565 507 z "},"f":{"ha":617,"x_min":21,"x_max":606,"o":"m 381 789 l 603 789 l 603 618 l 381 618 l 381 0 l 139 0 l 139 618 l 21 618 l 21 719 l 139 767 l 139 817 q 217 1042 139 964 q 456 1121 296 1121 q 606 1110 514 1121 l 590 940 q 497 947 535 947 q 410 913 439 947 q 381 814 381 879 l 381 789 z "},"g":{"ha":875,"x_min":35,"x_max":871,"o":"m 871 617 l 733 635 q 751 543 751 593 q 714 411 751 472 q 601 313 676 350 q 419 276 526 276 q 346 282 378 276 q 314 224 314 247 q 328 190 314 200 q 379 179 342 179 l 586 179 q 786 126 714 179 q 858 -17 858 74 q 797 -181 858 -107 q 626 -299 735 -256 q 386 -343 518 -343 q 181 -312 260 -343 q 69 -233 103 -282 q 35 -129 35 -185 q 65 -37 35 -79 q 150 47 94 6 q 94 99 113 68 q 76 165 76 131 q 201 333 76 249 q 117 424 146 369 q 88 540 88 478 q 125 672 88 611 q 238 769 163 732 q 419 806 313 806 q 547 789 492 806 l 871 789 l 871 617 m 419 436 q 493 463 465 436 q 521 542 521 490 q 494 619 521 593 q 419 646 467 646 q 346 619 374 646 q 318 542 318 593 q 346 463 318 490 q 419 436 374 436 m 628 -53 q 528 6 628 6 l 338 6 l 322 6 q 265 -111 265 -56 q 386 -169 265 -169 q 508 -152 453 -169 q 596 -108 564 -135 q 628 -53 628 -81 z "},"ğ":{"ha":875,"x_min":35,"x_max":871,"o":"m 35 0 m 871 617 l 733 635 q 751 543 751 593 q 714 411 751 472 q 601 313 676 350 q 419 276 526 276 q 346 282 378 276 q 314 224 314 247 q 328 190 314 200 q 379 179 342 179 l 586 179 q 786 126 714 179 q 858 -17 858 74 q 797 -181 858 -107 q 626 -299 735 -256 q 386 -343 518 -343 q 181 -312 260 -343 q 69 -233 103 -282 q 35 -129 35 -185 q 65 -37 35 -79 q 150 47 94 6 q 94 99 113 68 q 76 165 76 131 q 201 333 76 249 q 117 424 146 369 q 88 540 88 478 q 125 672 88 611 q 238 769 163 732 q 419 806 313 806 q 547 789 492 806 l 871 789 l 871 617 m 419 436 q 493 463 465 436 q 521 542 521 490 q 494 619 521 593 q 419 646 467 646 q 346 619 374 646 q 318 542 318 593 q 346 463 318 490 q 419 436 374 436 m 628 -53 q 528 6 628 6 l 338 6 l 322 6 q 265 -111 265 -56 q 386 -169 265 -169 q 508 -152 453 -169 q 596 -108 564 -135 q 628 -53 628 -81 m 438 872 q 245 946 314 872 q 174 1167 176 1019 l 336 1169 q 366 1067 339 1101 q 438 1032 393 1032 q 509 1067 482 1032 q 539 1171 536 1101 l 701 1167 q 630 946 699 1019 q 438 872 561 872 z "},"ģ":{"ha":875,"x_min":35,"x_max":871,"o":"m 35 0 m 871 617 l 733 635 q 751 543 751 593 q 714 411 751 472 q 601 313 676 350 q 419 276 526 276 q 346 282 378 276 q 314 224 314 247 q 328 190 314 200 q 379 179 342 179 l 586 179 q 786 126 714 179 q 858 -17 858 74 q 797 -181 858 -107 q 626 -299 735 -256 q 386 -343 518 -343 q 181 -312 260 -343 q 69 -233 103 -282 q 35 -129 35 -185 q 65 -37 35 -79 q 150 47 94 6 q 94 99 113 68 q 76 165 76 131 q 201 333 76 249 q 117 424 146 369 q 88 540 88 478 q 125 672 88 611 q 238 769 163 732 q 419 806 313 806 q 547 789 492 806 l 871 789 l 871 617 m 419 436 q 493 463 465 436 q 521 542 521 490 q 494 619 521 593 q 419 646 467 646 q 346 619 374 646 q 318 542 318 593 q 346 463 318 490 q 419 436 374 436 m 628 -53 q 528 6 628 6 l 338 6 l 322 6 q 265 -111 265 -56 q 386 -169 265 -169 q 508 -152 453 -169 q 596 -108 564 -135 q 628 -53 628 -81 m 500 872 q 349 924 396 882 q 301 1026 301 967 q 369 1153 301 1104 q 551 1203 436 1201 l 585 1096 q 478 1036 478 1094 q 494 1001 478 1015 q 547 986 511 988 l 500 872 z "},"h":{"ha":954,"x_min":111,"x_max":850,"o":"m 578 806 q 791 724 732 806 q 850 488 850 642 l 850 0 l 608 0 l 608 457 q 585 592 608 554 q 497 629 563 629 q 353 582 426 629 l 353 0 l 111 0 l 111 1111 l 353 1111 l 353 744 q 578 806 468 806 z "},"ħ":{"ha":954,"x_min":4,"x_max":850,"o":"m 578 806 q 791 724 732 806 q 850 488 850 642 l 850 0 l 608 0 l 608 457 q 585 592 608 554 q 497 629 563 629 q 353 582 426 629 l 353 0 l 111 0 l 111 867 l 4 867 l 4 1036 l 111 1036 l 111 1111 l 353 1111 l 353 1036 l 578 1036 l 578 867 l 353 867 l 353 744 q 578 806 468 806 z "},"i":{"ha":464,"x_min":93,"x_max":371,"o":"m 232 894 q 134 935 175 894 q 93 1033 93 976 q 134 1131 93 1090 q 232 1172 175 1172 q 330 1131 289 1172 q 371 1033 371 1090 q 330 935 371 976 q 232 894 289 894 m 111 789 l 353 789 l 353 0 l 111 0 l 111 789 z "},"ı":{"ha":464,"x_min":111,"x_max":353,"o":"m 111 789 l 353 789 l 353 0 l 111 0 l 111 789 z "},"í":{"ha":464,"x_min":111,"x_max":510,"o":"m 111 0 m 111 789 l 353 789 l 353 0 l 111 0 l 111 789 m 250 1169 l 510 1169 l 301 875 l 115 875 l 250 1169 z "},"î":{"ha":464,"x_min":-47,"x_max":511,"o":"m 0 0 m 111 789 l 353 789 l 353 0 l 111 0 l 111 789 m 325 875 l 232 1025 l 139 875 l -47 875 l 113 1167 l 351 1167 l 511 875 l 325 875 z "},"ï":{"ha":464,"x_min":-74,"x_max":538,"o":"m 0 0 m 111 789 l 353 789 l 353 0 l 111 0 l 111 789 m 53 893 q -36 931 1 893 q -74 1019 -74 968 q -36 1108 -74 1071 q 53 1146 1 1146 q 142 1108 104 1146 q 179 1019 179 1071 q 142 931 179 968 q 53 893 104 893 m 411 893 q 322 931 360 893 q 285 1019 285 968 q 322 1108 285 1071 q 411 1146 360 1146 q 500 1108 463 1146 q 538 1019 538 1071 q 500 931 538 968 q 411 893 463 893 z "},"ì":{"ha":464,"x_min":-49,"x_max":353,"o":"m 0 0 m 111 789 l 353 789 l 353 0 l 111 0 l 111 789 m -49 1169 l 211 1169 l 346 875 l 160 875 l -49 1169 z "},"ĳ":{"ha":928,"x_min":93,"x_max":835,"o":"m 93 0 m 232 894 q 134 935 175 894 q 93 1033 93 976 q 134 1131 93 1090 q 232 1172 175 1172 q 330 1131 289 1172 q 371 1033 371 1090 q 330 935 371 976 q 232 894 289 894 m 111 789 l 353 789 l 353 0 l 111 0 l 111 789 m 696 894 q 598 935 639 894 q 557 1033 557 976 q 598 1131 557 1090 q 696 1172 639 1172 q 794 1131 753 1172 q 835 1033 835 1090 q 794 935 835 976 q 696 894 753 894 m 500 -332 q 350 -321 442 -332 l 365 -151 q 458 -158 421 -158 q 546 -124 517 -158 q 575 -25 575 -90 l 575 789 l 817 789 l 817 -28 q 738 -253 817 -175 q 500 -332 660 -332 z "},"ī":{"ha":464,"x_min":-46,"x_max":510,"o":"m 0 0 m 111 789 l 353 789 l 353 0 l 111 0 l 111 789 m -46 1142 l 510 1142 l 510 972 l -46 972 l -46 1142 z "},"į":{"ha":464,"x_min":-50,"x_max":371,"o":"m 232 894 q 134 935 175 894 q 93 1033 93 976 q 134 1131 93 1090 q 232 1172 175 1172 q 330 1131 289 1172 q 371 1033 371 1090 q 330 935 371 976 q 232 894 289 894 m 111 789 l 353 789 l 353 0 l 257 0 q 170 -92 200 -49 q 140 -167 140 -135 q 153 -199 140 -187 q 189 -210 167 -210 q 285 -165 232 -210 l 346 -299 q 260 -357 318 -331 q 140 -383 201 -383 q 2 -340 54 -383 q -50 -218 -50 -296 q -11 -92 -50 -157 q 96 21 28 -26 l 111 21 l 111 789 z "},"ĩ":{"ha":464,"x_min":-46,"x_max":510,"o":"m 0 0 m 111 789 l 353 789 l 353 0 l 111 0 l 111 789 m -46 922 q 8 1102 -39 1036 q 128 1168 56 1168 q 179 1159 154 1168 q 238 1133 204 1150 q 286 1111 268 1118 q 322 1104 304 1104 q 379 1182 360 1104 l 510 1176 q 454 1001 503 1071 q 336 931 406 931 q 281 940 307 931 q 217 968 254 950 q 174 988 190 982 q 142 994 157 994 q 108 976 122 994 q 85 917 94 957 l -46 922 z "},"j":{"ha":464,"x_min":-114,"x_max":371,"o":"m 232 894 q 134 935 175 894 q 93 1033 93 976 q 134 1131 93 1090 q 232 1172 175 1172 q 330 1131 289 1172 q 371 1033 371 1090 q 330 935 371 976 q 232 894 289 894 m 36 -332 q -114 -321 -22 -332 l -99 -151 q -6 -158 -43 -158 q 82 -124 53 -158 q 111 -25 111 -90 l 111 789 l 353 789 l 353 -28 q 274 -253 353 -175 q 36 -332 196 -332 z "},"ȷ":{"ha":464,"x_min":-114,"x_max":353,"o":"m 36 -332 q -114 -321 -22 -332 l -99 -151 q -6 -158 -43 -158 q 82 -124 53 -158 q 111 -25 111 -90 l 111 789 l 353 789 l 353 -28 q 274 -253 353 -175 q 36 -332 196 -332 z "},"ĵ":{"ha":464,"x_min":-114,"x_max":511,"o":"m 0 0 m 36 -332 q -114 -321 -22 -332 l -99 -151 q -6 -158 -43 -158 q 82 -124 53 -158 q 111 -25 111 -90 l 111 789 l 353 789 l 353 -28 q 274 -253 353 -175 q 36 -332 196 -332 m 325 875 l 232 1025 l 139 875 l -47 875 l 113 1167 l 351 1167 l 511 875 l 325 875 z "},"k":{"ha":889,"x_min":111,"x_max":882,"o":"m 619 0 l 353 397 l 353 0 l 111 0 l 111 1111 l 353 1111 l 353 461 l 585 789 l 832 789 l 567 428 l 882 0 l 619 0 z "},"ķ":{"ha":889,"x_min":111,"x_max":882,"o":"m 111 0 m 619 0 l 353 397 l 353 0 l 111 0 l 111 1111 l 353 1111 l 353 461 l 585 789 l 832 789 l 567 428 l 882 0 l 619 0 m 353 -261 q 460 -201 460 -260 q 443 -167 460 -181 q 390 -151 426 -153 l 438 -37 q 589 -90 542 -47 q 636 -192 636 -132 q 569 -318 636 -269 q 386 -368 501 -367 l 353 -261 z "},"ĸ":{"ha":889,"x_min":111,"x_max":882,"o":"m 619 0 l 353 397 l 353 0 l 111 0 l 111 789 l 353 789 l 353 461 l 585 789 l 832 789 l 567 428 l 882 0 l 619 0 z "},"l":{"ha":464,"x_min":111,"x_max":353,"o":"m 111 1111 l 353 1111 l 353 0 l 111 0 l 111 1111 z "},"ĺ":{"ha":464,"x_min":111,"x_max":510,"o":"m 111 0 m 111 1111 l 353 1111 l 353 0 l 111 0 l 111 1111 m 250 1433 l 510 1433 l 301 1139 l 115 1139 l 250 1433 z "},"ľ":{"ha":464,"x_min":111,"x_max":686,"o":"m 111 0 m 111 1111 l 353 1111 l 353 0 l 111 0 l 111 1111 m 425 796 q 475 871 460 832 q 490 958 490 910 q 451 1111 490 1036 l 667 1111 q 686 983 686 1044 q 630 826 686 897 q 490 710 574 754 l 425 796 z "},"ļ":{"ha":464,"x_min":92,"x_max":375,"o":"m 92 0 m 111 1111 l 353 1111 l 353 0 l 111 0 l 111 1111 m 92 -261 q 199 -201 199 -260 q 182 -167 199 -181 q 129 -151 165 -153 l 176 -37 q 328 -90 281 -47 q 375 -192 375 -132 q 308 -318 375 -269 q 125 -368 240 -367 l 92 -261 z "},"ŀ":{"ha":464,"x_min":111,"x_max":610,"o":"m 464 513 q 567 470 525 513 q 610 367 610 428 q 567 264 610 307 q 464 221 525 221 q 401 235 431 221 q 353 272 372 249 l 353 0 l 111 0 l 111 1111 l 353 1111 l 353 461 q 401 499 372 485 q 464 513 431 513 z "},"ł":{"ha":464,"x_min":-56,"x_max":519,"o":"m 353 572 l 353 0 l 111 0 l 111 399 l 44 351 l -56 488 l 111 607 l 111 1111 l 353 1111 l 353 781 l 419 828 l 519 692 l 353 572 z "},"m":{"ha":1451,"x_min":111,"x_max":1347,"o":"m 1075 806 q 1288 724 1229 806 q 1347 488 1347 642 l 1347 0 l 1106 0 l 1106 457 q 1083 592 1106 554 q 994 629 1060 629 q 847 581 922 629 l 843 589 q 850 488 850 551 l 850 0 l 608 0 l 608 457 q 585 592 608 554 q 497 629 563 629 q 353 582 426 629 l 353 0 l 111 0 l 111 789 l 290 789 l 315 724 q 578 806 451 806 q 797 715 733 806 q 1075 806 942 806 z "},"n":{"ha":954,"x_min":111,"x_max":850,"o":"m 578 806 q 791 724 732 806 q 850 488 850 642 l 850 0 l 608 0 l 608 457 q 585 592 608 554 q 497 629 563 629 q 353 582 426 629 l 353 0 l 111 0 l 111 789 l 290 789 l 315 724 q 578 806 451 806 z "},"ń":{"ha":954,"x_min":111,"x_max":850,"o":"m 111 0 m 578 806 q 791 724 732 806 q 850 488 850 642 l 850 0 l 608 0 l 608 457 q 585 592 608 554 q 497 629 563 629 q 353 582 426 629 l 353 0 l 111 0 l 111 789 l 290 789 l 315 724 q 578 806 451 806 m 500 1169 l 760 1169 l 551 875 l 365 875 l 500 1169 z "},"ň":{"ha":954,"x_min":111,"x_max":850,"o":"m 111 0 m 578 806 q 791 724 732 806 q 850 488 850 642 l 850 0 l 608 0 l 608 457 q 585 592 608 554 q 497 629 563 629 q 353 582 426 629 l 353 0 l 111 0 l 111 789 l 290 789 l 315 724 q 578 806 451 806 m 761 1167 l 601 875 l 363 875 l 203 1167 l 389 1167 l 482 1017 l 575 1167 l 761 1167 z "},"ņ":{"ha":954,"x_min":111,"x_max":850,"o":"m 111 0 m 578 806 q 791 724 732 806 q 850 488 850 642 l 850 0 l 608 0 l 608 457 q 585 592 608 554 q 497 629 563 629 q 353 582 426 629 l 353 0 l 111 0 l 111 789 l 290 789 l 315 724 q 578 806 451 806 m 342 -261 q 449 -201 449 -260 q 432 -167 449 -181 q 379 -151 415 -153 l 426 -37 q 578 -90 531 -47 q 625 -192 625 -132 q 558 -318 625 -269 q 375 -368 490 -367 l 342 -261 z "},"ñ":{"ha":954,"x_min":111,"x_max":850,"o":"m 111 0 m 578 806 q 791 724 732 806 q 850 488 850 642 l 850 0 l 608 0 l 608 457 q 585 592 608 554 q 497 629 563 629 q 353 582 426 629 l 353 0 l 111 0 l 111 789 l 290 789 l 315 724 q 578 806 451 806 m 204 922 q 258 1102 211 1036 q 378 1168 306 1168 q 429 1159 404 1168 q 488 1133 454 1150 q 536 1111 518 1118 q 572 1104 554 1104 q 629 1182 610 1104 l 760 1176 q 704 1001 753 1071 q 586 931 656 931 q 531 940 557 931 q 467 968 504 950 q 424 988 440 982 q 392 994 407 994 q 358 976 372 994 q 335 917 344 957 l 204 922 z "},"o":{"ha":942,"x_min":56,"x_max":886,"o":"m 471 -17 q 242 36 335 -17 q 102 182 149 89 q 56 393 56 275 q 162 693 56 581 q 471 806 268 806 q 698 749 604 806 q 839 600 792 693 q 886 396 886 507 q 839 191 886 285 q 698 40 792 97 q 471 -17 604 -17 m 471 157 q 601 215 561 157 q 642 394 642 274 q 601 574 642 515 q 471 632 561 632 q 340 574 381 632 q 300 394 300 515 q 340 215 300 274 q 471 157 381 157 z "},"ó":{"ha":942,"x_min":56,"x_max":886,"o":"m 56 0 m 471 -17 q 242 36 335 -17 q 102 182 149 89 q 56 393 56 275 q 162 693 56 581 q 471 806 268 806 q 698 749 604 806 q 839 600 792 693 q 886 396 886 507 q 839 191 886 285 q 698 40 792 97 q 471 -17 604 -17 m 471 157 q 601 215 561 157 q 642 394 642 274 q 601 574 642 515 q 471 632 561 632 q 340 574 381 632 q 300 394 300 515 q 340 215 300 274 q 471 157 381 157 m 489 1169 l 749 1169 l 540 875 l 354 875 l 489 1169 z "},"ô":{"ha":942,"x_min":56,"x_max":886,"o":"m 56 0 m 471 -17 q 242 36 335 -17 q 102 182 149 89 q 56 393 56 275 q 162 693 56 581 q 471 806 268 806 q 698 749 604 806 q 839 600 792 693 q 886 396 886 507 q 839 191 886 285 q 698 40 792 97 q 471 -17 604 -17 m 471 157 q 601 215 561 157 q 642 394 642 274 q 601 574 642 515 q 471 632 561 632 q 340 574 381 632 q 300 394 300 515 q 340 215 300 274 q 471 157 381 157 m 564 875 l 471 1025 l 378 875 l 192 875 l 351 1167 l 590 1167 l 750 875 l 564 875 z "},"ö":{"ha":942,"x_min":56,"x_max":886,"o":"m 56 0 m 471 -17 q 242 36 335 -17 q 102 182 149 89 q 56 393 56 275 q 162 693 56 581 q 471 806 268 806 q 698 749 604 806 q 839 600 792 693 q 886 396 886 507 q 839 191 886 285 q 698 40 792 97 q 471 -17 604 -17 m 471 157 q 601 215 561 157 q 642 394 642 274 q 601 574 642 515 q 471 632 561 632 q 340 574 381 632 q 300 394 300 515 q 340 215 300 274 q 471 157 381 157 m 292 893 q 203 931 240 893 q 165 1019 165 968 q 203 1108 165 1071 q 292 1146 240 1146 q 381 1108 343 1146 q 418 1019 418 1071 q 381 931 418 968 q 292 893 343 893 m 650 893 q 561 931 599 893 q 524 1019 524 968 q 561 1108 524 1071 q 650 1146 599 1146 q 739 1108 701 1146 q 776 1019 776 1071 q 739 931 776 968 q 650 893 701 893 z "},"ò":{"ha":942,"x_min":56,"x_max":886,"o":"m 56 0 m 471 -17 q 242 36 335 -17 q 102 182 149 89 q 56 393 56 275 q 162 693 56 581 q 471 806 268 806 q 698 749 604 806 q 839 600 792 693 q 886 396 886 507 q 839 191 886 285 q 698 40 792 97 q 471 -17 604 -17 m 471 157 q 601 215 561 157 q 642 394 642 274 q 601 574 642 515 q 471 632 561 632 q 340 574 381 632 q 300 394 300 515 q 340 215 300 274 q 471 157 381 157 m 190 1169 l 450 1169 l 585 875 l 399 875 l 190 1169 z "},"ő":{"ha":942,"x_min":56,"x_max":888,"o":"m 56 0 m 471 -17 q 242 36 335 -17 q 102 182 149 89 q 56 393 56 275 q 162 693 56 581 q 471 806 268 806 q 698 749 604 806 q 839 600 792 693 q 886 396 886 507 q 839 191 886 285 q 698 40 792 97 q 471 -17 604 -17 m 471 157 q 601 215 561 157 q 642 394 642 274 q 601 574 642 515 q 471 632 561 632 q 340 574 381 632 q 300 394 300 515 q 340 215 300 274 q 471 157 381 157 m 378 1169 l 596 1169 l 388 875 l 243 875 l 378 1169 m 669 1169 l 888 1169 l 679 875 l 535 875 l 669 1169 z "},"ō":{"ha":942,"x_min":56,"x_max":886,"o":"m 56 0 m 471 -17 q 242 36 335 -17 q 102 182 149 89 q 56 393 56 275 q 162 693 56 581 q 471 806 268 806 q 698 749 604 806 q 839 600 792 693 q 886 396 886 507 q 839 191 886 285 q 698 40 792 97 q 471 -17 604 -17 m 471 157 q 601 215 561 157 q 642 394 642 274 q 601 574 642 515 q 471 632 561 632 q 340 574 381 632 q 300 394 300 515 q 340 215 300 274 q 471 157 381 157 m 193 1142 l 749 1142 l 749 972 l 193 972 l 193 1142 z "},"ø":{"ha":942,"x_min":56,"x_max":886,"o":"m 754 710 q 853 571 819 653 q 886 396 886 489 q 839 191 886 285 q 698 40 792 97 q 471 -17 604 -17 q 278 19 361 -17 l 206 -85 l 106 -22 l 178 82 q 86 217 117 138 q 56 393 56 297 q 162 693 56 581 q 471 806 268 806 q 654 772 569 806 l 722 871 l 822 808 l 754 710 m 300 394 q 313 278 300 326 l 547 618 q 471 632 518 632 q 340 574 381 632 q 300 394 300 515 m 471 157 q 601 215 561 157 q 642 394 642 274 q 625 524 642 472 l 385 175 q 471 157 419 157 z "},"õ":{"ha":942,"x_min":56,"x_max":886,"o":"m 56 0 m 471 -17 q 242 36 335 -17 q 102 182 149 89 q 56 393 56 275 q 162 693 56 581 q 471 806 268 806 q 698 749 604 806 q 839 600 792 693 q 886 396 886 507 q 839 191 886 285 q 698 40 792 97 q 471 -17 604 -17 m 471 157 q 601 215 561 157 q 642 394 642 274 q 601 574 642 515 q 471 632 561 632 q 340 574 381 632 q 300 394 300 515 q 340 215 300 274 q 471 157 381 157 m 193 922 q 247 1102 200 1036 q 367 1168 294 1168 q 418 1159 393 1168 q 476 1133 443 1150 q 525 1111 507 1118 q 561 1104 543 1104 q 618 1182 599 1104 l 749 1176 q 693 1001 742 1071 q 575 931 644 931 q 519 940 546 931 q 456 968 493 950 q 413 988 429 982 q 381 994 396 994 q 347 976 361 994 q 324 917 333 957 l 193 922 z "},"œ":{"ha":1442,"x_min":56,"x_max":1386,"o":"m 881 350 q 929 204 888 251 q 1057 157 971 157 q 1176 180 1121 157 q 1301 249 1231 203 l 1367 96 q 1221 10 1293 36 q 1056 -17 1149 -17 q 756 88 864 -17 q 632 10 704 38 q 471 -17 560 -17 q 242 36 335 -17 q 102 182 149 89 q 56 393 56 275 q 103 608 56 515 q 244 753 151 701 q 471 806 338 806 q 632 778 560 806 q 756 703 704 751 q 1056 806 865 806 q 1301 719 1217 806 q 1386 472 1385 632 q 1368 350 1386 410 l 881 350 m 1151 507 q 1153 529 1153 515 q 1122 616 1151 586 q 1042 646 1093 646 q 889 507 919 646 l 1151 507 m 471 157 q 601 215 561 157 q 642 394 642 274 q 601 574 642 515 q 471 632 561 632 q 340 574 381 632 q 300 394 300 515 q 340 215 300 274 q 471 157 381 157 z "},"p":{"ha":965,"x_min":111,"x_max":910,"o":"m 538 806 q 731 757 647 806 q 863 615 815 708 q 910 389 910 521 q 785 81 910 178 q 457 -17 661 -17 q 353 -7 404 -17 l 353 -322 l 111 -322 l 111 789 l 290 789 l 313 731 q 538 806 413 806 m 442 157 q 610 216 556 157 q 665 396 665 275 q 510 632 665 632 q 426 622 463 632 q 353 590 389 613 l 353 167 q 442 157 399 157 z "},"þ":{"ha":965,"x_min":111,"x_max":910,"o":"m 538 806 q 731 759 647 806 q 863 621 815 713 q 910 396 910 529 q 857 162 910 254 q 717 26 804 69 q 526 -17 631 -17 q 353 31 433 -17 l 353 -322 l 111 -322 l 111 1111 l 353 1111 l 353 757 q 538 806 436 806 m 497 157 q 625 215 585 157 q 665 396 665 274 q 510 632 665 632 q 426 622 463 632 q 353 590 389 613 l 353 199 q 497 157 425 157 z "},"q":{"ha":965,"x_min":56,"x_max":854,"o":"m 854 789 l 854 -329 l 613 -329 l 613 32 q 428 -17 529 -17 q 234 30 318 -17 q 103 168 150 76 q 56 393 56 260 q 108 627 56 535 q 248 763 161 719 q 439 806 335 806 q 653 732 553 806 l 675 789 l 854 789 m 456 157 q 540 167 503 157 q 613 199 576 176 l 613 590 q 468 632 540 632 q 340 574 381 632 q 300 393 300 515 q 456 157 300 157 z "},"r":{"ha":656,"x_min":111,"x_max":614,"o":"m 614 572 q 482 564 542 572 q 353 531 422 556 l 353 0 l 111 0 l 111 789 l 290 789 l 326 696 q 468 779 399 754 q 614 804 538 804 l 614 572 z "},"ŕ":{"ha":656,"x_min":111,"x_max":632,"o":"m 111 0 m 614 572 q 482 564 542 572 q 353 531 422 556 l 353 0 l 111 0 l 111 789 l 290 789 l 326 696 q 468 779 399 754 q 614 804 538 804 l 614 572 m 372 1169 l 632 1169 l 424 875 l 238 875 l 372 1169 z "},"ř":{"ha":656,"x_min":75,"x_max":633,"o":"m 75 0 m 614 572 q 482 564 542 572 q 353 531 422 556 l 353 0 l 111 0 l 111 789 l 290 789 l 326 696 q 468 779 399 754 q 614 804 538 804 l 614 572 m 633 1167 l 474 875 l 235 875 l 75 1167 l 261 1167 l 354 1017 l 447 1167 l 633 1167 z "},"ŗ":{"ha":656,"x_min":90,"x_max":614,"o":"m 90 0 m 614 572 q 482 564 542 572 q 353 531 422 556 l 353 0 l 111 0 l 111 789 l 290 789 l 326 696 q 468 779 399 754 q 614 804 538 804 l 614 572 m 90 -261 q 197 -201 197 -260 q 181 -167 197 -181 q 128 -151 164 -153 l 175 -37 q 326 -90 279 -47 q 374 -192 374 -132 q 306 -318 374 -269 q 124 -368 239 -367 l 90 -261 z "},"s":{"ha":764,"x_min":56,"x_max":708,"o":"m 336 -17 q 186 -2 261 -17 q 56 35 111 13 l 101 201 q 333 157 231 157 q 469 224 469 157 q 435 273 469 253 q 325 319 400 293 q 195 372 246 347 q 108 439 144 396 q 71 546 71 482 q 165 740 71 674 q 425 806 258 806 q 555 794 488 806 q 671 761 622 782 l 625 594 q 432 632 517 632 q 310 575 310 632 q 342 528 310 546 q 446 486 374 510 q 579 435 526 460 q 670 363 632 410 q 708 240 708 315 q 614 51 708 118 q 336 -17 519 -17 z "},"ś":{"ha":764,"x_min":56,"x_max":708,"o":"m 56 0 m 336 -17 q 186 -2 261 -17 q 56 35 111 13 l 101 201 q 333 157 231 157 q 469 224 469 157 q 435 273 469 253 q 325 319 400 293 q 195 372 246 347 q 108 439 144 396 q 71 546 71 482 q 165 740 71 674 q 425 806 258 806 q 555 794 488 806 q 671 761 622 782 l 625 594 q 432 632 517 632 q 310 575 310 632 q 342 528 310 546 q 446 486 374 510 q 579 435 526 460 q 670 363 632 410 q 708 240 708 315 q 614 51 708 118 q 336 -17 519 -17 m 419 1169 l 679 1169 l 471 875 l 285 875 l 419 1169 z "},"š":{"ha":764,"x_min":56,"x_max":708,"o":"m 56 0 m 336 -17 q 186 -2 261 -17 q 56 35 111 13 l 101 201 q 333 157 231 157 q 469 224 469 157 q 435 273 469 253 q 325 319 400 293 q 195 372 246 347 q 108 439 144 396 q 71 546 71 482 q 165 740 71 674 q 425 806 258 806 q 555 794 488 806 q 671 761 622 782 l 625 594 q 432 632 517 632 q 310 575 310 632 q 342 528 310 546 q 446 486 374 510 q 579 435 526 460 q 670 363 632 410 q 708 240 708 315 q 614 51 708 118 q 336 -17 519 -17 m 681 1167 l 521 875 l 282 875 l 122 1167 l 308 1167 l 401 1017 l 494 1167 l 681 1167 z "},"ş":{"ha":764,"x_min":56,"x_max":708,"o":"m 708 240 q 635 67 708 133 q 417 -12 561 1 l 392 -60 q 480 -99 444 -67 q 515 -178 515 -132 q 490 -253 515 -217 q 406 -315 465 -290 q 250 -340 346 -340 l 219 -233 q 314 -222 289 -233 q 339 -187 339 -210 q 326 -163 339 -172 q 293 -154 314 -154 q 256 -161 275 -154 l 213 -101 l 261 -12 q 56 35 150 -3 l 101 201 q 333 157 231 157 q 469 224 469 157 q 435 273 469 253 q 325 319 400 293 q 195 372 246 347 q 108 439 144 396 q 71 546 71 482 q 165 740 71 674 q 425 806 258 806 q 555 794 488 806 q 671 761 622 782 l 625 594 q 432 632 517 632 q 310 575 310 632 q 342 528 310 546 q 446 486 374 510 q 579 435 526 460 q 670 363 632 410 q 708 240 708 315 z "},"ș":{"ha":764,"x_min":56,"x_max":708,"o":"m 56 0 m 336 -17 q 186 -2 261 -17 q 56 35 111 13 l 101 201 q 333 157 231 157 q 469 224 469 157 q 435 273 469 253 q 325 319 400 293 q 195 372 246 347 q 108 439 144 396 q 71 546 71 482 q 165 740 71 674 q 425 806 258 806 q 555 794 488 806 q 671 761 622 782 l 625 594 q 432 632 517 632 q 310 575 310 632 q 342 528 310 546 q 446 486 374 510 q 579 435 526 460 q 670 363 632 410 q 708 240 708 315 q 614 51 708 118 q 336 -17 519 -17 m 210 -261 q 317 -201 317 -260 q 300 -167 317 -181 q 247 -151 283 -153 l 294 -37 q 446 -90 399 -47 q 493 -192 493 -132 q 426 -318 493 -269 q 243 -368 358 -367 l 210 -261 z "},"ß":{"ha":1017,"x_min":111,"x_max":961,"o":"m 643 -17 q 511 -5 578 -17 q 389 25 444 7 l 433 193 q 533 167 481 176 q 626 157 585 157 q 699 172 676 157 q 722 222 722 188 q 699 268 722 249 q 619 319 675 288 q 526 378 563 351 q 462 448 489 406 q 435 550 435 490 q 465 676 435 624 q 547 789 494 728 q 591 845 578 826 q 604 883 604 864 q 576 931 604 914 q 494 947 547 947 q 353 804 353 947 l 353 0 l 111 0 l 111 807 q 213 1039 111 957 q 508 1121 315 1121 q 755 1061 667 1121 q 843 896 843 1001 q 817 795 843 840 q 740 692 790 750 q 690 628 706 653 q 674 579 674 603 q 698 532 674 553 q 775 479 722 511 q 870 417 833 446 q 934 344 907 389 q 961 239 961 300 q 918 104 961 163 q 802 15 875 46 q 643 -17 729 -17 z "},"t":{"ha":672,"x_min":21,"x_max":642,"o":"m 642 51 q 542 6 600 22 q 431 -10 485 -10 q 211 55 283 -10 q 139 240 139 119 l 139 618 l 21 618 l 21 719 l 169 779 l 236 992 l 381 992 l 381 789 l 603 789 l 603 618 l 381 618 l 381 299 q 404 194 381 225 q 475 164 428 164 q 604 200 536 164 l 642 51 z "},"ť":{"ha":672,"x_min":21,"x_max":700,"o":"m 21 0 m 642 51 q 542 6 600 22 q 431 -10 485 -10 q 211 55 283 -10 q 139 240 139 119 l 139 618 l 21 618 l 21 719 l 169 779 l 236 992 l 381 992 l 381 789 l 603 789 l 603 618 l 381 618 l 381 299 q 404 194 381 225 q 475 164 428 164 q 604 200 536 164 l 642 51 m 439 926 q 489 1001 474 963 q 504 1089 504 1040 q 465 1242 504 1167 l 681 1242 q 700 1114 700 1175 q 644 956 700 1028 q 504 840 588 885 l 439 926 z "},"ț":{"ha":672,"x_min":21,"x_max":642,"o":"m 21 0 m 642 51 q 542 6 600 22 q 431 -10 485 -10 q 211 55 283 -10 q 139 240 139 119 l 139 618 l 21 618 l 21 719 l 169 779 l 236 992 l 381 992 l 381 789 l 603 789 l 603 618 l 381 618 l 381 299 q 404 194 381 225 q 475 164 428 164 q 604 200 536 164 l 642 51 m 221 -261 q 328 -201 328 -260 q 311 -167 328 -181 q 258 -151 294 -153 l 306 -37 q 457 -90 410 -47 q 504 -192 504 -132 q 437 -318 504 -269 q 254 -368 369 -367 l 221 -261 z "},"u":{"ha":954,"x_min":104,"x_max":843,"o":"m 843 789 l 843 0 l 664 0 l 639 65 q 376 -17 503 -17 q 163 65 222 -17 q 104 301 104 147 l 104 789 l 346 789 l 346 332 q 369 197 346 235 q 457 160 392 160 q 601 207 528 160 l 601 789 l 843 789 z "},"ú":{"ha":954,"x_min":104,"x_max":843,"o":"m 104 0 m 843 789 l 843 0 l 664 0 l 639 65 q 376 -17 503 -17 q 163 65 222 -17 q 104 301 104 147 l 104 789 l 346 789 l 346 332 q 369 197 346 235 q 457 160 392 160 q 601 207 528 160 l 601 789 l 843 789 m 488 1169 l 747 1169 l 539 875 l 353 875 l 488 1169 z "},"û":{"ha":954,"x_min":104,"x_max":843,"o":"m 104 0 m 843 789 l 843 0 l 664 0 l 639 65 q 376 -17 503 -17 q 163 65 222 -17 q 104 301 104 147 l 104 789 l 346 789 l 346 332 q 369 197 346 235 q 457 160 392 160 q 601 207 528 160 l 601 789 l 843 789 m 563 875 l 469 1025 l 376 875 l 190 875 l 350 1167 l 589 1167 l 749 875 l 563 875 z "},"ü":{"ha":954,"x_min":104,"x_max":843,"o":"m 104 0 m 843 789 l 843 0 l 664 0 l 639 65 q 376 -17 503 -17 q 163 65 222 -17 q 104 301 104 147 l 104 789 l 346 789 l 346 332 q 369 197 346 235 q 457 160 392 160 q 601 207 528 160 l 601 789 l 843 789 m 290 893 q 201 931 239 893 q 164 1019 164 968 q 201 1108 164 1071 q 290 1146 239 1146 q 379 1108 342 1146 q 417 1019 417 1071 q 379 931 417 968 q 290 893 342 893 m 649 893 q 560 931 597 893 q 522 1019 522 968 q 560 1108 522 1071 q 649 1146 597 1146 q 738 1108 700 1146 q 775 1019 775 1071 q 738 931 775 968 q 649 893 700 893 z "},"ù":{"ha":954,"x_min":104,"x_max":843,"o":"m 104 0 m 843 789 l 843 0 l 664 0 l 639 65 q 376 -17 503 -17 q 163 65 222 -17 q 104 301 104 147 l 104 789 l 346 789 l 346 332 q 369 197 346 235 q 457 160 392 160 q 601 207 528 160 l 601 789 l 843 789 m 189 1169 l 449 1169 l 583 875 l 397 875 l 189 1169 z "},"ű":{"ha":954,"x_min":104,"x_max":886,"o":"m 104 0 m 843 789 l 843 0 l 664 0 l 639 65 q 376 -17 503 -17 q 163 65 222 -17 q 104 301 104 147 l 104 789 l 346 789 l 346 332 q 369 197 346 235 q 457 160 392 160 q 601 207 528 160 l 601 789 l 843 789 m 376 1169 l 594 1169 l 386 875 l 242 875 l 376 1169 m 668 1169 l 886 1169 l 678 875 l 533 875 l 668 1169 z "},"ū":{"ha":954,"x_min":104,"x_max":843,"o":"m 104 0 m 843 789 l 843 0 l 664 0 l 639 65 q 376 -17 503 -17 q 163 65 222 -17 q 104 301 104 147 l 104 789 l 346 789 l 346 332 q 369 197 346 235 q 457 160 392 160 q 601 207 528 160 l 601 789 l 843 789 m 192 1142 l 747 1142 l 747 972 l 192 972 l 192 1142 z "},"ų":{"ha":954,"x_min":104,"x_max":906,"o":"m 906 -299 q 819 -357 878 -331 q 700 -383 761 -383 q 562 -340 614 -383 q 510 -218 510 -296 q 549 -92 510 -157 q 656 21 588 -26 l 639 65 q 376 -17 503 -17 q 163 65 222 -17 q 104 301 104 147 l 104 789 l 346 789 l 346 332 q 369 197 346 235 q 457 160 392 160 q 601 207 528 160 l 601 789 l 843 789 l 843 0 l 817 0 q 730 -92 760 -49 q 700 -167 700 -135 q 713 -199 700 -187 q 749 -210 726 -210 q 844 -165 792 -210 l 906 -299 z "},"ů":{"ha":954,"x_min":104,"x_max":843,"o":"m 104 0 m 843 789 l 843 0 l 664 0 l 639 65 q 376 -17 503 -17 q 163 65 222 -17 q 104 301 104 147 l 104 789 l 346 789 l 346 332 q 369 197 346 235 q 457 160 392 160 q 601 207 528 160 l 601 789 l 843 789 m 469 868 q 355 892 403 868 q 283 954 307 915 q 258 1036 258 993 q 283 1118 258 1079 q 355 1181 307 1157 q 469 1204 403 1204 q 584 1181 536 1204 q 656 1118 632 1157 q 681 1036 681 1079 q 656 954 681 993 q 584 892 632 915 q 469 868 536 868 m 469 969 q 517 988 499 969 q 535 1036 535 1007 q 517 1084 535 1065 q 469 1103 499 1103 q 422 1084 440 1103 q 404 1036 404 1065 q 422 988 404 1007 q 469 969 440 969 z "},"v":{"ha":864,"x_min":10,"x_max":854,"o":"m 854 789 l 551 -7 l 313 -7 l 10 789 l 256 789 l 433 233 l 611 789 l 854 789 z "},"w":{"ha":1240,"x_min":14,"x_max":1226,"o":"m 1226 789 l 978 -7 l 742 -7 l 621 533 l 499 -7 l 263 -7 l 14 789 l 260 789 l 378 243 l 504 789 l 739 789 l 861 243 l 983 789 l 1226 789 z "},"x":{"ha":875,"x_min":7,"x_max":868,"o":"m 606 0 l 436 263 l 267 0 l 7 0 l 304 407 l 28 789 l 289 789 l 436 544 l 583 789 l 842 789 l 565 411 l 868 0 l 606 0 z "},"y":{"ha":881,"x_min":14,"x_max":872,"o":"m 872 789 l 538 -103 q 403 -295 490 -236 q 192 -354 315 -354 q 99 -347 147 -354 q 14 -325 50 -339 l 29 -149 q 164 -174 108 -174 q 273 -146 226 -174 q 353 -58 319 -118 l 25 789 l 271 789 l 454 232 l 629 789 l 872 789 z "},"ý":{"ha":881,"x_min":14,"x_max":872,"o":"m 14 0 m 872 789 l 538 -103 q 403 -295 490 -236 q 192 -354 315 -354 q 99 -347 147 -354 q 14 -325 50 -339 l 29 -149 q 164 -174 108 -174 q 273 -146 226 -174 q 353 -58 319 -118 l 25 789 l 271 789 l 454 232 l 629 789 l 872 789 m 472 1169 l 732 1169 l 524 875 l 338 875 l 472 1169 z "},"ÿ":{"ha":881,"x_min":14,"x_max":872,"o":"m 14 0 m 872 789 l 538 -103 q 403 -295 490 -236 q 192 -354 315 -354 q 99 -347 147 -354 q 14 -325 50 -339 l 29 -149 q 164 -174 108 -174 q 273 -146 226 -174 q 353 -58 319 -118 l 25 789 l 271 789 l 454 232 l 629 789 l 872 789 m 275 893 q 186 931 224 893 q 149 1019 149 968 q 186 1108 149 1071 q 275 1146 224 1146 q 364 1108 326 1146 q 401 1019 401 1071 q 364 931 401 968 q 275 893 326 893 m 633 893 q 544 931 582 893 q 507 1019 507 968 q 544 1108 507 1071 q 633 1146 582 1146 q 722 1108 685 1146 q 760 1019 760 1071 q 722 931 760 968 q 633 893 685 893 z "},"z":{"ha":775,"x_min":35,"x_max":733,"o":"m 733 171 l 733 0 l 35 0 l 35 132 l 442 618 l 56 618 l 56 789 l 719 789 l 719 657 l 313 171 l 733 171 z "},"ź":{"ha":775,"x_min":35,"x_max":733,"o":"m 35 0 m 733 171 l 733 0 l 35 0 l 35 132 l 442 618 l 56 618 l 56 789 l 719 789 l 719 657 l 313 171 l 733 171 m 413 1169 l 672 1169 l 464 875 l 278 875 l 413 1169 z "},"ž":{"ha":775,"x_min":35,"x_max":733,"o":"m 35 0 m 733 171 l 733 0 l 35 0 l 35 132 l 442 618 l 56 618 l 56 789 l 719 789 l 719 657 l 313 171 l 733 171 m 674 1167 l 514 875 l 275 875 l 115 1167 l 301 1167 l 394 1017 l 488 1167 l 674 1167 z "},"ż":{"ha":775,"x_min":35,"x_max":733,"o":"m 35 0 m 733 171 l 733 0 l 35 0 l 35 132 l 442 618 l 56 618 l 56 789 l 719 789 l 719 657 l 313 171 l 733 171 m 394 893 q 306 931 343 893 q 268 1019 268 968 q 306 1108 268 1071 q 394 1146 343 1146 q 483 1108 446 1146 q 521 1019 521 1071 q 483 931 521 968 q 394 893 446 893 z "},"ﬁ":{"ha":1081,"x_min":21,"x_max":988,"o":"m 21 0 m 381 789 l 603 789 l 603 618 l 381 618 l 381 0 l 139 0 l 139 618 l 21 618 l 21 719 l 139 767 l 139 817 q 217 1042 139 964 q 456 1121 296 1121 q 606 1110 514 1121 l 590 940 q 497 947 535 947 q 410 913 439 947 q 381 814 381 879 l 381 789 m 849 894 q 751 935 792 894 q 710 1033 710 976 q 751 1131 710 1090 q 849 1172 792 1172 q 947 1131 906 1172 q 988 1033 988 1090 q 947 935 988 976 q 849 894 906 894 m 728 789 l 969 789 l 969 0 l 728 0 l 728 789 z "},"ﬂ":{"ha":1081,"x_min":21,"x_max":969,"o":"m 21 0 m 381 789 l 603 789 l 603 618 l 381 618 l 381 0 l 139 0 l 139 618 l 21 618 l 21 719 l 139 767 l 139 817 q 217 1042 139 964 q 456 1121 296 1121 q 606 1110 514 1121 l 590 940 q 497 947 535 947 q 410 913 439 947 q 381 814 381 879 l 381 789 m 728 1111 l 969 1111 l 969 0 l 728 0 l 728 1111 z "},"ª":{"ha":629,"x_min":29,"x_max":618,"o":"m 32 585 q 67 690 32 649 q 167 757 103 731 q 342 811 231 783 q 274 875 342 875 q 71 814 183 875 l 29 939 q 180 997 104 976 q 342 1018 256 1018 q 509 962 458 1018 q 560 781 560 906 l 560 646 q 564 625 560 632 q 581 618 568 618 q 610 625 596 618 l 618 465 q 500 451 564 451 q 358 507 393 451 q 276 464 315 478 q 183 450 238 450 q 74 489 117 450 q 32 585 32 528 m 342 703 q 273 663 293 682 q 253 618 253 644 q 263 597 253 604 q 288 589 272 589 q 342 613 310 589 l 342 703 m 33 360 l 603 360 l 603 196 l 33 196 l 33 360 z "},"º":{"ha":660,"x_min":28,"x_max":632,"o":"m 28 729 q 62 872 28 806 q 164 978 96 938 q 329 1018 232 1018 q 496 977 428 1018 q 598 871 564 936 q 632 732 632 806 q 598 589 632 656 q 496 482 564 522 q 329 442 428 442 q 164 482 232 442 q 62 588 96 522 q 28 729 28 654 m 411 731 q 393 835 411 801 q 329 868 375 868 q 266 835 283 868 q 249 731 249 803 q 266 625 249 658 q 329 592 283 592 q 393 625 375 592 q 411 731 411 658 m 613 360 l 613 196 l 47 196 l 47 360 l 613 360 z "},"Ω":{"ha":1169,"x_min":58,"x_max":1111,"o":"m 1107 525 q 1060 333 1107 424 q 931 179 1013 243 l 931 174 l 1111 174 l 1111 0 l 643 0 l 643 158 q 806 331 754 246 q 857 526 857 415 q 783 716 857 646 q 585 786 708 786 q 387 716 461 786 q 313 526 313 646 q 364 331 313 415 q 526 158 415 246 l 526 0 l 58 0 l 58 174 l 240 174 l 240 179 q 110 335 158 246 q 63 525 63 424 q 126 750 63 650 q 309 908 190 850 q 585 965 428 965 q 860 908 742 965 q 1043 750 979 850 q 1107 525 1107 650 z "},"μ":{"ha":954,"x_min":104,"x_max":843,"o":"m 843 789 l 843 0 l 664 0 l 639 65 q 376 -17 503 -17 q 311 -11 338 -17 l 346 -329 l 104 -329 l 104 789 l 346 789 l 346 332 q 369 197 346 235 q 457 160 392 160 q 601 207 528 160 l 601 789 l 843 789 z "},"π":{"ha":1036,"x_min":35,"x_max":961,"o":"m 835 618 l 835 222 q 847 178 835 192 q 889 165 860 165 q 940 172 914 165 l 949 8 q 793 -10 875 -10 q 647 34 700 -10 q 593 190 593 78 l 593 618 l 451 618 l 392 0 l 150 0 l 210 618 l 35 618 l 35 789 l 961 789 l 961 618 l 835 618 z "},"ॲ":{"ha":1238,"x_min":0,"x_max":1357,"o":"m 0 0 m 1238 763 l 1114 763 l 1114 0 l 893 0 l 893 285 q 781 264 836 264 q 738 267 765 264 l 738 247 q 700 120 738 178 q 592 29 663 63 q 429 -4 522 -4 q 187 69 292 -4 q 0 256 82 142 l 107 393 q 260 235 176 297 q 421 174 343 174 q 491 201 465 174 q 517 275 517 228 q 475 393 517 342 q 314 372 407 376 l 258 551 q 417 576 364 560 q 485 618 469 593 q 500 682 500 643 q 474 753 500 725 q 399 782 449 782 q 194 676 325 782 l 103 843 q 245 929 175 897 q 388 961 315 961 q 551 925 475 961 q 674 819 628 889 q 721 650 721 749 q 640 471 721 539 q 781 443 714 443 q 893 467 843 443 l 893 763 l 740 763 l 740 940 l 1238 940 l 1238 763 m 1003 1010 q 791 1072 885 1010 q 649 1232 697 1133 l 790 1329 q 1003 1188 872 1188 q 1215 1329 1133 1188 l 1357 1232 q 1213 1070 1304 1131 q 1003 1010 1121 1010 z "},"ऄ":{"ha":1238,"x_min":0,"x_max":1238,"o":"m 1238 763 l 1114 763 l 1114 0 l 893 0 l 893 285 q 781 264 836 264 q 738 267 765 264 l 738 247 q 700 120 738 178 q 592 29 663 63 q 429 -4 522 -4 q 187 69 292 -4 q 0 256 82 142 l 107 393 q 260 235 176 297 q 421 174 343 174 q 491 201 465 174 q 517 275 517 228 q 475 393 517 342 q 314 372 407 376 l 258 551 q 417 576 364 560 q 485 618 469 593 q 500 682 500 643 q 474 753 500 725 q 399 782 449 782 q 194 676 325 782 l 103 843 q 245 929 175 897 q 388 961 315 961 q 551 925 475 961 q 674 819 628 889 q 721 650 721 749 q 640 471 721 539 q 781 443 714 443 q 893 467 843 443 l 893 763 l 740 763 l 740 940 l 903 940 l 903 944 q 881 1013 903 985 q 807 1042 860 1042 q 651 1033 757 1042 q 506 1025 551 1025 q 331 1072 393 1025 q 269 1207 269 1119 q 286 1301 269 1251 q 329 1386 303 1350 l 528 1340 q 489 1251 489 1296 q 535 1204 489 1204 q 672 1213 578 1204 q 807 1221 764 1221 q 1041 1144 960 1221 q 1122 943 1122 1068 l 1122 940 l 1238 940 l 1238 763 z "},"अ":{"ha":1238,"x_min":0,"x_max":1238,"o":"m 1238 763 l 1114 763 l 1114 0 l 893 0 l 893 285 q 781 264 836 264 q 738 267 765 264 l 738 247 q 700 120 738 178 q 592 29 663 63 q 429 -4 522 -4 q 187 69 292 -4 q 0 256 82 142 l 107 393 q 260 235 176 297 q 421 174 343 174 q 491 201 465 174 q 517 275 517 228 q 475 393 517 342 q 314 372 407 376 l 258 551 q 417 576 364 560 q 485 618 469 593 q 500 682 500 643 q 474 753 500 725 q 399 782 449 782 q 194 676 325 782 l 103 843 q 245 929 175 897 q 388 961 315 961 q 551 925 475 961 q 674 819 628 889 q 721 650 721 749 q 640 471 721 539 q 781 443 714 443 q 893 467 843 443 l 893 763 l 740 763 l 740 940 l 1238 940 l 1238 763 z "},"आ":{"ha":1706,"x_min":0,"x_max":1706,"o":"m 1706 763 l 1582 763 l 1582 0 l 1361 0 l 1361 763 l 1114 763 l 1114 0 l 893 0 l 893 285 q 781 264 836 264 q 738 267 765 264 l 738 247 q 700 120 738 178 q 592 29 663 63 q 429 -4 522 -4 q 187 69 292 -4 q 0 256 82 142 l 107 393 q 260 235 176 297 q 421 174 343 174 q 491 201 465 174 q 517 275 517 228 q 475 393 517 342 q 314 372 407 376 l 258 551 q 417 576 364 560 q 485 618 469 593 q 500 682 500 643 q 474 753 500 725 q 399 782 449 782 q 194 676 325 782 l 103 843 q 245 929 175 897 q 388 961 315 961 q 551 925 475 961 q 674 819 628 889 q 721 650 721 749 q 640 471 721 539 q 781 443 714 443 q 893 467 843 443 l 893 763 l 740 763 l 740 940 l 1706 940 l 1706 763 z "},"इ":{"ha":778,"x_min":-28,"x_max":778,"o":"m 313 532 q 294 519 303 532 q 285 488 285 507 q 361 442 285 442 q 483 454 414 442 q 604 486 553 467 q 698 382 658 449 q 738 244 738 315 q 663 51 738 129 q 464 -49 588 -28 l 599 -246 l 400 -350 l 269 -46 q 118 14 176 -28 q 60 107 60 56 q 117 199 60 161 q 268 238 174 236 l 346 124 q 365 122 353 122 q 473 153 429 122 q 517 231 517 185 q 503 283 517 256 q 364 263 433 263 q 198 294 265 263 q 97 376 131 325 q 64 492 64 428 q 121 647 64 585 q 278 710 178 710 l 411 710 l 411 763 l -28 763 l -28 940 l 778 940 l 778 763 l 631 763 l 631 532 l 313 532 z "},"ई":{"ha":778,"x_min":-28,"x_max":778,"o":"m 313 532 q 294 519 303 532 q 285 488 285 507 q 361 442 285 442 q 483 454 414 442 q 604 486 553 467 q 698 382 658 449 q 738 244 738 315 q 663 51 738 129 q 464 -49 588 -28 l 599 -246 l 400 -350 l 269 -46 q 118 14 176 -28 q 60 107 60 56 q 117 199 60 161 q 268 238 174 236 l 346 124 q 365 122 353 122 q 473 153 429 122 q 517 231 517 185 q 503 283 517 256 q 364 263 433 263 q 198 294 265 263 q 97 376 131 325 q 64 492 64 428 q 121 647 64 585 q 278 710 178 710 l 411 710 l 411 763 l -28 763 l -28 940 l 368 940 q 290 1048 317 992 q 263 1172 263 1104 q 336 1338 263 1274 q 549 1403 410 1403 q 647 1389 600 1403 q 729 1354 694 1375 l 679 1203 q 583 1226 629 1226 q 483 1124 483 1226 q 513 1031 483 1074 q 593 940 542 988 l 778 940 l 778 763 l 631 763 l 631 532 l 313 532 z "},"उ":{"ha":843,"x_min":-28,"x_max":843,"o":"m 843 763 l 717 763 q 742 643 742 708 q 647 465 742 535 q 751 229 751 356 q 712 95 751 154 q 599 2 672 36 q 429 -32 525 -32 q 0 258 188 -32 l 107 396 q 260 217 178 288 q 421 146 343 146 q 501 177 471 146 q 531 257 531 208 q 479 394 531 335 q 286 372 389 374 l 231 551 q 419 576 356 558 q 502 618 483 594 q 521 675 521 642 q 506 724 521 700 q 464 763 492 747 l -28 763 l -28 940 l 843 940 l 843 763 z "},"ऊ":{"ha":1214,"x_min":-28,"x_max":1214,"o":"m 717 763 q 742 643 742 708 q 647 465 742 535 q 678 432 668 444 q 918 553 807 553 q 1058 519 999 553 q 1149 431 1118 486 q 1181 314 1181 376 q 1143 138 1181 222 q 1046 -19 1106 53 l 836 96 q 927 223 894 168 q 960 322 960 278 q 945 360 960 346 q 906 374 931 374 q 749 267 842 374 q 751 229 751 242 q 712 95 751 154 q 599 2 672 36 q 429 -32 525 -32 q 0 258 188 -32 l 107 396 q 260 217 178 288 q 421 146 343 146 q 501 177 471 146 q 531 257 531 208 q 479 394 531 335 q 286 372 389 374 l 231 551 q 419 576 356 558 q 502 618 483 594 q 521 675 521 642 q 506 724 521 700 q 464 763 492 747 l -28 763 l -28 940 l 1214 940 l 1214 763 l 717 763 z "},"ऋ":{"ha":1261,"x_min":-28,"x_max":1328,"o":"m 1328 -61 q 1233 -109 1288 -90 q 1114 -128 1178 -128 q 972 -98 1033 -128 q 876 -17 910 -68 q 842 99 842 35 q 963 304 842 217 l 940 354 q 782 325 861 325 q 761 326 768 325 l 761 0 l 540 0 l 540 228 l 239 1 l 106 178 l 510 433 q 416 484 458 469 q 329 499 374 499 q 247 481 294 499 q 138 433 199 463 l 32 622 q 329 678 179 678 q 432 663 382 678 q 540 611 482 649 l 540 763 l -28 763 l -28 940 l 1261 940 l 1261 763 l 761 763 l 761 506 q 785 504 769 504 q 871 518 828 504 l 824 628 q 892 692 851 668 q 978 715 933 715 q 1090 672 1050 715 q 1131 567 1131 628 q 1082 443 1131 499 l 1190 221 q 1068 169 1107 200 q 1029 103 1029 138 q 1051 63 1029 76 q 1111 50 1072 50 q 1187 62 1146 50 q 1253 93 1228 74 l 1328 -61 z "},"ॠ":{"ha":1261,"x_min":-28,"x_max":1464,"o":"m 1464 -340 q 1369 -388 1424 -369 q 1250 -407 1314 -407 q 1108 -377 1169 -407 q 1012 -296 1046 -347 q 978 -181 978 -244 q 992 -107 978 -140 q 881 -26 921 -81 q 842 99 842 29 q 963 304 842 217 l 940 354 q 782 325 861 325 q 761 326 768 325 l 761 0 l 540 0 l 540 228 l 239 1 l 106 178 l 510 433 q 416 484 458 469 q 329 499 374 499 q 247 481 294 499 q 138 433 199 463 l 32 622 q 329 678 179 678 q 432 663 382 678 q 540 611 482 649 l 540 763 l -28 763 l -28 940 l 1261 940 l 1261 763 l 761 763 l 761 506 q 785 504 769 504 q 871 518 828 504 l 824 628 q 892 692 851 668 q 978 715 933 715 q 1090 672 1050 715 q 1131 567 1131 628 q 1082 443 1131 499 l 1190 221 q 1068 169 1107 200 q 1029 103 1029 138 q 1051 63 1029 76 q 1111 50 1072 50 q 1187 62 1146 50 q 1253 93 1228 74 l 1328 -61 q 1193 -119 1271 -104 q 1165 -176 1165 -146 q 1187 -216 1165 -203 q 1247 -229 1208 -229 q 1323 -217 1282 -229 q 1389 -186 1364 -206 l 1464 -340 z "},"ऌ":{"ha":1142,"x_min":-28,"x_max":1189,"o":"m 1189 -128 q 1075 -196 1132 -171 q 938 -221 1018 -221 q 801 -194 864 -221 q 702 -115 739 -167 q 665 6 665 -64 q 698 119 665 67 q 793 240 731 171 q 865 330 843 297 q 888 397 888 363 q 869 445 888 428 q 817 463 850 463 q 714 398 760 463 q 642 222 668 333 l 421 263 q 482 439 439 361 q 374 486 432 486 q 302 457 333 486 q 271 375 271 428 q 320 216 271 290 q 479 43 369 142 l 354 -83 q 133 153 217 28 q 50 397 50 279 q 133 596 50 525 q 346 667 215 667 q 477 633 419 667 q 572 551 535 600 q 701 625 631 604 l 701 763 l -28 763 l -28 940 l 1142 940 l 1142 763 l 922 763 l 922 626 q 1058 532 1008 599 q 1108 389 1108 465 q 1074 282 1108 335 q 976 161 1039 229 q 904 74 928 107 q 881 11 881 40 q 901 -29 881 -15 q 954 -43 921 -43 q 1038 -23 993 -43 q 1119 29 1082 -3 l 1189 -128 z "},"ॡ":{"ha":1142,"x_min":-28,"x_max":1324,"o":"m 1324 -431 q 1228 -478 1283 -460 q 1110 -497 1174 -497 q 967 -467 1029 -497 q 872 -386 906 -437 q 838 -271 838 -335 q 846 -210 838 -239 q 715 -132 765 -187 q 665 6 665 -76 q 698 119 665 67 q 793 240 731 171 q 865 330 843 297 q 888 397 888 363 q 869 445 888 428 q 817 463 850 463 q 714 398 760 463 q 642 222 668 333 l 421 263 q 482 439 439 361 q 374 486 432 486 q 302 457 333 486 q 271 375 271 428 q 320 216 271 290 q 479 43 369 142 l 354 -83 q 133 153 217 28 q 50 397 50 279 q 133 596 50 525 q 346 667 215 667 q 477 633 419 667 q 572 551 535 600 q 701 625 631 604 l 701 763 l -28 763 l -28 940 l 1142 940 l 1142 763 l 922 763 l 922 626 q 1058 532 1008 599 q 1108 389 1108 465 q 1074 282 1108 335 q 976 161 1039 229 q 904 74 928 107 q 881 11 881 40 q 901 -29 881 -15 q 954 -43 921 -43 q 1038 -23 993 -43 q 1119 29 1082 -3 l 1189 -128 q 1065 -200 1119 -181 q 1025 -267 1025 -231 q 1047 -306 1025 -293 q 1107 -319 1068 -319 q 1187 -306 1143 -319 q 1253 -272 1231 -293 l 1324 -431 z "},"ऍ":{"ha":992,"x_min":-28,"x_max":996,"o":"m 0 0 m 833 25 q 956 -78 917 -31 q 996 -167 996 -125 q 972 -272 996 -222 q 892 -378 947 -321 l 707 -286 q 746 -230 733 -254 q 758 -181 758 -206 q 733 -130 758 -156 q 651 -67 707 -104 l 338 146 q 194 276 238 214 q 151 426 151 338 l 151 763 l -28 763 l -28 940 l 992 940 l 992 763 l 853 763 l 853 471 q 802 342 853 390 q 682 261 751 293 l 510 392 q 601 444 571 415 q 632 518 632 474 l 632 763 l 372 763 l 372 431 q 392 343 372 374 q 464 276 411 313 l 833 25 m 496 1010 q 284 1072 378 1010 q 142 1232 190 1133 l 283 1329 q 496 1188 365 1188 q 708 1329 626 1188 l 850 1232 q 706 1070 797 1131 q 496 1010 614 1010 z "},"ऎ":{"ha":992,"x_min":-28,"x_max":996,"o":"m 833 25 q 956 -78 917 -31 q 996 -167 996 -125 q 972 -272 996 -222 q 892 -378 947 -321 l 707 -286 q 746 -230 733 -254 q 758 -181 758 -206 q 733 -130 758 -156 q 651 -67 707 -104 l 338 146 q 194 276 238 214 q 151 426 151 338 l 151 763 l -28 763 l -28 940 l 639 940 l 639 944 q 617 1013 639 985 q 543 1042 596 1042 q 388 1033 493 1042 q 242 1025 288 1025 q 67 1072 129 1025 q 6 1207 6 1119 q 22 1301 6 1251 q 65 1386 39 1350 l 264 1340 q 225 1251 225 1296 q 271 1204 225 1204 q 408 1213 314 1204 q 543 1221 500 1221 q 777 1144 696 1221 q 858 943 858 1068 l 858 940 l 992 940 l 992 763 l 853 763 l 853 471 q 802 342 853 390 q 682 261 751 293 l 510 392 q 601 444 571 415 q 632 518 632 474 l 632 763 l 372 763 l 372 431 q 392 343 372 374 q 464 276 411 313 l 833 25 z "},"ए":{"ha":992,"x_min":-28,"x_max":996,"o":"m 833 25 q 956 -78 917 -31 q 996 -167 996 -125 q 972 -272 996 -222 q 892 -378 947 -321 l 707 -286 q 746 -230 733 -254 q 758 -181 758 -206 q 733 -130 758 -156 q 651 -67 707 -104 l 338 146 q 194 276 238 214 q 151 426 151 338 l 151 763 l -28 763 l -28 940 l 992 940 l 992 763 l 853 763 l 853 471 q 802 342 853 390 q 682 261 751 293 l 510 392 q 601 444 571 415 q 632 518 632 474 l 632 763 l 372 763 l 372 431 q 392 343 372 374 q 464 276 411 313 l 833 25 z "},"ऐ":{"ha":992,"x_min":-28,"x_max":996,"o":"m 833 25 q 956 -78 917 -31 q 996 -167 996 -125 q 972 -272 996 -222 q 892 -378 947 -321 l 707 -286 q 746 -230 733 -254 q 758 -181 758 -206 q 733 -130 758 -156 q 651 -67 707 -104 l 338 146 q 194 276 238 214 q 151 426 151 338 l 151 763 l -28 763 l -28 940 l 610 940 l 581 1007 q 488 1148 539 1103 q 367 1193 438 1193 q 235 1176 299 1193 l 197 1343 q 365 1374 272 1374 q 598 1292 503 1374 q 775 1029 693 1210 l 815 940 l 992 940 l 992 763 l 853 763 l 853 471 q 802 342 853 390 q 682 261 751 293 l 510 392 q 601 444 571 415 q 632 518 632 474 l 632 763 l 372 763 l 372 431 q 392 343 372 374 q 464 276 411 313 l 833 25 z "},"ऑ":{"ha":1706,"x_min":0,"x_max":1825,"o":"m 0 0 m 1706 763 l 1582 763 l 1582 0 l 1361 0 l 1361 763 l 1114 763 l 1114 0 l 893 0 l 893 285 q 781 264 836 264 q 738 267 765 264 l 738 247 q 700 120 738 178 q 592 29 663 63 q 429 -4 522 -4 q 187 69 292 -4 q 0 256 82 142 l 107 393 q 260 235 176 297 q 421 174 343 174 q 491 201 465 174 q 517 275 517 228 q 475 393 517 342 q 314 372 407 376 l 258 551 q 417 576 364 560 q 485 618 469 593 q 500 682 500 643 q 474 753 500 725 q 399 782 449 782 q 194 676 325 782 l 103 843 q 245 929 175 897 q 388 961 315 961 q 551 925 475 961 q 674 819 628 889 q 721 650 721 749 q 640 471 721 539 q 781 443 714 443 q 893 467 843 443 l 893 763 l 740 763 l 740 940 l 1706 940 l 1706 763 m 1471 1010 q 1259 1072 1353 1010 q 1117 1232 1165 1133 l 1258 1329 q 1471 1188 1340 1188 q 1683 1329 1601 1188 l 1825 1232 q 1681 1070 1772 1131 q 1471 1010 1589 1010 z "},"ऒ":{"ha":1706,"x_min":0,"x_max":1706,"o":"m 1706 763 l 1582 763 l 1582 0 l 1361 0 l 1361 763 l 1114 763 l 1114 0 l 893 0 l 893 285 q 781 264 836 264 q 738 267 765 264 l 738 247 q 700 120 738 178 q 592 29 663 63 q 429 -4 522 -4 q 187 69 292 -4 q 0 256 82 142 l 107 393 q 260 235 176 297 q 421 174 343 174 q 491 201 465 174 q 517 275 517 228 q 475 393 517 342 q 314 372 407 376 l 258 551 q 417 576 364 560 q 485 618 469 593 q 500 682 500 643 q 474 753 500 725 q 399 782 449 782 q 194 676 325 782 l 103 843 q 245 929 175 897 q 388 961 315 961 q 551 925 475 961 q 674 819 628 889 q 721 650 721 749 q 640 471 721 539 q 781 443 714 443 q 893 467 843 443 l 893 763 l 740 763 l 740 940 l 1372 940 l 1372 944 q 1351 1013 1372 985 q 1276 1042 1329 1042 q 1121 1033 1226 1042 q 975 1025 1021 1025 q 801 1072 863 1025 q 739 1207 739 1119 q 756 1301 739 1251 q 799 1386 772 1350 l 997 1340 q 958 1251 958 1296 q 1004 1204 958 1204 q 1142 1213 1047 1204 q 1276 1221 1233 1221 q 1510 1144 1429 1221 q 1592 943 1592 1068 l 1592 940 l 1706 940 l 1706 763 z "},"ओ":{"ha":1706,"x_min":0,"x_max":1706,"o":"m 1706 763 l 1582 763 l 1582 0 l 1361 0 l 1361 763 l 1114 763 l 1114 0 l 893 0 l 893 285 q 781 264 836 264 q 738 267 765 264 l 738 247 q 700 120 738 178 q 592 29 663 63 q 429 -4 522 -4 q 187 69 292 -4 q 0 256 82 142 l 107 393 q 260 235 176 297 q 421 174 343 174 q 491 201 465 174 q 517 275 517 228 q 475 393 517 342 q 314 372 407 376 l 258 551 q 417 576 364 560 q 485 618 469 593 q 500 682 500 643 q 474 753 500 725 q 399 782 449 782 q 194 676 325 782 l 103 843 q 245 929 175 897 q 388 961 315 961 q 551 925 475 961 q 674 819 628 889 q 721 650 721 749 q 640 471 721 539 q 781 443 714 443 q 893 467 843 443 l 893 763 l 740 763 l 740 940 l 1343 940 l 1314 1007 q 1222 1148 1272 1103 q 1100 1193 1171 1193 q 968 1176 1032 1193 l 931 1343 q 1099 1374 1006 1374 q 1331 1292 1236 1374 q 1508 1029 1426 1210 l 1549 940 l 1706 940 l 1706 763 z "},"औ":{"ha":1706,"x_min":0,"x_max":1706,"o":"m 1706 763 l 1582 763 l 1582 0 l 1361 0 l 1361 763 l 1114 763 l 1114 0 l 893 0 l 893 285 q 781 264 836 264 q 738 267 765 264 l 738 247 q 700 120 738 178 q 592 29 663 63 q 429 -4 522 -4 q 187 69 292 -4 q 0 256 82 142 l 107 393 q 260 235 176 297 q 421 174 343 174 q 491 201 465 174 q 517 275 517 228 q 475 393 517 342 q 314 372 407 376 l 258 551 q 417 576 364 560 q 485 618 469 593 q 500 682 500 643 q 474 753 500 725 q 399 782 449 782 q 194 676 325 782 l 103 843 q 245 929 175 897 q 388 961 315 961 q 551 925 475 961 q 674 819 628 889 q 721 650 721 749 q 640 471 721 539 q 781 443 714 443 q 893 467 843 443 l 893 763 l 740 763 l 740 940 l 1282 940 l 1257 976 q 1188 1040 1228 1018 q 1100 1061 1147 1061 q 954 1031 1025 1061 l 917 1197 q 1099 1242 1000 1242 q 1288 1174 1197 1242 q 1226 1277 1251 1242 q 1171 1328 1200 1313 q 1100 1343 1142 1343 q 996 1326 1047 1343 l 958 1493 q 1126 1524 1032 1524 q 1288 1478 1219 1524 q 1417 1327 1356 1432 q 1550 1029 1478 1222 l 1583 940 l 1706 940 l 1706 763 z "},"ॳ":{"ha":1238,"x_min":0,"x_max":1238,"o":"m 1238 763 l 1114 763 l 1114 0 l 893 0 l 893 285 q 781 264 836 264 q 738 267 765 264 l 738 247 q 700 120 738 178 q 592 29 663 63 q 429 -4 522 -4 q 187 69 292 -4 q 0 256 82 142 l 107 393 q 260 235 176 297 q 421 174 343 174 q 491 201 465 174 q 517 275 517 228 q 475 393 517 342 q 314 372 407 376 l 258 551 q 417 576 364 560 q 485 618 469 593 q 500 682 500 643 q 474 753 500 725 q 399 782 449 782 q 194 676 325 782 l 103 843 q 245 929 175 897 q 388 961 315 961 q 551 925 475 961 q 674 819 628 889 q 721 650 721 749 q 640 471 721 539 q 781 443 714 443 q 893 467 843 443 l 893 763 l 740 763 l 740 940 l 897 940 l 897 1307 l 1118 1307 l 1118 940 l 1238 940 l 1238 763 z "},"ॴ":{"ha":1706,"x_min":0,"x_max":1706,"o":"m 1706 763 l 1582 763 l 1582 0 l 1361 0 l 1361 763 l 1114 763 l 1114 0 l 893 0 l 893 285 q 781 264 836 264 q 738 267 765 264 l 738 247 q 700 120 738 178 q 592 29 663 63 q 429 -4 522 -4 q 187 69 292 -4 q 0 256 82 142 l 107 393 q 260 235 176 297 q 421 174 343 174 q 491 201 465 174 q 517 275 517 228 q 475 393 517 342 q 314 372 407 376 l 258 551 q 417 576 364 560 q 485 618 469 593 q 500 682 500 643 q 474 753 500 725 q 399 782 449 782 q 194 676 325 782 l 103 843 q 245 929 175 897 q 388 961 315 961 q 551 925 475 961 q 674 819 628 889 q 721 650 721 749 q 640 471 721 539 q 781 443 714 443 q 893 467 843 443 l 893 763 l 740 763 l 740 940 l 1361 940 l 1361 1307 l 1582 1307 l 1582 940 l 1706 940 l 1706 763 z "},"ॶ":{"ha":1238,"x_min":0,"x_max":1381,"o":"m 0 0 m 1238 763 l 1114 763 l 1114 0 l 893 0 l 893 285 q 781 264 836 264 q 738 267 765 264 l 738 247 q 700 120 738 178 q 592 29 663 63 q 429 -4 522 -4 q 187 69 292 -4 q 0 256 82 142 l 107 393 q 260 235 176 297 q 421 174 343 174 q 491 201 465 174 q 517 275 517 228 q 475 393 517 342 q 314 372 407 376 l 258 551 q 417 576 364 560 q 485 618 469 593 q 500 682 500 643 q 474 753 500 725 q 399 782 449 782 q 194 676 325 782 l 103 843 q 245 929 175 897 q 388 961 315 961 q 551 925 475 961 q 674 819 628 889 q 721 650 721 749 q 640 471 721 539 q 781 443 714 443 q 893 467 843 443 l 893 763 l 740 763 l 740 940 l 1238 940 l 1238 763 m 1003 -347 q 776 -282 875 -347 q 625 -106 678 -217 l 782 -14 q 1003 -169 867 -169 q 1224 -14 1139 -169 l 1381 -106 q 1228 -282 1326 -217 q 1003 -347 1131 -347 z "},"ॷ":{"ha":1238,"x_min":0,"x_max":1381,"o":"m 0 0 m 1238 763 l 1114 763 l 1114 0 l 893 0 l 893 285 q 781 264 836 264 q 738 267 765 264 l 738 247 q 700 120 738 178 q 592 29 663 63 q 429 -4 522 -4 q 187 69 292 -4 q 0 256 82 142 l 107 393 q 260 235 176 297 q 421 174 343 174 q 491 201 465 174 q 517 275 517 228 q 475 393 517 342 q 314 372 407 376 l 258 551 q 417 576 364 560 q 485 618 469 593 q 500 682 500 643 q 474 753 500 725 q 399 782 449 782 q 194 676 325 782 l 103 843 q 245 929 175 897 q 388 961 315 961 q 551 925 475 961 q 674 819 628 889 q 721 650 721 749 q 640 471 721 539 q 781 443 714 443 q 893 467 843 443 l 893 763 l 740 763 l 740 940 l 1238 940 l 1238 763 m 1003 -347 q 776 -282 875 -347 q 625 -106 678 -217 l 782 -14 q 1003 -169 867 -169 q 1224 -14 1139 -169 l 1381 -106 q 1228 -282 1326 -217 q 1003 -347 1131 -347 m 1003 -681 q 776 -615 875 -681 q 625 -439 678 -550 l 782 -347 q 1003 -503 867 -503 q 1224 -347 1139 -503 l 1381 -439 q 1228 -615 1326 -550 q 1003 -681 1131 -681 z "},"ा":{"ha":468,"x_min":-28,"x_max":468,"o":"m 468 763 l 344 763 l 344 0 l 124 0 l 124 763 l -28 763 l -28 940 l 468 940 l 468 763 z "},"ि":{"ha":468,"x_min":-28,"x_max":1076,"o":"m 394 1233 q 291 1199 332 1233 q 250 1101 250 1164 q 296 940 250 1018 l 468 940 l 468 763 l 344 763 l 344 0 l 124 0 l 124 763 l -28 763 l -28 940 l 104 940 q 29 1147 29 1051 q 70 1287 29 1225 q 185 1383 111 1349 q 354 1418 260 1418 q 631 1363 494 1418 q 869 1238 768 1307 q 1076 1082 971 1168 l 978 967 q 680 1156 835 1079 q 394 1233 525 1233 z "},"ी":{"ha":468,"x_min":-424,"x_max":468,"o":"m 468 763 l 344 763 l 344 0 l 124 0 l 124 763 l -28 763 l -28 940 l 107 940 q 0 1151 49 1082 q -115 1221 -49 1221 q -187 1195 -160 1221 q -215 1131 -215 1169 q -171 1022 -215 1081 l -293 967 q -385 1063 -346 1006 q -424 1188 -424 1121 q -390 1297 -424 1249 q -297 1373 -356 1346 q -168 1400 -239 1400 q 38 1338 -49 1400 q 183 1178 124 1276 q 297 940 242 1081 l 468 940 l 468 763 z "},"ॉ":{"ha":468,"x_min":-119,"x_max":589,"o":"m 0 0 m 468 763 l 344 763 l 344 0 l 124 0 l 124 763 l -28 763 l -28 940 l 468 940 l 468 763 m 235 1010 q 23 1072 117 1010 q -119 1232 -71 1133 l 22 1329 q 235 1188 104 1188 q 447 1329 365 1188 l 589 1232 q 444 1070 536 1131 q 235 1010 353 1010 z "},"ॊ":{"ha":468,"x_min":-499,"x_max":468,"o":"m 468 763 l 344 763 l 344 0 l 124 0 l 124 763 l -28 763 l -28 940 l 135 940 l 135 944 q 113 1013 135 985 q 39 1042 92 1042 q -117 1033 -11 1042 q -262 1025 -217 1025 q -437 1072 -375 1025 q -499 1207 -499 1119 q -482 1301 -499 1251 q -439 1386 -465 1350 l -240 1340 q -279 1251 -279 1296 q -233 1204 -279 1204 q -96 1213 -190 1204 q 39 1221 -4 1221 q 273 1144 192 1221 q 354 943 354 1068 l 354 940 l 468 940 l 468 763 z "},"ो":{"ha":468,"x_min":-307,"x_max":468,"o":"m 468 763 l 344 763 l 344 0 l 124 0 l 124 763 l -28 763 l -28 940 l 106 940 l 76 1007 q -16 1148 35 1103 q -137 1193 -67 1193 q -269 1176 -206 1193 l -307 1343 q -139 1374 -232 1374 q 94 1292 -1 1374 q 271 1029 189 1210 l 311 940 l 468 940 l 468 763 z "},"ौ":{"ha":468,"x_min":-321,"x_max":468,"o":"m 468 763 l 344 763 l 344 0 l 124 0 l 124 763 l -28 763 l -28 940 l 44 940 l 19 976 q -50 1040 -10 1018 q -137 1061 -90 1061 q -283 1031 -212 1061 l -321 1197 q -139 1242 -237 1242 q 50 1174 -40 1242 q -12 1277 14 1242 q -67 1328 -37 1313 q -137 1343 -96 1343 q -242 1326 -190 1343 l -279 1493 q -111 1524 -206 1524 q 50 1478 -18 1524 q 179 1327 118 1432 q 313 1029 240 1222 l 346 940 l 468 940 l 468 763 z "},"ऻ":{"ha":468,"x_min":-28,"x_max":468,"o":"m 468 763 l 344 763 l 344 0 l 124 0 l 124 763 l -28 763 l -28 940 l 129 940 l 129 1307 l 350 1307 l 350 940 l 468 940 l 468 763 z "},"क":{"ha":1228,"x_min":-28,"x_max":1228,"o":"m 732 763 l 732 571 q 918 636 828 636 q 1065 599 1003 636 q 1161 504 1128 563 q 1194 383 1194 446 q 1060 22 1194 203 l 850 138 q 940 279 907 217 q 974 392 974 342 q 956 440 974 422 q 906 457 938 457 q 817 431 860 457 q 732 357 775 404 l 732 0 l 511 0 l 511 189 q 322 126 415 126 q 171 163 236 126 q 70 260 106 199 q 35 396 35 321 q 69 533 35 469 q 165 635 103 597 q 310 672 228 672 q 424 655 372 672 q 511 611 476 638 l 511 763 l -28 763 l -28 940 l 1228 940 l 1228 763 l 732 763 m 350 306 q 434 333 392 306 q 511 403 476 360 l 511 406 q 437 469 479 446 q 353 493 394 493 q 283 465 311 493 q 256 396 256 438 q 281 331 256 357 q 350 306 307 306 z "},"ख":{"ha":1300,"x_min":-28,"x_max":1300,"o":"m 1300 763 l 1176 763 l 1176 -15 l 956 -15 l 956 75 q 771 -13 871 18 q 579 -44 671 -44 q 317 29 435 -44 q 131 238 199 103 q 63 550 63 374 l 64 592 l 254 619 l 253 569 q 256 504 253 546 q 288 496 268 496 q 326 521 308 496 q 344 593 344 546 q 286 763 344 676 l -28 763 l -28 940 l 1300 940 l 1300 763 m 956 763 l 508 763 q 565 571 565 676 q 533 431 565 488 q 451 346 501 374 q 349 318 401 318 q 297 326 319 318 q 415 181 339 228 q 579 135 490 135 q 774 168 676 135 q 956 267 871 201 l 956 294 q 895 262 926 272 q 825 251 864 251 q 703 282 756 251 q 621 360 650 313 q 592 461 592 408 q 624 582 592 529 q 709 665 656 635 q 824 694 763 694 q 956 644 901 694 l 956 763 m 956 471 q 860 536 914 536 q 810 518 829 536 q 792 472 792 500 q 810 426 792 443 q 858 410 828 410 q 956 471 911 410 z "},"ग":{"ha":969,"x_min":-28,"x_max":969,"o":"m 969 763 l 846 763 l 846 0 l 626 0 l 626 763 l 424 763 l 424 375 q 382 235 424 283 q 261 188 340 188 q 165 216 210 188 q 93 294 119 244 q 67 403 67 343 q 79 485 67 442 l 204 485 l 204 763 l -28 763 l -28 940 l 969 940 l 969 763 z "},"घ":{"ha":1054,"x_min":-28,"x_max":1054,"o":"m 1054 763 l 931 763 l 931 0 l 710 0 l 710 156 q 490 94 606 94 q 330 128 400 94 q 220 226 260 163 q 181 375 181 289 q 242 533 181 465 q 69 722 69 618 q 72 763 69 738 l -28 763 l -28 940 l 1054 940 l 1054 763 m 710 763 l 313 763 q 294 693 294 724 q 357 614 294 649 q 478 638 417 638 q 564 622 531 638 l 551 450 q 500 458 526 458 q 429 431 457 458 q 401 357 401 404 q 427 296 401 318 q 489 274 453 274 q 710 367 603 274 l 710 763 z "},"ङ":{"ha":1136,"x_min":-28,"x_max":1144,"o":"m 701 465 q 795 367 756 431 q 835 238 835 304 q 744 49 835 118 q 490 -21 654 -21 q 246 24 360 -21 q 44 147 132 68 l 131 289 q 472 157 296 157 q 579 177 544 157 q 614 224 614 197 q 599 272 614 249 q 433 256 513 256 q 251 285 325 256 q 142 366 178 315 q 106 478 106 417 q 134 584 106 536 q 217 660 163 632 q 347 689 271 689 l 508 689 l 508 763 l -28 763 l -28 940 l 1136 940 l 1136 763 l 728 763 l 728 511 l 382 511 q 326 474 326 511 q 351 444 326 454 q 431 435 376 435 q 567 443 490 435 q 701 465 644 451 m 1006 589 q 1103 548 1063 589 q 1144 450 1144 507 q 1103 352 1144 393 q 1006 311 1063 311 q 908 352 949 311 q 867 450 867 393 q 908 548 867 507 q 1006 589 949 589 z "},"च":{"ha":994,"x_min":-28,"x_max":994,"o":"m 994 763 l 871 763 l 871 0 l 650 0 l 650 179 q 404 94 536 94 q 249 128 315 94 q 147 217 182 161 q 111 343 111 274 q 157 485 111 419 l 14 485 l 14 663 l 536 663 l 536 499 q 385 441 438 485 q 332 343 332 397 q 351 292 332 310 q 403 274 371 274 q 519 303 454 274 q 650 401 585 333 l 650 763 l -28 763 l -28 940 l 994 940 l 994 763 z "},"छ":{"ha":1175,"x_min":-28,"x_max":1175,"o":"m 924 763 l 924 640 q 1020 544 985 606 q 1056 401 1056 483 q 1015 243 1056 319 q 1108 149 1075 200 q 1142 28 1142 97 q 1040 -287 1142 -128 l 828 -175 q 919 -56 889 -104 q 949 42 949 -7 q 914 104 949 69 q 706 -35 825 17 q 467 -87 588 -87 q 224 -15 314 -87 q 133 185 133 58 q 171 311 133 254 q 33 493 33 396 q 64 598 33 550 q 155 675 94 646 q 299 704 215 704 q 436 682 385 704 l 415 504 q 322 525 374 525 q 272 510 290 525 q 254 467 254 494 q 286 410 254 442 q 424 442 353 442 q 510 426 476 442 l 497 254 q 447 263 475 263 q 378 235 403 263 q 354 168 354 208 q 382 112 354 132 q 451 92 410 92 q 606 125 531 92 q 738 214 681 158 q 580 334 638 274 q 522 476 522 394 q 569 616 522 564 q 703 681 615 668 l 703 763 l -28 763 l -28 940 l 1175 940 l 1175 763 l 924 763 m 743 449 q 764 399 743 422 q 825 354 785 376 q 835 417 835 383 q 820 481 835 458 q 785 504 806 504 q 756 489 768 504 q 743 449 743 474 z "},"ज":{"ha":1124,"x_min":-28,"x_max":1124,"o":"m 1124 763 l 1000 763 l 1000 0 l 779 0 l 779 471 l 626 471 q 721 279 721 379 q 688 161 721 213 q 601 82 656 110 q 485 54 547 54 q 188 188 296 54 q 19 581 79 322 l 192 628 q 271 400 226 489 q 358 272 315 311 q 435 232 401 232 q 500 307 500 232 q 461 410 500 357 q 350 528 422 463 l 403 649 l 779 649 l 779 763 l -28 763 l -28 940 l 1124 940 l 1124 763 z "},"झ":{"ha":1214,"x_min":-28,"x_max":1214,"o":"m 1214 763 l 1090 763 l 1090 0 l 869 0 l 869 233 q 771 217 819 217 q 736 218 747 217 q 653 42 728 114 q 464 -49 579 -29 l 599 -246 l 400 -350 l 269 -46 q 118 14 176 -28 q 60 107 60 56 q 117 199 60 161 q 268 238 174 236 l 346 124 q 365 122 353 122 q 473 153 429 122 q 517 231 517 185 q 503 283 517 256 q 364 263 433 263 q 198 294 265 263 q 97 376 131 325 q 64 492 64 428 q 121 647 64 585 q 278 710 178 710 l 411 710 l 411 763 l -28 763 l -28 940 l 1214 940 l 1214 763 m 869 763 l 631 763 l 631 532 l 313 532 q 294 519 303 532 q 285 488 285 507 q 361 442 285 442 q 483 454 414 442 q 604 486 553 467 q 682 407 651 453 q 771 396 729 396 q 869 414 829 396 l 869 763 z "},"ञ":{"ha":1188,"x_min":-28,"x_max":1188,"o":"m 1188 763 l 1064 763 l 1064 0 l 843 0 l 843 317 q 757 304 796 304 q 708 308 738 304 q 597 193 674 236 q 424 150 521 150 q 203 226 306 150 q 1 468 101 303 l 131 551 q 268 382 204 435 q 406 329 332 329 q 483 353 454 329 q 511 410 511 376 q 491 470 511 447 q 431 493 471 493 q 391 485 407 493 q 351 461 375 478 l 231 593 q 332 651 281 631 q 447 672 383 672 q 620 624 543 672 q 722 486 697 575 q 757 483 750 483 q 843 496 806 483 l 843 763 l -28 763 l -28 940 l 1188 940 l 1188 763 z "},"ट":{"ha":896,"x_min":-28,"x_max":896,"o":"m 694 499 q 399 442 490 485 q 307 324 307 399 q 359 224 307 258 q 485 190 411 190 q 636 214 568 190 q 769 282 704 238 l 850 122 q 675 39 763 65 q 475 13 588 13 q 278 51 365 13 q 140 160 190 89 q 90 324 90 231 q 183 544 90 461 q 475 658 276 628 l 475 763 l -28 763 l -28 940 l 896 940 l 896 763 l 694 763 l 694 499 z "},"ठ":{"ha":964,"x_min":-28,"x_max":964,"o":"m 964 763 l 694 763 q 700 718 700 735 q 685 631 700 674 q 874 340 874 497 q 820 172 874 247 q 675 55 767 97 q 475 13 583 13 q 278 51 365 13 q 140 160 190 89 q 90 324 90 231 q 183 543 90 460 q 471 658 275 626 q 481 717 481 690 q 474 763 481 739 l -28 763 l -28 940 l 964 940 l 964 763 m 478 190 q 563 209 522 190 q 631 262 604 228 q 657 340 657 296 q 638 422 657 389 q 581 488 618 456 q 372 428 438 468 q 307 324 307 388 q 357 224 307 258 q 478 190 407 190 z "},"ड":{"ha":875,"x_min":-28,"x_max":875,"o":"m 382 511 q 326 474 326 511 q 351 444 326 454 q 431 435 376 435 q 567 443 490 435 q 701 465 644 451 q 795 367 756 431 q 835 238 835 304 q 744 49 835 118 q 490 -21 654 -21 q 246 24 360 -21 q 44 147 132 68 l 131 289 q 472 157 296 157 q 579 177 544 157 q 614 224 614 197 q 599 272 614 249 q 433 256 513 256 q 251 285 325 256 q 142 366 178 315 q 106 478 106 417 q 134 584 106 536 q 217 660 163 632 q 347 689 271 689 l 508 689 l 508 763 l -28 763 l -28 940 l 875 940 l 875 763 l 728 763 l 728 511 l 382 511 z "},"ढ":{"ha":882,"x_min":-28,"x_max":882,"o":"m 449 504 q 329 464 368 504 q 290 351 290 424 q 312 237 290 289 q 369 151 333 185 q 354 225 354 186 q 384 320 354 278 q 463 385 414 363 q 568 408 511 408 q 689 379 633 408 q 777 299 744 350 q 810 183 810 247 q 768 44 810 103 q 661 -43 726 -14 q 528 -72 596 -72 q 304 -17 410 -72 q 134 139 199 39 q 69 364 69 239 q 155 594 69 506 q 408 682 240 682 l 481 682 l 481 763 l -28 763 l -28 940 l 882 940 l 882 763 l 700 763 l 700 504 l 449 504 m 582 243 q 547 226 560 243 q 533 183 533 210 q 551 108 533 143 q 610 140 589 118 q 631 189 631 161 q 617 228 631 213 q 582 243 603 243 z "},"ण":{"ha":1124,"x_min":-28,"x_max":1124,"o":"m 1124 763 l 1000 763 l 1000 0 l 779 0 l 779 763 l 674 763 l 674 456 q 597 263 674 331 q 382 194 521 194 q 167 263 243 194 q 90 456 90 331 l 90 763 l -28 763 l -28 940 l 1124 940 l 1124 763 m 453 763 l 311 763 l 311 456 q 382 374 311 374 q 453 456 453 374 l 453 763 z "},"त":{"ha":913,"x_min":-28,"x_max":913,"o":"m 913 763 l 789 763 l 789 0 l 568 0 l 568 469 l 383 469 q 309 442 338 469 q 281 369 281 415 q 325 222 281 293 q 458 61 369 150 l 322 -56 q 138 163 215 33 q 60 413 60 292 q 132 583 60 519 q 354 647 204 647 l 568 647 l 568 763 l -28 763 l -28 940 l 913 940 l 913 763 z "},"थ":{"ha":1028,"x_min":54,"x_max":1028,"o":"m 1028 763 l 904 763 l 904 0 l 683 0 l 683 193 q 588 149 640 164 q 478 133 535 133 q 229 224 329 133 q 89 478 129 314 q 213 528 158 500 q 95 630 136 569 q 54 764 54 690 q 122 913 54 857 q 296 968 190 968 q 435 940 371 968 q 540 851 500 911 q 581 706 581 792 q 519 528 581 610 q 339 389 457 446 q 478 313 378 313 q 585 336 532 313 q 683 404 639 360 l 683 763 l 617 763 l 617 940 l 1028 940 l 1028 763 m 317 790 q 288 778 300 790 q 275 742 275 767 q 340 647 275 688 q 360 729 360 685 q 349 774 360 757 q 317 790 338 790 z "},"द":{"ha":896,"x_min":-28,"x_max":896,"o":"m 447 504 q 342 474 376 504 q 307 393 307 443 q 332 310 307 344 q 397 257 357 275 q 478 239 436 239 l 494 239 l 454 335 q 523 399 482 375 q 608 422 564 422 q 719 380 678 422 q 761 274 761 338 q 717 157 761 206 l 857 -39 l 658 -143 l 567 71 q 475 61 515 61 q 290 101 378 61 q 146 217 201 142 q 90 393 90 292 q 169 604 90 526 q 407 682 249 682 l 475 682 l 475 763 l -28 763 l -28 940 l 896 940 l 896 763 l 694 763 l 694 504 l 447 504 z "},"ध":{"ha":1018,"x_min":54,"x_max":1018,"o":"m 1018 763 l 894 763 l 894 0 l 674 0 l 674 156 q 454 94 569 94 q 294 128 364 94 q 184 226 224 163 q 144 375 144 289 q 210 539 144 469 q 54 768 54 643 q 84 872 54 824 q 168 950 114 921 q 292 979 222 979 q 405 966 361 979 q 490 931 449 953 l 436 765 q 333 800 382 800 q 291 785 307 800 q 275 742 275 769 q 294 685 275 717 q 350 624 313 654 q 442 638 392 638 q 528 622 494 638 l 515 450 q 464 458 490 458 q 393 431 421 458 q 365 357 365 404 q 391 296 365 318 q 453 274 417 274 q 674 367 567 274 l 674 763 l 551 763 l 551 940 l 1018 940 l 1018 763 z "},"न":{"ha":914,"x_min":-28,"x_max":914,"o":"m 914 763 l 790 763 l 790 0 l 571 0 l 571 386 l 332 386 l 332 261 q 244 247 289 247 q 144 269 189 247 q 74 328 99 290 q 49 408 49 365 q 94 524 49 483 q 222 564 139 564 l 571 564 l 571 763 l -28 763 l -28 940 l 914 940 l 914 763 z "},"ऩ":{"ha":914,"x_min":-28,"x_max":914,"o":"m 0 0 m 914 763 l 790 763 l 790 0 l 571 0 l 571 386 l 332 386 l 332 261 q 244 247 289 247 q 144 269 189 247 q 74 328 99 290 q 49 408 49 365 q 94 524 49 483 q 222 564 139 564 l 571 564 l 571 763 l -28 763 l -28 940 l 914 940 l 914 763 m 157 0 q 198 98 157 57 q 296 139 239 139 q 394 98 353 139 q 435 0 435 57 q 394 -98 435 -57 q 296 -139 353 -139 q 198 -98 239 -139 q 157 0 157 -57 z "},"प":{"ha":869,"x_min":-28,"x_max":869,"o":"m 869 763 l 746 763 l 746 0 l 525 0 l 525 238 q 374 199 451 199 q 163 270 235 199 q 90 486 90 342 l 90 763 l -28 763 l -28 940 l 869 940 l 869 763 m 525 763 l 311 763 l 311 478 q 392 378 311 378 q 525 419 464 378 l 525 763 z "},"फ":{"ha":1242,"x_min":-28,"x_max":1242,"o":"m 746 571 q 932 636 842 636 q 1079 599 1017 636 q 1175 504 1142 563 q 1208 383 1208 446 q 1074 22 1208 203 l 864 138 q 954 279 921 217 q 988 392 988 342 q 969 440 988 422 q 919 457 951 457 q 746 374 854 457 l 746 0 l 525 0 l 525 238 q 374 199 451 199 q 163 270 235 199 q 90 486 90 342 l 90 763 l -28 763 l -28 940 l 1242 940 l 1242 763 l 746 763 l 746 571 m 392 378 q 525 419 464 378 l 525 763 l 311 763 l 311 478 q 392 378 311 378 z "},"ब":{"ha":907,"x_min":-28,"x_max":925,"o":"m 925 763 l 801 763 l 801 0 l 581 0 l 581 181 q 351 100 465 100 q 181 139 253 100 q 72 244 110 178 q 35 392 35 310 q 72 544 35 475 q 183 655 110 614 q 357 696 257 696 q 481 672 422 696 q 581 610 539 647 l 581 763 l -28 763 l -28 940 l 925 940 l 925 763 m 503 331 q 581 401 547 364 l 581 403 q 381 517 488 517 l 503 331 m 256 394 q 284 312 256 344 q 364 279 313 279 q 431 292 397 279 l 300 490 q 256 394 256 457 z "},"भ":{"ha":1150,"x_min":54,"x_max":1150,"o":"m 1150 763 l 1026 763 l 1026 0 l 806 0 l 806 264 l 582 264 l 582 163 q 467 143 524 143 q 356 166 404 143 q 280 227 307 189 q 253 308 253 265 q 283 393 253 356 q 361 440 313 431 l 361 474 q 131 589 207 508 q 54 764 54 669 q 126 915 54 861 q 318 968 197 968 q 582 693 582 968 l 582 442 l 806 442 l 806 763 l 664 763 l 664 940 l 1150 940 l 1150 763 m 275 742 q 297 684 275 711 q 361 635 319 657 l 361 724 q 318 790 361 790 q 286 777 297 790 q 275 742 275 764 z "},"म":{"ha":958,"x_min":-28,"x_max":958,"o":"m 958 763 l 835 763 l 835 0 l 614 0 l 614 292 l 376 292 l 376 190 q 261 171 318 171 q 150 194 199 171 q 74 255 101 217 q 47 336 47 293 q 77 421 47 383 q 156 468 107 458 l 156 763 l -28 763 l -28 940 l 958 940 l 958 763 m 614 763 l 376 763 l 376 469 l 614 469 l 614 763 z "},"य":{"ha":933,"x_min":-28,"x_max":933,"o":"m 933 763 l 810 763 l 810 0 l 589 0 l 589 193 q 493 149 546 164 q 383 133 440 133 q 138 228 239 133 q 7 494 36 324 q 174 561 124 528 q 224 639 224 594 q 160 763 224 707 l -28 763 l -28 940 l 933 940 l 933 763 m 589 763 l 393 763 q 439 636 439 706 q 391 500 439 565 q 250 389 343 435 q 383 313 297 313 q 491 336 438 313 q 589 404 544 360 l 589 763 z "},"र":{"ha":661,"x_min":-28,"x_max":661,"o":"m 661 763 l 508 763 q 565 571 565 675 q 531 431 565 488 q 444 346 497 374 q 335 318 392 318 q 290 322 311 318 q 354 247 317 283 l 549 63 l 421 -65 l 272 74 q 121 249 171 169 q 55 404 71 329 q 33 592 39 479 l 226 619 q 235 506 228 556 q 274 496 251 496 q 322 521 300 496 q 344 593 344 546 q 286 763 344 678 l -28 763 l -28 940 l 661 940 l 661 763 z "},"ऱ":{"ha":661,"x_min":-28,"x_max":661,"o":"m 0 0 m 661 763 l 508 763 q 565 571 565 675 q 531 431 565 488 q 444 346 497 374 q 335 318 392 318 q 290 322 311 318 q 354 247 317 283 l 549 63 l 421 -65 l 272 74 q 121 249 171 169 q 55 404 71 329 q 33 592 39 479 l 226 619 q 235 506 228 556 q 274 496 251 496 q 322 521 300 496 q 344 593 344 546 q 286 763 344 678 l -28 763 l -28 940 l 661 940 l 661 763 m 0 -110 q 41 -12 0 -53 q 139 29 82 29 q 237 -12 196 29 q 278 -110 278 -53 q 237 -208 278 -167 q 139 -249 196 -249 q 41 -208 82 -249 q 0 -110 0 -167 z "},"ल":{"ha":1176,"x_min":-28,"x_max":1176,"o":"m 1176 763 l 1053 763 l 1053 0 l 832 0 l 832 458 q 803 463 817 463 q 708 398 750 463 q 642 222 667 333 l 421 263 q 478 443 438 364 q 374 486 431 486 q 302 457 333 486 q 271 375 271 428 q 320 216 271 290 q 479 43 369 142 l 354 -83 q 133 153 217 28 q 50 397 50 279 q 133 596 50 525 q 346 667 215 667 q 472 637 415 667 q 565 561 528 607 q 663 622 610 601 q 771 643 715 643 q 832 638 796 643 l 832 763 l -28 763 l -28 940 l 1176 940 l 1176 763 z "},"ळ":{"ha":1096,"x_min":-28,"x_max":1096,"o":"m 906 763 l 906 683 q 1031 576 985 649 q 1076 401 1076 503 q 1037 241 1076 310 q 931 135 997 172 q 790 99 865 99 q 660 130 711 99 q 568 215 608 161 q 346 100 476 100 q 193 137 261 100 q 85 242 125 174 q 46 404 46 311 q 83 567 46 499 q 186 673 121 636 q 332 710 251 710 q 463 678 413 710 q 556 592 514 646 q 685 692 613 664 l 685 763 l -28 763 l -28 940 l 1096 940 l 1096 763 l 906 763 m 343 279 q 402 311 378 279 q 450 401 426 343 l 467 442 q 414 506 443 482 q 343 531 385 531 q 289 495 311 531 q 267 404 267 460 q 289 314 267 349 q 343 279 311 279 m 779 278 q 833 313 811 278 q 856 401 856 347 q 833 493 856 457 q 779 529 811 529 q 721 497 746 529 q 672 404 696 464 l 656 364 q 707 301 678 325 q 779 278 736 278 z "},"ऴ":{"ha":1096,"x_min":-28,"x_max":1096,"o":"m 0 0 m 906 763 l 906 683 q 1031 576 985 649 q 1076 401 1076 503 q 1037 241 1076 310 q 931 135 997 172 q 790 99 865 99 q 660 130 711 99 q 568 215 608 161 q 346 100 476 100 q 193 137 261 100 q 85 242 125 174 q 46 404 46 311 q 83 567 46 499 q 186 673 121 636 q 332 710 251 710 q 463 678 413 710 q 556 592 514 646 q 685 692 613 664 l 685 763 l -28 763 l -28 940 l 1096 940 l 1096 763 l 906 763 m 343 279 q 402 311 378 279 q 450 401 426 343 l 467 442 q 414 506 443 482 q 343 531 385 531 q 289 495 311 531 q 267 404 267 460 q 289 314 267 349 q 343 279 311 279 m 779 278 q 833 313 811 278 q 856 401 856 347 q 833 493 856 457 q 779 529 811 529 q 721 497 746 529 q 672 404 696 464 l 656 364 q 707 301 678 325 q 779 278 736 278 m 429 -83 q 470 15 429 -26 q 568 56 511 56 q 666 15 625 56 q 707 -83 707 -26 q 666 -181 707 -140 q 568 -222 625 -222 q 470 -181 511 -222 q 429 -83 429 -140 z "},"व":{"ha":925,"x_min":-28,"x_max":925,"o":"m 925 763 l 801 763 l 801 0 l 581 0 l 581 181 q 351 100 465 100 q 181 139 253 100 q 72 244 110 178 q 35 392 35 310 q 72 544 35 475 q 183 655 110 614 q 357 696 257 696 q 481 672 422 696 q 581 610 539 647 l 581 763 l -28 763 l -28 940 l 925 940 l 925 763 m 364 279 q 475 313 417 279 q 581 401 533 347 l 581 403 q 486 486 538 456 q 379 517 435 517 q 289 481 322 517 q 256 394 256 446 q 284 312 256 344 q 364 279 313 279 z "},"श":{"ha":1171,"x_min":-28,"x_max":1171,"o":"m 1171 763 l 1047 763 l 1047 0 l 826 0 l 826 763 l 669 763 q 699 614 699 699 q 658 458 699 536 q 553 318 618 381 q 419 218 489 256 l 579 -8 l 381 -112 l 250 185 q 100 235 160 194 q 40 331 40 276 q 97 426 40 390 q 249 461 153 461 l 308 376 q 388 436 350 396 q 215 553 276 482 q 153 711 153 625 q 158 763 153 742 l -28 763 l -28 940 l 1171 940 l 1171 763 m 476 642 q 463 729 476 696 q 419 763 449 763 q 388 746 401 763 q 375 697 375 729 q 401 634 375 664 q 469 581 426 604 q 476 642 476 615 z "},"ष":{"ha":897,"x_min":-28,"x_max":897,"o":"m 897 763 l 774 763 l 774 0 l 553 0 l 553 185 q 388 143 472 143 q 166 219 242 143 q 90 444 90 294 l 90 763 l -28 763 l -28 940 l 897 940 l 897 763 m 553 763 l 315 763 l 553 507 l 553 763 m 311 436 q 406 322 311 322 q 478 335 444 322 q 549 369 511 347 l 311 624 l 311 436 z "},"स":{"ha":1107,"x_min":-28,"x_max":1107,"o":"m 1107 763 l 983 763 l 983 0 l 763 0 l 763 263 q 647 240 708 240 q 519 262 576 240 q 410 331 461 283 q 335 318 372 318 q 290 322 311 318 q 354 247 317 283 l 549 63 l 421 -65 l 272 74 q 121 249 171 169 q 55 404 71 329 q 33 592 39 479 l 226 619 q 235 506 228 556 q 274 496 251 496 q 322 521 300 496 q 344 593 344 546 q 286 763 344 678 l -28 763 l -28 940 l 1107 940 l 1107 763 m 763 763 l 508 763 q 565 571 565 675 q 538 442 565 500 q 647 419 588 419 q 763 444 715 419 l 763 763 z "},"ह":{"ha":857,"x_min":-28,"x_max":857,"o":"m 372 511 q 322 502 336 511 q 308 472 308 493 q 329 425 308 446 q 485 450 400 450 q 646 415 576 450 q 753 322 715 381 q 790 192 790 263 q 733 39 790 118 l 544 125 q 571 197 571 164 q 547 251 571 229 q 485 272 524 272 q 394 242 429 272 q 360 164 360 213 q 388 92 360 131 q 483 26 415 54 q 663 -1 551 -1 l 621 -172 q 364 -127 472 -172 q 198 -1 256 -82 q 140 186 140 81 q 185 319 140 256 q 89 506 89 396 q 289 689 89 689 l 492 689 l 492 763 l -28 763 l -28 940 l 857 940 l 857 763 l 711 763 l 711 511 l 372 511 z "},"क़":{"ha":1228,"x_min":-28,"x_max":1228,"o":"m 0 0 m 732 763 l 732 571 q 918 636 828 636 q 1065 599 1003 636 q 1161 504 1128 563 q 1194 383 1194 446 q 1060 22 1194 203 l 850 138 q 940 279 907 217 q 974 392 974 342 q 956 440 974 422 q 906 457 938 457 q 817 431 860 457 q 732 357 775 404 l 732 0 l 511 0 l 511 189 q 322 126 415 126 q 171 163 236 126 q 70 260 106 199 q 35 396 35 321 q 69 533 35 469 q 165 635 103 597 q 310 672 228 672 q 424 655 372 672 q 511 611 476 638 l 511 763 l -28 763 l -28 940 l 1228 940 l 1228 763 l 732 763 m 350 306 q 434 333 392 306 q 511 403 476 360 l 511 406 q 437 469 479 446 q 353 493 394 493 q 283 465 311 493 q 256 396 256 438 q 281 331 256 357 q 350 306 307 306 m 122 -69 q 163 28 122 -12 q 261 69 204 69 q 359 28 318 69 q 400 -69 400 -12 q 359 -167 400 -126 q 261 -208 318 -208 q 163 -167 204 -208 q 122 -69 122 -126 z "},"ख़":{"ha":1300,"x_min":-28,"x_max":1300,"o":"m 0 0 m 1300 763 l 1176 763 l 1176 -15 l 956 -15 l 956 75 q 771 -13 871 18 q 579 -44 671 -44 q 317 29 435 -44 q 131 238 199 103 q 63 550 63 374 l 64 592 l 254 619 l 253 569 q 256 504 253 546 q 288 496 268 496 q 326 521 308 496 q 344 593 344 546 q 286 763 344 676 l -28 763 l -28 940 l 1300 940 l 1300 763 m 956 763 l 508 763 q 565 571 565 676 q 533 431 565 488 q 451 346 501 374 q 349 318 401 318 q 297 326 319 318 q 415 181 339 228 q 579 135 490 135 q 774 168 676 135 q 956 267 871 201 l 956 294 q 895 262 926 272 q 825 251 864 251 q 703 282 756 251 q 621 360 650 313 q 592 461 592 408 q 624 582 592 529 q 709 665 656 635 q 824 694 763 694 q 956 644 901 694 l 956 763 m 956 471 q 860 536 914 536 q 810 518 829 536 q 792 472 792 500 q 810 426 792 443 q 858 410 828 410 q 956 471 911 410 m 81 -167 q 122 -69 81 -110 q 219 -28 163 -28 q 317 -69 276 -28 q 358 -167 358 -110 q 317 -265 358 -224 q 219 -306 276 -306 q 122 -265 163 -306 q 81 -167 81 -224 z "},"ग़":{"ha":969,"x_min":-28,"x_max":969,"o":"m 0 0 m 969 763 l 846 763 l 846 0 l 626 0 l 626 763 l 424 763 l 424 375 q 382 235 424 283 q 261 188 340 188 q 165 216 210 188 q 93 294 119 244 q 67 403 67 343 q 79 485 67 442 l 204 485 l 204 763 l -28 763 l -28 940 l 969 940 l 969 763 m 81 -35 q 122 63 81 22 q 219 104 163 104 q 317 63 276 104 q 358 -35 358 22 q 317 -133 358 -92 q 219 -174 276 -174 q 122 -133 163 -174 q 81 -35 81 -92 z "},"ज़":{"ha":1124,"x_min":-28,"x_max":1124,"o":"m 0 0 m 1124 763 l 1000 763 l 1000 0 l 779 0 l 779 471 l 626 471 q 721 279 721 379 q 688 161 721 213 q 601 82 656 110 q 485 54 547 54 q 188 188 296 54 q 19 581 79 322 l 192 628 q 271 400 226 489 q 358 272 315 311 q 435 232 401 232 q 500 307 500 232 q 461 410 500 357 q 350 528 422 463 l 403 649 l 779 649 l 779 763 l -28 763 l -28 940 l 1124 940 l 1124 763 m 118 -133 q 159 -35 118 -76 q 257 6 200 6 q 355 -35 314 6 q 396 -133 396 -76 q 355 -231 396 -190 q 257 -272 314 -272 q 159 -231 200 -272 q 118 -133 118 -190 z "},"ड़":{"ha":875,"x_min":-28,"x_max":875,"o":"m 0 0 m 382 511 q 326 474 326 511 q 351 444 326 454 q 431 435 376 435 q 567 443 490 435 q 701 465 644 451 q 795 367 756 431 q 835 238 835 304 q 744 49 835 118 q 490 -21 654 -21 q 246 24 360 -21 q 44 147 132 68 l 131 289 q 472 157 296 157 q 579 177 544 157 q 614 224 614 197 q 599 272 614 249 q 433 256 513 256 q 251 285 325 256 q 142 366 178 315 q 106 478 106 417 q 134 584 106 536 q 217 660 163 632 q 347 689 271 689 l 508 689 l 508 763 l -28 763 l -28 940 l 875 940 l 875 763 l 728 763 l 728 511 l 382 511 m 344 -215 q 385 -117 344 -158 q 483 -76 426 -76 q 581 -117 540 -76 q 622 -215 622 -158 q 581 -313 622 -272 q 483 -354 540 -354 q 385 -313 426 -354 q 344 -215 344 -272 z "},"ढ़":{"ha":882,"x_min":-28,"x_max":882,"o":"m 0 0 m 449 504 q 329 464 368 504 q 290 351 290 424 q 312 237 290 289 q 369 151 333 185 q 354 225 354 186 q 384 320 354 278 q 463 385 414 363 q 568 408 511 408 q 689 379 633 408 q 777 299 744 350 q 810 183 810 247 q 768 44 810 103 q 661 -43 726 -14 q 528 -72 596 -72 q 304 -17 410 -72 q 134 139 199 39 q 69 364 69 239 q 155 594 69 506 q 408 682 240 682 l 481 682 l 481 763 l -28 763 l -28 940 l 882 940 l 882 763 l 700 763 l 700 504 l 449 504 m 582 243 q 547 226 560 243 q 533 183 533 210 q 551 108 533 143 q 610 140 589 118 q 631 189 631 161 q 617 228 631 213 q 582 243 603 243 m 350 -278 q 391 -180 350 -221 q 489 -139 432 -139 q 587 -180 546 -139 q 628 -278 628 -221 q 587 -376 628 -335 q 489 -417 546 -417 q 391 -376 432 -417 q 350 -278 350 -335 z "},"फ़":{"ha":1242,"x_min":-28,"x_max":1242,"o":"m 0 0 m 746 571 q 932 636 842 636 q 1079 599 1017 636 q 1175 504 1142 563 q 1208 383 1208 446 q 1074 22 1208 203 l 864 138 q 954 279 921 217 q 988 392 988 342 q 969 440 988 422 q 919 457 951 457 q 746 374 854 457 l 746 0 l 525 0 l 525 238 q 374 199 451 199 q 163 270 235 199 q 90 486 90 342 l 90 763 l -28 763 l -28 940 l 1242 940 l 1242 763 l 746 763 l 746 571 m 392 378 q 525 419 464 378 l 525 763 l 311 763 l 311 478 q 392 378 311 378 m 74 10 q 115 108 74 67 q 213 149 156 149 q 310 108 269 149 q 351 10 351 67 q 310 -88 351 -47 q 213 -129 269 -129 q 115 -88 156 -129 q 74 10 74 -47 z "},"य़":{"ha":933,"x_min":-37,"x_max":933,"o":"m 0 0 m 933 763 l 810 763 l 810 0 l 589 0 l 589 193 q 493 149 546 164 q 383 133 440 133 q 138 228 239 133 q 7 494 36 324 q 174 561 124 528 q 224 639 224 594 q 160 763 224 707 l -28 763 l -28 940 l 933 940 l 933 763 m 589 763 l 393 763 q 439 636 439 706 q 391 500 439 565 q 250 389 343 435 q 383 313 297 313 q 491 336 438 313 q 589 404 544 360 l 589 763 m -37 -21 q 3 77 -37 36 q 101 118 44 118 q 199 77 158 118 q 240 -21 240 36 q 199 -119 240 -78 q 101 -160 158 -160 q 3 -119 44 -160 q -37 -21 -37 -78 z "},"ॹ":{"ha":1124,"x_min":-28,"x_max":1124,"o":"m 1124 763 l 1000 763 l 1000 0 l 779 0 l 779 471 l 626 471 q 721 279 721 379 q 688 161 721 213 q 601 82 656 110 q 485 54 547 54 q 188 188 296 54 q 19 581 79 322 l 192 628 q 271 400 226 489 q 358 272 315 311 q 435 232 401 232 q 500 307 500 232 q 461 410 500 357 q 350 528 422 463 l 403 649 l 779 649 l 779 763 l -28 763 l -28 940 l 1124 940 l 1124 763 m 393 -85 q 352 -183 393 -142 q 254 -224 311 -224 q 156 -183 197 -224 q 115 -85 115 -142 q 156 13 115 -28 q 254 54 197 54 q 352 13 311 54 q 393 -85 393 -28 m 629 54 q 727 13 686 54 q 768 -85 768 -28 q 727 -183 768 -142 q 629 -224 686 -224 q 531 -183 572 -224 q 490 -85 490 -142 q 531 13 490 -28 q 629 54 572 54 m 442 -215 q 540 -256 499 -215 q 581 -354 581 -297 q 540 -452 581 -411 q 442 -493 499 -493 q 344 -452 385 -493 q 303 -354 303 -411 q 344 -256 303 -297 q 442 -215 385 -215 z "},"ॺ":{"ha":933,"x_min":-28,"x_max":933,"o":"m 933 763 l 810 763 l 810 0 l 589 0 l 589 193 q 493 149 546 164 q 383 133 440 133 q 138 228 239 133 q 7 494 36 324 q 174 561 124 528 q 224 639 224 594 q 160 763 224 707 l -28 763 l -28 940 l 933 940 l 933 763 m 589 763 l 394 763 l 589 468 l 589 763 m 250 389 q 383 313 297 313 q 544 367 468 313 l 421 551 q 358 463 401 504 q 250 389 315 421 z "},"ॻ":{"ha":969,"x_min":-28,"x_max":969,"o":"m 969 763 l 846 763 l 846 -140 l 125 -140 l 125 38 l 626 38 l 626 763 l 424 763 l 424 375 q 382 235 424 283 q 261 188 340 188 q 165 216 210 188 q 93 294 119 244 q 67 403 67 343 q 79 485 67 442 l 204 485 l 204 763 l -28 763 l -28 940 l 969 940 l 969 763 z "},"ॼ":{"ha":1124,"x_min":-28,"x_max":1124,"o":"m 1124 763 l 1000 763 l 1000 -176 l 56 -176 l 56 1 l 779 1 l 779 471 l 626 471 q 721 279 721 379 q 688 161 721 213 q 601 82 656 110 q 485 54 547 54 q 188 188 296 54 q 19 581 79 322 l 192 628 q 271 400 226 489 q 358 272 315 311 q 435 232 401 232 q 500 307 500 232 q 461 410 500 357 q 350 528 422 463 l 403 649 l 779 649 l 779 763 l -28 763 l -28 940 l 1124 940 l 1124 763 z "},"ॾ":{"ha":875,"x_min":-28,"x_max":875,"o":"m 382 511 q 326 474 326 511 q 351 444 326 454 q 431 435 376 435 q 567 443 490 435 q 701 465 644 451 q 795 367 756 431 q 835 238 835 304 q 744 49 835 118 q 490 -21 654 -21 q 246 24 360 -21 q 44 147 132 68 l 131 289 q 472 157 296 157 q 579 177 544 157 q 614 224 614 197 q 599 272 614 249 q 433 256 513 256 q 251 285 325 256 q 142 366 178 315 q 106 478 106 417 q 134 584 106 536 q 217 660 163 632 q 347 689 271 689 l 508 689 l 508 763 l -28 763 l -28 940 l 875 940 l 875 763 l 728 763 l 728 511 l 382 511 m 74 -96 l 806 -96 l 806 -274 l 74 -274 l 74 -96 z "},"ॿ":{"ha":925,"x_min":-28,"x_max":925,"o":"m 925 763 l 801 763 l 801 -176 l 108 -176 l 108 1 l 581 1 l 581 181 q 351 100 465 100 q 181 139 253 100 q 72 244 110 178 q 35 392 35 310 q 72 544 35 475 q 183 655 110 614 q 357 696 257 696 q 481 672 422 696 q 581 610 539 647 l 581 763 l -28 763 l -28 940 l 925 940 l 925 763 m 503 331 q 581 401 547 364 l 581 403 q 381 517 488 517 l 503 331 m 256 394 q 284 312 256 344 q 364 279 313 279 q 431 292 397 279 l 300 490 q 256 394 256 457 z "},"⁄":{"ha":122,"x_min":-301,"x_max":431,"o":"m 431 894 l -125 -67 l -301 40 l 254 1001 l 431 894 z "},"½":{"ha":1667,"x_min":142,"x_max":1589,"o":"m 142 0 m 1236 894 l 681 -67 l 504 40 l 1060 1001 l 1236 894 m 603 535 l 603 378 l 154 378 l 154 535 l 272 535 l 272 803 l 171 803 l 142 944 l 485 944 l 485 535 l 603 535 m 1092 490 q 1199 551 1140 526 q 1321 576 1258 576 q 1465 549 1408 576 q 1547 480 1521 522 q 1574 392 1574 438 q 1538 285 1574 329 q 1425 188 1503 240 l 1379 158 l 1379 157 l 1589 157 l 1589 0 l 1122 0 l 1122 147 l 1256 238 q 1338 310 1314 279 q 1361 371 1361 342 q 1348 408 1361 394 q 1314 421 1335 421 q 1235 399 1278 421 q 1138 340 1193 378 l 1092 490 z "},"¼":{"ha":1632,"x_min":142,"x_max":1601,"o":"m 142 0 m 1236 894 l 681 -67 l 504 40 l 1060 1001 l 1236 894 m 603 535 l 603 378 l 154 378 l 154 535 l 272 535 l 272 803 l 171 803 l 142 944 l 485 944 l 485 535 l 603 535 m 1601 86 l 1515 86 l 1515 -15 l 1307 -15 l 1307 86 l 1014 86 l 1014 210 l 1286 567 l 1515 567 l 1515 243 l 1601 243 l 1601 86 m 1307 243 l 1307 314 l 1310 392 l 1308 392 l 1260 322 l 1206 243 l 1307 243 z "},"¾":{"ha":1558,"x_min":79,"x_max":1528,"o":"m 79 0 m 1163 894 l 607 -67 l 431 40 l 986 1001 l 1163 894 m 467 683 q 581 539 581 636 q 548 450 581 490 q 450 386 515 410 q 292 363 385 363 q 79 407 182 363 l 121 543 q 296 504 211 504 q 355 517 335 504 q 375 553 375 531 q 360 586 375 574 q 317 599 344 599 q 221 582 272 599 l 208 718 q 316 743 286 732 q 346 781 346 754 q 332 804 346 796 q 293 813 318 813 q 217 799 263 813 q 138 763 172 786 l 96 889 q 203 937 143 919 q 324 954 264 954 q 488 913 426 954 q 550 801 550 871 q 467 683 550 732 m 1528 86 l 1442 86 l 1442 -15 l 1233 -15 l 1233 86 l 940 86 l 940 210 l 1213 567 l 1442 567 l 1442 243 l 1528 243 l 1528 86 m 1233 243 l 1233 314 l 1236 392 l 1235 392 l 1186 322 l 1132 243 l 1233 243 z "},"¹":{"ha":663,"x_min":142,"x_max":603,"o":"m 603 757 l 603 600 l 154 600 l 154 757 l 272 757 l 272 1025 l 171 1025 l 142 1167 l 485 1167 l 485 757 l 603 757 z "},"²":{"ha":663,"x_min":88,"x_max":585,"o":"m 88 1090 q 195 1151 136 1126 q 317 1176 254 1176 q 460 1149 404 1176 q 543 1080 517 1122 q 569 992 569 1038 q 534 885 569 929 q 421 788 499 840 l 375 758 l 375 757 l 585 757 l 585 600 l 118 600 l 118 747 l 251 838 q 333 910 310 879 q 357 971 357 942 q 344 1008 357 994 q 310 1021 331 1021 q 231 999 274 1021 q 133 940 189 978 l 88 1090 z "},"³":{"ha":663,"x_min":79,"x_max":581,"o":"m 467 906 q 581 761 581 858 q 548 672 581 713 q 450 608 515 632 q 292 585 385 585 q 79 629 182 585 l 121 765 q 296 726 211 726 q 355 740 335 726 q 375 775 375 753 q 360 808 375 796 q 317 821 344 821 q 221 804 272 821 l 208 940 q 316 965 286 954 q 346 1003 346 976 q 332 1026 346 1018 q 293 1035 318 1035 q 217 1022 263 1035 q 138 985 172 1008 l 96 1111 q 203 1159 143 1142 q 324 1176 264 1176 q 488 1135 426 1176 q 550 1024 550 1093 q 467 906 550 954 z "},"०":{"ha":876,"x_min":103,"x_max":774,"o":"m 438 96 q 251 139 326 96 q 140 255 176 182 q 103 419 103 328 q 140 584 103 511 q 251 700 176 657 q 438 743 326 743 q 624 700 549 743 q 736 583 699 657 q 774 419 774 510 q 736 256 774 329 q 624 139 699 182 q 438 96 549 96 m 438 275 q 522 316 490 275 q 553 419 553 357 q 522 523 553 482 q 438 564 490 564 q 354 524 385 564 q 324 419 324 483 q 354 315 324 356 q 438 275 385 275 z "},"१":{"ha":876,"x_min":114,"x_max":790,"o":"m 642 126 q 754 0 718 56 q 790 -107 790 -56 q 766 -212 790 -162 q 686 -318 742 -261 l 501 -226 q 540 -170 528 -194 q 553 -121 553 -146 q 533 -49 553 -83 q 460 35 513 -14 l 114 356 l 161 389 q 299 488 275 468 q 126 750 126 586 q 166 877 126 824 q 274 958 206 931 q 425 986 342 986 q 578 949 511 986 q 682 850 644 913 q 719 714 719 788 q 645 524 719 613 q 425 328 571 436 l 642 126 m 425 807 q 367 783 388 807 q 347 725 347 760 q 436 601 347 643 q 483 665 468 636 q 499 724 499 694 q 478 782 499 757 q 425 807 458 807 z "},"२":{"ha":876,"x_min":92,"x_max":756,"o":"m 756 622 q 694 415 756 504 q 531 289 633 326 l 753 14 l 544 -97 l 339 268 q 162 324 232 279 q 92 428 92 368 q 149 529 92 488 q 300 572 206 571 l 389 464 q 494 528 454 479 q 535 640 535 576 q 495 742 535 701 q 378 782 456 782 q 291 761 339 782 q 188 707 243 740 l 92 878 q 234 939 167 917 q 378 961 301 961 q 565 922 479 961 q 703 806 651 883 q 756 622 756 729 z "},"३":{"ha":876,"x_min":32,"x_max":793,"o":"m 793 304 q 717 115 793 194 q 511 4 640 36 l 654 -204 l 456 -308 l 329 -12 q 176 40 238 -7 q 115 149 115 86 q 172 240 115 203 q 324 279 229 278 l 399 169 q 524 224 476 182 q 572 322 572 265 q 543 407 572 374 q 457 440 514 440 q 250 374 371 440 l 161 539 q 422 619 293 613 q 431 682 431 647 q 400 756 431 731 q 318 782 369 782 q 226 763 269 782 q 128 707 183 743 l 32 878 q 174 939 107 917 q 318 961 242 961 q 482 925 406 961 q 605 819 558 889 q 651 650 651 749 q 640 571 651 608 q 752 464 711 532 q 793 304 793 396 z "},"४":{"ha":876,"x_min":14,"x_max":864,"o":"m 864 751 q 618 529 722 601 q 744 400 710 465 q 779 263 779 335 q 731 116 779 176 q 604 25 682 56 q 439 -6 526 -6 q 276 29 354 -6 q 148 126 197 64 q 99 263 99 188 q 132 407 99 343 q 254 535 165 471 q 136 626 193 576 q 14 751 79 676 l 143 910 l 239 813 q 344 707 301 747 q 429 639 386 667 q 563 742 494 681 q 735 910 631 804 l 864 751 m 439 174 q 522 201 485 174 q 558 263 558 228 q 533 340 558 306 q 439 418 507 374 q 347 341 374 376 q 319 263 319 306 q 355 199 319 224 q 439 174 390 174 z "},"५":{"ha":876,"x_min":90,"x_max":876,"o":"m 678 -112 l 561 160 q 396 135 483 135 q 231 173 300 135 q 126 276 161 211 q 90 421 90 342 q 268 943 90 621 l 490 853 q 467 813 469 818 q 350 600 389 688 q 311 421 311 513 q 334 341 311 369 q 396 313 357 313 q 447 318 426 313 q 486 338 467 324 l 442 440 q 514 503 472 478 q 608 529 556 529 q 719 486 676 529 q 763 369 763 443 q 748 306 763 339 q 706 246 733 274 l 876 -8 l 678 -112 z "},"६":{"ha":876,"x_min":25,"x_max":907,"o":"m 708 -261 l 592 13 q 435 -14 519 -14 q 263 24 335 -14 q 153 128 190 63 q 115 272 115 193 q 185 449 115 371 q 66 569 107 503 q 25 708 25 636 q 60 833 25 775 q 159 926 96 892 q 304 961 222 961 q 417 948 374 961 q 503 913 461 935 l 449 747 q 346 782 394 782 q 273 756 300 782 q 246 682 246 729 q 268 618 246 650 q 338 558 290 586 q 571 608 450 608 l 593 429 q 558 431 582 431 q 399 383 463 431 q 336 263 336 335 q 363 190 336 215 q 435 164 389 164 q 481 169 461 164 q 517 186 500 174 l 472 292 q 545 345 503 324 q 639 367 588 367 q 740 327 701 367 q 779 221 779 288 q 731 104 779 160 l 907 -157 l 708 -261 z "},"७":{"ha":876,"x_min":8,"x_max":868,"o":"m 567 913 q 725 856 657 913 q 831 696 793 799 q 868 461 868 593 q 827 226 868 328 q 706 68 786 125 q 514 11 626 11 q 260 103 364 11 q 92 393 156 194 q 8 911 29 592 l 186 940 q 514 189 249 189 q 592 228 561 189 q 636 338 622 268 q 615 336 629 336 q 441 376 513 336 q 335 483 369 415 q 300 631 300 550 q 332 770 300 706 q 425 874 364 835 q 567 913 486 913 m 610 514 q 646 518 626 514 q 619 677 640 619 q 567 735 599 735 q 534 705 547 735 q 521 631 521 675 q 542 546 521 578 q 610 514 564 514 z "},"८":{"ha":876,"x_min":71,"x_max":847,"o":"m 444 -62 q 244 -21 329 -62 q 115 92 160 21 q 71 249 71 163 q 111 432 71 346 q 251 637 151 518 q 561 968 351 756 l 721 819 q 438 524 529 631 q 319 360 346 417 q 292 249 292 303 q 331 153 292 189 q 444 117 371 117 q 581 153 511 117 q 726 253 651 189 l 847 68 q 655 -31 751 0 q 444 -62 558 -62 z "},"९":{"ha":876,"x_min":14,"x_max":935,"o":"m 786 126 q 899 0 863 56 q 935 -107 935 -56 q 910 -212 935 -162 q 831 -318 886 -261 l 646 -226 q 685 -170 672 -194 q 697 -121 697 -146 q 677 -49 697 -83 q 604 35 657 -14 l 247 365 q 113 500 161 444 q 39 615 64 556 q 14 746 14 674 q 49 862 14 807 q 150 951 83 917 q 308 986 217 986 q 467 950 401 986 q 567 853 533 914 q 600 718 600 792 q 553 581 600 646 q 408 476 506 515 l 429 457 l 786 126 m 308 807 q 255 783 275 807 q 235 728 235 760 q 274 619 235 672 q 358 667 336 639 q 379 735 379 696 q 362 787 379 767 q 308 807 344 807 z "},"*":{"ha":767,"x_min":50,"x_max":717,"o":"m 468 596 l 660 433 l 476 307 l 383 519 l 290 307 l 107 433 l 299 596 l 50 622 l 115 824 l 322 707 l 276 944 l 490 944 l 447 714 l 650 824 l 717 622 l 468 596 z "},"\\":{"ha":625,"x_min":-10,"x_max":635,"o":"m -10 983 l 236 983 l 635 -328 l 390 -328 l -10 983 z "},"·":{"ha":486,"x_min":97,"x_max":389,"o":"m 243 263 q 140 306 183 263 q 97 408 97 349 q 140 512 97 469 q 243 554 183 554 q 347 512 304 554 q 389 408 389 469 q 347 306 389 349 q 243 263 304 263 z "},"•":{"ha":819,"x_min":189,"x_max":631,"o":"m 410 179 q 299 209 350 179 q 219 290 249 239 q 189 400 189 340 q 219 510 189 460 q 299 591 249 561 q 410 621 350 621 q 520 591 469 621 q 601 510 571 561 q 631 400 631 460 q 601 290 631 340 q 520 209 571 239 q 410 179 469 179 z "},":":{"ha":488,"x_min":97,"x_max":389,"o":"m 243 514 q 140 557 183 514 q 97 660 97 600 q 140 763 97 721 q 243 806 183 806 q 347 763 304 806 q 389 660 389 721 q 347 557 389 600 q 243 514 304 514 m 243 -8 q 140 35 183 -8 q 97 138 97 78 q 140 241 97 199 q 243 283 183 283 q 347 241 304 283 q 389 138 389 199 q 347 35 389 78 q 243 -8 304 -8 z "},",":{"ha":488,"x_min":60,"x_max":378,"o":"m 60 -162 q 140 35 140 -101 q 97 239 140 133 l 354 275 q 378 106 378 186 q 314 -112 378 -24 q 135 -261 250 -200 l 60 -162 z "},"…":{"ha":1463,"x_min":97,"x_max":1364,"o":"m 243 -8 q 140 35 183 -8 q 97 138 97 78 q 140 241 97 199 q 243 283 183 283 q 347 241 304 283 q 389 138 389 199 q 347 35 389 78 q 243 -8 304 -8 m 731 -8 q 628 35 671 -8 q 585 138 585 78 q 628 241 585 199 q 731 283 671 283 q 834 241 792 283 q 876 138 876 199 q 834 35 876 78 q 731 -8 792 -8 m 1218 -8 q 1115 35 1158 -8 q 1072 138 1072 78 q 1115 241 1072 199 q 1218 283 1158 283 q 1322 241 1279 283 q 1364 138 1364 199 q 1322 35 1364 78 q 1218 -8 1279 -8 z "},"!":{"ha":486,"x_min":97,"x_max":389,"o":"m 108 944 l 364 944 l 350 325 l 136 325 l 108 944 m 243 -8 q 140 35 183 -8 q 97 138 97 78 q 140 241 97 199 q 243 283 183 283 q 347 241 304 283 q 389 138 389 199 q 347 35 389 78 q 243 -8 304 -8 z "},"¡":{"ha":486,"x_min":97,"x_max":389,"o":"m 97 0 m 378 -147 l 122 -147 l 136 472 l 350 472 l 378 -147 m 243 806 q 346 763 303 806 q 389 660 389 719 q 346 556 389 599 q 243 514 303 514 q 140 556 182 514 q 97 660 97 599 q 140 763 97 719 q 243 806 182 806 z "},"#":{"ha":1143,"x_min":31,"x_max":1113,"o":"m 919 557 l 868 388 l 1007 388 l 953 211 l 814 211 l 749 0 l 521 0 l 586 211 l 397 211 l 332 0 l 104 0 l 169 211 l 31 211 l 85 388 l 224 388 l 275 557 l 138 557 l 192 733 l 329 733 l 394 944 l 622 944 l 557 733 l 746 733 l 811 944 l 1039 944 l 974 733 l 1113 733 l 1058 557 l 919 557 m 692 557 l 503 557 l 451 388 l 640 388 l 692 557 z "},".":{"ha":488,"x_min":97,"x_max":389,"o":"m 243 -8 q 140 35 183 -8 q 97 138 97 78 q 140 241 97 199 q 243 283 183 283 q 347 241 304 283 q 389 138 389 199 q 347 35 389 78 q 243 -8 304 -8 z "},"?":{"ha":749,"x_min":97,"x_max":658,"o":"m 179 588 q 313 613 267 601 q 384 642 360 624 q 408 689 408 660 q 97 767 408 767 l 97 946 q 526 874 394 946 q 658 688 658 801 q 585 532 658 596 q 376 422 513 468 l 368 325 l 193 325 l 179 588 m 282 -8 q 179 35 222 -8 q 136 138 136 78 q 179 241 136 199 q 282 283 222 283 q 385 241 343 283 q 428 138 428 199 q 385 35 428 78 q 282 -8 343 -8 z "},"¿":{"ha":749,"x_min":90,"x_max":651,"o":"m 90 0 m 569 210 q 435 185 482 196 q 365 156 389 174 q 340 108 340 138 q 651 31 340 31 l 651 -149 q 222 -76 354 -149 q 90 110 90 -4 q 163 265 90 201 q 372 375 236 329 l 381 472 l 556 472 l 569 210 m 467 806 q 569 763 526 806 q 613 660 613 719 q 569 556 613 599 q 467 514 526 514 q 363 556 406 514 q 321 660 321 599 q 363 763 321 719 q 467 806 406 806 z "},"\"":{"ha":889,"x_min":128,"x_max":761,"o":"m 128 533 m 128 1069 l 383 1069 l 347 533 l 164 533 l 128 1069 m 506 1069 l 761 1069 l 725 533 l 542 533 l 506 1069 z "},"'":{"ha":511,"x_min":128,"x_max":383,"o":"m 128 1069 l 383 1069 l 347 533 l 164 533 l 128 1069 z "},";":{"ha":488,"x_min":60,"x_max":389,"o":"m 243 514 q 140 557 183 514 q 97 660 97 600 q 140 763 97 721 q 243 806 183 806 q 347 763 304 806 q 389 660 389 721 q 347 557 389 600 q 243 514 304 514 m 60 -162 q 140 35 140 -101 q 97 239 140 133 l 354 275 q 378 106 378 186 q 314 -112 378 -24 q 135 -261 250 -200 l 60 -162 z "},"/":{"ha":625,"x_min":-10,"x_max":635,"o":"m 389 983 l 635 983 l 235 -328 l -10 -328 l 389 983 z "},"_":{"ha":694,"x_min":0,"x_max":694,"o":"m 0 -214 l 694 -214 l 694 -385 l 0 -385 l 0 -214 z "},"{":{"ha":567,"x_min":18,"x_max":514,"o":"m 514 -181 q 245 -126 353 -181 q 138 44 138 -71 q 150 124 138 74 q 164 213 164 179 q 128 288 164 263 q 18 322 93 314 l 18 478 q 127 510 92 485 q 163 586 163 536 q 149 676 163 618 q 136 756 136 724 q 244 926 136 871 q 514 979 353 981 l 514 825 q 375 742 375 826 q 389 636 375 697 q 401 556 401 592 q 374 458 401 499 q 294 401 346 418 l 294 399 q 374 342 347 382 q 401 243 401 303 q 389 163 401 207 q 375 58 375 104 q 514 -25 375 -25 l 514 -181 z "},"}":{"ha":567,"x_min":53,"x_max":549,"o":"m 53 -25 q 192 58 192 -25 q 178 163 192 104 q 165 243 165 207 q 192 342 165 303 q 272 399 219 382 l 272 401 q 193 458 221 418 q 165 556 165 499 q 178 636 165 592 q 192 742 192 697 q 53 825 192 826 l 53 979 q 322 926 214 981 q 431 756 431 871 q 418 676 431 724 q 404 586 404 618 q 440 510 404 536 q 549 478 475 485 l 549 322 q 438 288 474 314 q 403 213 403 263 q 417 124 403 179 q 429 44 429 74 q 322 -126 429 -71 q 53 -181 214 -181 l 53 -25 z "},"[":{"ha":567,"x_min":100,"x_max":467,"o":"m 100 965 l 467 965 l 467 800 l 342 786 l 342 3 l 467 -11 l 467 -176 l 100 -176 l 100 965 z "},"]":{"ha":567,"x_min":100,"x_max":467,"o":"m 100 -11 l 225 3 l 225 786 l 100 800 l 100 965 l 467 965 l 467 -176 l 100 -176 l 100 -11 z "},"(":{"ha":500,"x_min":76,"x_max":456,"o":"m 314 -175 q 143 76 210 -75 q 76 408 76 226 q 143 741 76 590 q 314 992 210 892 l 456 875 q 360 670 400 797 q 321 408 321 543 q 360 146 321 269 q 454 -60 399 22 l 314 -175 z "},")":{"ha":500,"x_min":44,"x_max":424,"o":"m 44 -58 q 140 147 100 19 q 179 408 179 274 q 140 671 179 547 q 46 876 101 794 l 186 992 q 357 741 290 892 q 424 408 424 590 q 357 76 424 226 q 186 -175 290 -75 l 44 -58 z "},"—":{"ha":1389,"x_min":174,"x_max":1215,"o":"m 174 490 l 1215 490 l 1215 319 l 174 319 l 174 490 z "},"–":{"ha":694,"x_min":0,"x_max":694,"o":"m 0 490 l 694 490 l 694 319 l 0 319 l 0 490 z "},"-":{"ha":417,"x_min":28,"x_max":389,"o":"m 28 490 l 389 490 l 389 319 l 28 319 l 28 490 z "},"­":{"ha":833,"x_min":28,"x_max":389,"o":"m 28 319 m 28 490 l 389 490 l 389 319 l 28 319 l 28 490 z "},"«":{"ha":897,"x_min":69,"x_max":831,"o":"m 69 67 m 69 360 l 276 653 l 449 532 l 326 360 l 449 188 l 276 67 l 69 360 m 451 360 l 658 653 l 831 532 l 708 360 l 831 188 l 658 67 l 451 360 z "},"»":{"ha":897,"x_min":67,"x_max":828,"o":"m 67 67 m 67 188 l 189 360 l 67 532 l 239 653 l 446 360 l 239 67 l 67 188 m 449 188 l 571 360 l 449 532 l 621 653 l 828 360 l 621 67 l 449 188 z "},"‹":{"ha":515,"x_min":69,"x_max":449,"o":"m 69 360 l 276 653 l 449 532 l 326 360 l 449 188 l 276 67 l 69 360 z "},"›":{"ha":515,"x_min":67,"x_max":446,"o":"m 67 188 l 189 360 l 67 532 l 239 653 l 446 360 l 239 67 l 67 188 z "},"„":{"ha":903,"x_min":60,"x_max":793,"o":"m 60 0 m 60 -162 q 140 35 140 -101 q 97 239 140 133 l 354 275 q 378 106 378 186 q 314 -112 378 -24 q 135 -261 250 -200 l 60 -162 m 475 -162 q 556 35 556 -101 q 513 239 556 133 l 769 275 q 793 106 793 186 q 729 -112 793 -24 q 550 -261 665 -200 l 475 -162 z "},"“":{"ha":903,"x_min":110,"x_max":843,"o":"m 110 524 m 133 524 q 110 693 110 613 q 174 910 110 822 q 353 1060 238 999 l 428 961 q 347 764 347 900 q 390 560 347 665 l 133 524 m 549 524 q 525 693 525 613 q 589 910 525 822 q 768 1060 653 999 l 843 961 q 763 764 763 900 q 806 560 763 665 l 549 524 z "},"”":{"ha":903,"x_min":60,"x_max":793,"o":"m 60 524 m 60 622 q 140 819 140 683 q 97 1024 140 918 l 354 1060 q 378 890 378 971 q 314 673 378 761 q 135 524 250 585 l 60 622 m 475 622 q 556 819 556 683 q 513 1024 556 918 l 769 1060 q 793 890 793 971 q 729 673 793 761 q 550 524 665 585 l 475 622 z "},"‘":{"ha":488,"x_min":110,"x_max":428,"o":"m 133 524 q 110 693 110 613 q 174 910 110 822 q 353 1060 238 999 l 428 961 q 347 764 347 900 q 390 560 347 665 l 133 524 z "},"’":{"ha":488,"x_min":60,"x_max":378,"o":"m 60 622 q 140 819 140 683 q 97 1024 140 918 l 354 1060 q 378 890 378 971 q 314 673 378 761 q 135 524 250 585 l 60 622 z "},"‚":{"ha":488,"x_min":60,"x_max":378,"o":"m 60 0 m 60 -162 q 140 35 140 -101 q 97 239 140 133 l 354 275 q 378 106 378 186 q 314 -112 378 -24 q 135 -261 250 -200 l 60 -162 z "},"ॽ":{"ha":879,"x_min":139,"x_max":757,"o":"m 757 622 q 697 438 757 515 q 514 331 638 361 l 514 0 l 293 0 l 293 490 q 453 522 400 500 q 521 574 506 543 q 536 654 536 604 q 510 746 536 710 q 435 782 485 782 q 231 676 361 782 l 139 843 q 281 929 211 897 q 424 961 351 961 q 588 922 511 961 q 710 806 664 883 q 757 622 757 729 z "},"।":{"ha":593,"x_min":249,"x_max":469,"o":"m 249 940 l 469 940 l 469 0 l 249 0 l 249 940 z "},"॥":{"ha":963,"x_min":249,"x_max":839,"o":"m 249 940 l 469 940 l 469 0 l 249 0 l 249 940 m 618 940 l 839 940 l 839 0 l 618 0 l 618 940 z "},"॰":{"ha":796,"x_min":106,"x_max":686,"o":"m 396 96 q 240 133 306 96 q 140 235 174 171 q 106 378 106 299 q 140 522 106 457 q 240 623 174 586 q 396 660 306 660 q 552 623 486 660 q 652 522 618 586 q 686 378 686 457 q 652 235 686 299 q 552 133 618 171 q 396 96 486 96 m 396 275 q 447 302 429 275 q 465 378 465 329 q 447 453 465 426 q 396 481 429 481 q 344 453 363 481 q 326 378 326 426 q 344 302 326 329 q 396 275 363 275 z "},"ॱ":{"ha":535,"x_min":118,"x_max":396,"o":"m 118 713 m 118 851 q 159 949 118 908 q 257 990 200 990 q 355 949 314 990 q 396 851 396 908 q 355 753 396 794 q 257 713 314 713 q 159 753 200 713 q 118 851 118 794 z "}," ":{"ha":833,"x_min":0,"x_max":0,"o":""}," ":{"ha":833,"x_min":0,"x_max":0,"o":""}," ":{"ha":833,"x_min":0,"x_max":0,"o":""}," ":{"ha":833,"x_min":0,"x_max":0,"o":""}," ":{"ha":833,"x_min":0,"x_max":0,"o":""}," ":{"ha":833,"x_min":0,"x_max":0,"o":""}," ":{"ha":833,"x_min":0,"x_max":0,"o":""}," ":{"ha":833,"x_min":0,"x_max":0,"o":""}," ":{"ha":833,"x_min":0,"x_max":0,"o":""}," ":{"ha":347,"x_min":0,"x_max":0,"o":""}," ":{"ha":833,"x_min":0,"x_max":0,"o":""}," ":{"ha":833,"x_min":0,"x_max":0,"o":""},"‍":{"ha":833,"x_min":0,"x_max":0,"o":""},"‌":{"ha":833,"x_min":0,"x_max":0,"o":""},"":{"ha":833,"x_min":0,"x_max":0,"o":""},"¢":{"ha":922,"x_min":63,"x_max":888,"o":"m 888 213 q 780 128 843 165 q 644 74 717 92 l 644 -171 l 432 -171 l 432 67 q 156 199 249 90 q 63 469 63 308 q 154 725 63 618 q 432 860 246 832 l 432 1111 l 644 1111 l 644 857 q 760 816 704 843 q 856 754 817 789 l 810 588 q 554 694 671 694 q 372 638 436 694 q 307 471 307 581 q 366 294 307 354 q 533 233 425 233 q 676 267 611 233 q 822 365 742 300 l 888 213 z "},"¤":{"ha":922,"x_min":86,"x_max":836,"o":"m 758 400 q 733 272 758 331 l 836 169 l 686 19 l 582 124 q 461 101 526 101 q 340 124 399 101 l 236 19 l 86 169 l 190 274 q 165 397 165 331 q 188 518 165 458 l 86 619 l 236 769 l 335 671 q 461 696 396 696 q 588 671 533 696 l 686 769 l 836 619 l 735 518 q 758 400 758 463 m 351 399 q 382 308 351 344 q 461 272 413 272 q 542 308 511 272 q 572 399 572 344 q 541 488 572 451 q 461 525 510 525 q 382 488 413 525 q 351 399 351 451 z "},"$":{"ha":922,"x_min":89,"x_max":833,"o":"m 833 290 q 772 123 833 190 q 590 29 710 56 l 590 -171 l 378 -171 l 378 13 q 220 32 296 15 q 89 76 144 49 l 136 247 q 279 204 214 218 q 413 190 344 190 q 538 211 488 190 q 589 274 589 232 q 544 342 589 317 q 404 400 500 368 q 256 459 313 432 q 158 534 199 486 q 117 653 117 582 q 185 827 117 758 q 378 919 254 896 l 378 1111 l 590 1111 l 590 928 q 792 869 703 915 l 743 700 q 629 740 682 726 q 522 753 576 753 q 405 731 449 753 q 361 669 361 708 q 403 610 361 633 q 535 556 446 586 q 688 494 628 522 q 790 415 747 465 q 833 290 833 365 z "},"€":{"ha":922,"x_min":100,"x_max":824,"o":"m 824 36 q 600 -17 735 -17 q 360 63 453 -17 q 228 279 267 142 l 100 279 l 100 451 l 201 451 l 201 481 l 201 500 l 100 500 l 100 672 l 226 672 q 358 883 265 806 q 600 960 451 960 q 822 911 729 960 l 772 736 q 642 781 708 781 q 481 672 524 781 l 742 672 l 742 500 l 451 500 l 451 481 l 451 451 l 742 451 l 742 279 l 481 279 q 642 163 525 163 q 776 206 707 163 l 824 36 z "},"ƒ":{"ha":922,"x_min":161,"x_max":817,"o":"m 551 642 l 786 642 l 786 472 l 538 472 l 481 -240 l 240 -240 l 297 472 l 161 472 l 161 642 l 311 642 l 313 661 q 420 939 328 858 q 669 1019 513 1019 q 817 1001 740 1019 l 763 840 q 697 847 724 847 q 594 805 628 847 q 553 658 561 763 l 551 642 z "},"₹":{"ha":922,"x_min":153,"x_max":842,"o":"m 611 763 q 635 714 626 738 l 842 714 l 842 536 l 635 536 q 565 431 613 476 q 450 360 517 385 l 751 79 l 611 -65 l 218 314 l 221 424 q 393 536 353 457 l 153 536 l 153 714 l 394 714 q 364 763 386 735 l 153 763 l 153 940 l 842 940 l 842 763 l 611 763 z "},"£":{"ha":922,"x_min":103,"x_max":839,"o":"m 839 176 l 839 0 l 118 0 l 118 132 q 267 308 267 211 q 251 389 267 350 l 103 389 l 103 561 l 175 561 q 158 679 158 618 q 257 888 158 815 q 526 960 356 960 q 833 897 692 960 l 785 728 q 671 767 724 754 q 564 781 618 781 q 444 749 486 781 q 403 669 403 717 q 426 561 403 615 l 714 561 l 714 389 l 501 389 q 510 308 510 354 q 497 242 510 274 q 457 176 483 211 l 839 176 z "},"¥":{"ha":922,"x_min":57,"x_max":871,"o":"m 633 603 l 813 603 l 813 431 l 583 431 l 583 382 l 813 382 l 813 210 l 583 210 l 583 0 l 340 0 l 340 210 l 107 210 l 107 382 l 340 382 l 340 431 l 107 431 l 107 603 l 292 603 l 57 944 l 313 944 l 464 696 l 617 944 l 871 944 l 633 603 z "},"≈":{"ha":922,"x_min":57,"x_max":865,"o":"m 57 474 q 178 600 114 551 q 331 649 242 649 q 406 635 372 649 q 479 596 439 621 q 541 563 517 574 q 594 553 565 553 q 756 653 685 553 l 865 546 q 744 422 806 468 q 594 375 682 375 q 528 388 557 375 q 453 425 499 400 q 388 460 415 449 q 331 471 361 471 q 241 442 281 471 q 167 367 201 414 l 57 474 m 57 190 q 178 317 114 268 q 331 365 242 365 q 406 351 372 365 q 479 313 439 338 q 541 280 517 290 q 594 269 565 269 q 756 369 685 269 l 865 263 q 744 138 806 185 q 594 92 682 92 q 528 104 557 92 q 453 142 499 117 q 388 176 415 165 q 331 188 361 188 q 241 159 281 188 q 167 83 201 131 l 57 190 z "},"~":{"ha":922,"x_min":57,"x_max":865,"o":"m 57 349 q 178 475 114 426 q 331 524 242 524 q 406 510 372 524 q 479 471 439 496 q 541 438 517 449 q 594 428 565 428 q 756 528 685 428 l 865 421 q 744 297 806 343 q 594 250 682 250 q 528 263 557 250 q 453 300 499 275 q 388 335 415 324 q 331 346 361 346 q 241 317 281 346 q 167 242 201 289 l 57 349 z "},"÷":{"ha":922,"x_min":44,"x_max":878,"o":"m 461 565 q 358 608 401 565 q 315 711 315 651 q 358 815 315 772 q 461 857 401 857 q 565 815 522 857 q 607 711 607 772 q 565 608 607 651 q 461 565 522 565 m 44 510 l 878 510 l 878 339 l 44 339 l 44 510 m 461 -8 q 358 35 401 -8 q 315 138 315 78 q 358 241 315 199 q 461 283 401 283 q 565 241 522 283 q 607 138 607 199 q 565 35 607 78 q 461 -8 522 -8 z "},"=":{"ha":922,"x_min":44,"x_max":878,"o":"m 44 681 l 878 681 l 878 510 l 44 510 l 44 681 m 44 339 l 878 339 l 878 168 l 44 168 l 44 339 z "},">":{"ha":922,"x_min":44,"x_max":878,"o":"m 878 499 l 878 333 l 44 32 l 44 213 l 660 417 l 44 621 l 44 801 l 878 499 z "},"≥":{"ha":922,"x_min":44,"x_max":878,"o":"m 878 582 l 878 417 l 44 199 l 44 371 l 669 500 l 44 629 l 44 801 l 878 582 m 44 163 l 878 163 l 878 0 l 44 0 l 44 163 z "},"∆":{"ha":982,"x_min":7,"x_max":975,"o":"m 975 0 l 7 0 l 369 957 l 611 957 l 975 0 m 663 176 l 489 703 l 317 176 l 663 176 z "},"∞":{"ha":922,"x_min":33,"x_max":889,"o":"m 649 611 q 822 551 756 611 q 889 372 889 490 q 819 193 889 254 q 647 132 750 132 q 453 228 525 132 q 372 154 413 176 q 269 132 332 132 q 99 192 164 132 q 33 371 33 253 q 101 550 33 489 q 271 611 169 611 q 450 511 386 611 q 538 588 492 564 q 649 611 583 611 m 269 301 q 313 322 292 301 q 360 382 335 342 l 367 393 q 271 442 318 442 q 224 424 243 442 q 204 371 204 407 q 223 319 204 336 q 269 301 242 301 m 647 301 q 698 319 678 301 q 718 372 718 336 q 699 425 718 408 q 649 442 681 442 q 601 424 622 442 q 546 364 581 407 l 542 357 q 647 301 590 301 z "},"∫":{"ha":922,"x_min":115,"x_max":807,"o":"m 265 -332 q 115 -321 207 -332 l 131 -151 q 224 -158 186 -158 q 311 -124 282 -158 q 340 -25 340 -90 l 340 817 q 419 1042 340 964 q 657 1121 497 1121 q 807 1110 715 1121 l 792 940 q 699 947 736 947 q 611 913 640 947 q 582 814 582 879 l 582 -28 q 503 -253 582 -175 q 265 -332 425 -332 z "},"<":{"ha":922,"x_min":44,"x_max":878,"o":"m 878 621 l 263 417 l 878 213 l 878 32 l 44 333 l 44 499 l 878 801 l 878 621 z "},"≤":{"ha":922,"x_min":44,"x_max":878,"o":"m 878 629 l 253 500 l 878 371 l 878 199 l 44 417 l 44 582 l 878 801 l 878 629 m 44 163 l 878 163 l 878 0 l 44 0 l 44 163 z "},"¬":{"ha":922,"x_min":44,"x_max":878,"o":"m 878 510 l 878 0 l 693 0 l 693 339 l 44 339 l 44 510 l 878 510 z "},"−":{"ha":922,"x_min":44,"x_max":878,"o":"m 44 510 l 878 510 l 878 339 l 44 339 l 44 510 z "},"×":{"ha":922,"x_min":103,"x_max":819,"o":"m 699 63 l 460 303 l 224 67 l 103 188 l 339 424 l 110 651 l 231 772 l 460 544 l 693 778 l 814 657 l 581 424 l 819 183 l 699 63 z "},"≠":{"ha":922,"x_min":44,"x_max":878,"o":"m 610 510 l 513 339 l 878 339 l 878 168 l 414 168 l 318 0 l 119 0 l 215 168 l 44 168 l 44 339 l 314 339 l 411 510 l 44 510 l 44 681 l 510 681 l 606 849 l 804 849 l 708 681 l 878 681 l 878 510 l 610 510 z "},"∂":{"ha":922,"x_min":74,"x_max":849,"o":"m 229 960 q 558 867 419 942 q 773 668 697 793 q 849 376 849 543 q 744 79 849 179 q 461 -21 639 -21 q 255 23 343 -21 q 120 140 167 67 q 74 299 74 213 q 115 450 74 378 q 237 567 157 522 q 424 611 317 611 q 556 588 489 611 q 429 716 513 674 q 197 789 346 758 l 229 960 m 461 156 q 562 205 525 156 q 599 347 599 254 l 599 379 q 451 435 532 435 q 358 392 392 435 q 324 285 324 349 q 359 192 324 229 q 461 156 394 156 z "},"%":{"ha":1593,"x_min":29,"x_max":1564,"o":"m 29 0 m 1163 894 l 607 -67 l 431 40 l 986 1001 l 1163 894 m 331 363 q 165 404 233 363 q 63 513 97 446 q 29 657 29 579 q 63 803 29 735 q 165 913 97 871 q 331 954 233 954 q 497 913 429 954 q 599 803 565 871 q 633 658 633 736 q 599 513 633 581 q 497 404 565 446 q 331 363 429 363 m 331 513 q 394 547 376 513 q 413 658 413 582 q 394 769 413 735 q 331 804 376 804 q 267 769 285 804 q 250 658 250 735 q 267 547 250 582 q 331 513 285 513 m 1261 -15 q 1096 26 1164 -15 q 994 135 1028 68 q 960 279 960 201 q 994 425 960 357 q 1096 535 1028 493 q 1261 576 1164 576 q 1428 535 1360 576 q 1530 426 1496 493 q 1564 281 1564 358 q 1530 135 1564 203 q 1428 26 1496 68 q 1261 -15 1360 -15 m 1261 135 q 1325 169 1307 135 q 1343 281 1343 204 q 1325 392 1343 357 q 1261 426 1307 426 q 1198 392 1215 426 q 1181 281 1181 357 q 1198 169 1181 204 q 1261 135 1215 135 z "},"‰":{"ha":2260,"x_min":29,"x_max":2231,"o":"m 29 0 m 1163 894 l 607 -67 l 431 40 l 986 1001 l 1163 894 m 331 363 q 165 404 233 363 q 63 513 97 446 q 29 657 29 579 q 63 803 29 735 q 165 913 97 871 q 331 954 233 954 q 497 913 429 954 q 599 803 565 871 q 633 658 633 736 q 599 513 633 581 q 497 404 565 446 q 331 363 429 363 m 331 513 q 394 547 376 513 q 413 658 413 582 q 394 769 413 735 q 331 804 376 804 q 267 769 285 804 q 250 658 250 735 q 267 547 250 582 q 331 513 285 513 m 1261 -15 q 1096 26 1164 -15 q 994 135 1028 68 q 960 279 960 201 q 994 425 960 357 q 1096 535 1028 493 q 1261 576 1164 576 q 1428 535 1360 576 q 1530 426 1496 493 q 1564 281 1564 358 q 1530 135 1564 203 q 1428 26 1496 68 q 1261 -15 1360 -15 m 1261 135 q 1325 169 1307 135 q 1343 281 1343 204 q 1325 392 1343 357 q 1261 426 1307 426 q 1198 392 1215 426 q 1181 281 1181 357 q 1198 169 1181 204 q 1261 135 1215 135 m 1928 -15 q 1763 26 1831 -15 q 1660 135 1694 68 q 1626 279 1626 201 q 1660 425 1626 357 q 1763 535 1694 493 q 1928 576 1831 576 q 2094 535 2026 576 q 2197 426 2163 493 q 2231 281 2231 358 q 2197 135 2231 203 q 2094 26 2163 68 q 1928 -15 2026 -15 m 1928 135 q 1992 169 1974 135 q 2010 281 2010 204 q 1992 392 2010 357 q 1928 426 1974 426 q 1865 392 1882 426 q 1847 281 1847 357 q 1865 169 1847 204 q 1928 135 1882 135 z "},"+":{"ha":922,"x_min":44,"x_max":878,"o":"m 878 339 l 554 339 l 554 0 l 369 0 l 369 339 l 44 339 l 44 510 l 369 510 l 369 833 l 554 833 l 554 510 l 878 510 l 878 339 z "},"±":{"ha":922,"x_min":44,"x_max":878,"o":"m 878 611 l 878 449 l 554 449 l 554 226 l 369 226 l 369 449 l 44 449 l 44 611 l 369 611 l 369 833 l 554 833 l 554 611 l 878 611 m 44 163 l 878 163 l 878 0 l 44 0 l 44 163 z "},"∏":{"ha":1138,"x_min":125,"x_max":1013,"o":"m 1013 -326 l 763 -326 l 763 768 l 375 768 l 375 -326 l 125 -326 l 125 944 l 1013 944 l 1013 -326 z "},"√":{"ha":922,"x_min":42,"x_max":882,"o":"m 882 944 l 596 0 l 353 0 l 190 426 l 42 426 l 42 603 l 357 603 l 461 233 l 629 944 l 882 944 z "},"∑":{"ha":985,"x_min":69,"x_max":943,"o":"m 69 -194 l 438 307 l 69 807 l 69 944 l 943 944 l 943 768 l 376 768 l 721 307 l 376 -156 l 943 -156 l 943 -332 l 69 -332 l 69 -194 z "},"◌":{"ha":1069,"x_min":129,"x_max":940,"o":"m 536 742 q 496 758 513 742 q 479 799 479 775 q 496 838 479 821 q 536 856 513 856 q 576 838 558 856 q 593 799 593 821 q 576 758 593 775 q 536 742 558 742 m 358 697 q 319 714 336 697 q 303 754 303 731 q 319 794 303 778 q 358 811 336 811 q 399 794 382 811 q 415 754 415 778 q 399 715 415 732 q 358 697 382 697 m 708 697 q 669 715 686 697 q 651 754 651 732 q 669 794 651 778 q 708 811 686 811 q 749 794 732 811 q 765 754 765 778 q 749 714 765 731 q 708 697 732 697 m 229 568 q 189 585 206 568 q 172 625 172 601 q 189 665 172 649 q 229 682 206 682 q 269 665 253 682 q 286 625 286 649 q 269 585 286 601 q 229 568 253 568 m 840 568 q 800 585 817 568 q 783 625 783 601 q 801 665 783 649 q 840 682 818 682 q 881 665 864 682 q 897 625 897 649 q 881 585 897 601 q 840 568 864 568 m 186 392 q 146 408 163 392 q 129 449 129 425 q 146 489 129 472 q 186 506 163 506 q 226 489 210 506 q 243 449 243 472 q 226 409 243 426 q 186 392 210 392 m 883 392 q 844 409 861 392 q 828 449 828 426 q 844 489 828 472 q 883 506 861 506 q 924 489 907 506 q 940 449 940 472 q 924 408 940 425 q 883 392 907 392 m 229 217 q 189 233 206 217 q 172 274 172 250 q 189 313 172 297 q 229 329 206 329 q 269 313 253 329 q 286 274 286 296 q 269 234 286 251 q 229 217 253 217 m 840 217 q 801 234 818 217 q 783 274 783 251 q 800 313 783 296 q 840 329 817 329 q 881 313 864 329 q 897 274 897 297 q 881 233 897 250 q 840 217 864 217 m 358 85 q 319 101 336 85 q 303 142 303 118 q 319 181 303 165 q 358 197 336 197 q 399 181 382 197 q 415 142 415 164 q 399 102 415 119 q 358 85 382 85 m 708 85 q 669 102 686 85 q 651 142 651 119 q 668 181 651 164 q 708 197 685 197 q 749 181 732 197 q 765 142 765 165 q 749 101 765 118 q 708 85 732 85 m 536 42 q 496 58 513 42 q 479 99 479 75 q 496 139 479 122 q 536 156 513 156 q 576 139 558 156 q 593 99 593 122 q 576 59 593 76 q 536 42 558 42 z "},"◊":{"ha":922,"x_min":82,"x_max":840,"o":"m 840 472 l 583 0 l 338 0 l 82 472 l 339 944 l 585 944 l 840 472 m 624 472 l 461 771 l 299 472 l 461 174 l 624 472 z "},"|":{"ha":556,"x_min":153,"x_max":403,"o":"m 153 1121 l 403 1121 l 403 -328 l 153 -328 l 153 1121 z "},"¦":{"ha":556,"x_min":153,"x_max":403,"o":"m 153 1121 l 403 1121 l 403 554 l 153 554 l 153 1121 m 153 239 l 403 239 l 403 -328 l 153 -328 l 153 239 z "},"@":{"ha":1329,"x_min":56,"x_max":1274,"o":"m 421 218 q 448 321 421 279 q 540 396 475 363 q 722 463 606 429 q 653 540 719 540 q 565 522 611 540 q 460 461 518 504 l 426 604 q 688 694 561 694 q 852 632 803 694 q 901 439 901 569 l 901 268 q 911 222 901 236 q 943 208 921 208 q 997 238 969 208 q 1042 326 1024 268 q 1061 463 1061 385 q 1022 624 1061 551 q 903 740 982 697 q 714 783 825 783 q 488 738 589 783 q 328 599 388 693 q 268 364 268 504 q 322 129 268 224 q 469 -10 376 35 q 678 -56 561 -56 q 958 13 836 -56 l 1024 -135 q 676 -225 867 -225 q 373 -162 514 -225 q 144 34 232 -99 q 56 365 56 167 q 149 695 56 563 q 392 890 243 828 q 713 953 542 953 q 1017 885 890 953 q 1209 706 1144 818 q 1274 461 1274 594 q 1220 241 1274 333 q 1084 101 1167 149 q 915 54 1001 54 q 753 129 804 54 q 668 73 711 93 q 576 53 625 53 q 465 99 508 53 q 421 218 421 146 m 722 331 q 625 281 650 303 q 600 240 600 260 q 610 216 600 225 q 640 207 621 207 q 722 240 676 207 l 722 331 z "},"&":{"ha":1026,"x_min":11,"x_max":1022,"o":"m 1022 8 q 883 -11 971 -11 q 759 8 817 -11 q 642 72 701 28 q 368 -17 511 -17 q 175 17 256 -17 q 53 113 94 51 q 11 253 11 174 q 61 417 11 344 q 207 536 111 490 q 147 622 165 586 q 129 704 129 658 q 162 833 129 775 q 262 925 194 890 q 426 960 329 960 q 585 929 519 960 q 685 847 651 899 q 718 736 718 796 q 672 596 718 656 q 528 483 625 536 l 651 349 q 742 588 707 449 l 974 567 q 908 381 954 474 q 794 208 861 288 q 914 168 854 168 q 982 176 951 168 l 1022 8 m 424 783 q 381 765 396 783 q 365 718 365 746 q 375 665 365 689 q 407 615 385 642 q 465 668 447 643 q 482 722 482 693 q 467 765 482 747 q 424 783 451 783 m 261 274 q 297 193 261 226 q 396 160 332 160 q 513 193 454 160 l 331 396 q 277 332 293 364 q 261 274 261 300 z "},"¶":{"ha":844,"x_min":42,"x_max":733,"o":"m 733 -28 q 655 -253 733 -175 q 417 -332 576 -332 q 267 -321 358 -332 l 282 -151 q 375 -158 338 -158 q 463 -124 433 -158 q 492 -25 492 -90 l 492 278 l 414 278 q 138 369 235 278 q 42 613 42 460 q 84 783 42 707 q 210 901 126 858 q 414 944 294 944 l 733 944 l 733 -28 z "},"©":{"ha":1136,"x_min":63,"x_max":1074,"o":"m 568 -17 q 303 49 418 -17 q 126 226 189 114 q 63 472 63 338 q 126 718 63 607 q 303 894 189 829 q 568 960 418 960 q 833 894 718 960 q 1010 718 947 829 q 1074 472 1074 607 q 1010 226 1074 338 q 833 49 947 114 q 568 -17 718 -17 m 568 124 q 746 169 671 124 q 860 295 821 215 q 900 472 900 375 q 860 649 900 569 q 746 775 821 729 q 568 821 671 821 q 390 775 465 821 q 276 649 315 729 q 236 472 236 569 q 276 295 236 375 q 390 169 315 215 q 568 124 465 124 m 586 211 q 441 247 500 211 q 353 343 382 283 q 324 474 324 403 q 354 603 324 543 q 445 698 385 663 q 592 733 506 733 q 743 700 679 733 l 708 576 q 615 597 657 597 q 526 562 558 597 q 494 474 494 526 q 524 383 494 418 q 610 349 554 349 q 699 369 650 349 l 743 246 q 672 221 714 231 q 586 211 629 211 z "},"®":{"ha":711,"x_min":46,"x_max":665,"o":"m 357 1022 q 513 983 442 1022 q 624 872 583 943 q 665 713 665 801 q 624 556 665 626 q 513 444 583 485 q 357 403 442 403 q 201 444 272 403 q 88 556 129 485 q 46 713 46 626 q 88 872 46 801 q 200 983 129 943 q 357 1022 271 1022 m 356 490 q 466 519 415 490 q 546 598 517 547 q 575 713 575 649 q 546 828 575 776 q 466 908 517 879 q 356 938 415 938 q 246 908 296 938 q 167 828 196 879 q 138 713 138 776 q 167 599 138 650 q 246 519 196 547 q 356 490 296 490 m 469 750 q 436 683 469 706 l 496 594 l 407 594 l 364 665 l 329 665 l 329 594 l 251 594 l 251 833 l 369 833 q 443 810 417 833 q 469 750 469 786 m 329 725 l 364 725 q 385 731 379 725 q 390 751 390 738 q 385 768 390 763 q 364 774 379 774 l 329 774 l 329 725 z "},"§":{"ha":833,"x_min":89,"x_max":764,"o":"m 669 204 q 742 47 742 146 q 647 -142 742 -75 q 369 -210 553 -210 q 219 -195 294 -210 q 89 -158 144 -181 l 135 8 q 367 -36 264 -36 q 503 31 503 -36 q 468 80 503 60 q 358 126 433 100 q 228 178 279 154 q 141 246 178 203 q 104 353 104 289 q 207 553 104 485 q 126 700 126 613 q 220 894 126 828 q 481 960 314 960 q 610 948 543 960 q 726 915 678 936 l 681 749 q 488 786 572 786 q 365 729 365 786 q 397 682 365 700 q 501 640 429 664 q 635 589 582 614 q 726 517 688 564 q 764 394 764 469 q 669 204 764 269 m 343 382 q 371 338 343 354 q 458 300 399 321 q 525 378 525 333 q 496 424 525 406 q 407 464 467 443 q 343 382 343 433 z "},"™":{"ha":1317,"x_min":56,"x_max":1150,"o":"m 472 861 l 350 861 l 350 453 l 179 453 l 179 861 l 56 861 l 56 972 l 472 972 l 472 861 m 1150 972 l 1150 453 l 979 453 l 979 582 l 989 761 l 903 615 l 803 615 l 717 761 l 726 582 l 726 453 l 556 453 l 556 972 l 735 972 l 853 779 l 971 972 l 1150 972 z "},"°":{"ha":729,"x_min":82,"x_max":647,"o":"m 364 469 q 214 507 278 469 q 116 607 150 544 q 82 743 82 669 q 116 880 82 817 q 214 981 150 943 q 364 1019 278 1019 q 515 981 451 1019 q 613 881 579 943 q 647 746 647 818 q 613 608 647 671 q 515 507 579 544 q 364 469 451 469 m 364 618 q 444 654 413 618 q 475 744 475 690 q 444 835 475 799 q 364 871 413 871 q 285 835 317 871 q 254 744 254 799 q 285 654 254 690 q 364 618 317 618 z "},"^":{"ha":922,"x_min":140,"x_max":782,"o":"m 554 194 l 461 410 l 368 194 l 140 194 l 356 597 l 567 597 l 782 194 l 554 194 z "},"†":{"ha":633,"x_min":32,"x_max":601,"o":"m 601 735 l 601 564 l 32 564 l 32 735 l 196 735 l 196 944 l 438 944 l 438 735 l 601 735 m 196 464 l 438 464 l 424 -210 l 210 -210 l 196 464 z "},"‡":{"ha":633,"x_min":32,"x_max":601,"o":"m 601 735 l 601 564 l 32 564 l 32 735 l 196 735 l 196 944 l 438 944 l 438 735 l 601 735 m 457 367 q 415 264 457 307 q 311 221 372 221 q 208 264 251 221 q 165 367 165 307 q 208 470 165 428 q 311 513 251 513 q 415 470 372 513 q 457 367 457 428 m 32 171 l 601 171 l 601 0 l 438 0 l 438 -210 l 196 -210 l 196 0 l 32 0 l 32 171 z "},"ऽ":{"ha":847,"x_min":53,"x_max":747,"o":"m 418 -19 q 213 37 303 -19 q 53 204 122 93 l 186 319 q 390 158 304 158 q 482 244 482 158 q 452 323 482 282 q 363 424 422 364 l 289 499 q 184 626 218 569 q 150 750 150 682 q 204 888 150 835 q 356 940 258 940 l 747 940 l 747 763 l 425 763 q 386 756 401 763 q 371 733 371 749 q 390 690 371 714 q 456 617 408 665 l 525 546 q 652 393 601 468 q 703 244 703 318 q 665 104 703 164 q 563 13 628 44 q 418 -19 499 -19 z "},"ॐ":{"ha":1597,"x_min":0,"x_max":1564,"o":"m 1026 1006 q 928 1047 969 1006 q 888 1144 888 1088 q 928 1242 888 1201 q 1026 1283 969 1283 q 1124 1242 1083 1283 q 1165 1144 1165 1201 q 1124 1047 1165 1088 q 1026 1006 1083 1006 m 1026 725 q 815 787 908 725 q 672 947 721 849 l 814 1044 q 1026 903 896 903 q 1239 1044 1157 903 l 1381 947 q 1236 785 1328 846 q 1026 725 1144 725 m 1261 721 q 1418 678 1349 721 q 1526 564 1488 635 q 1564 413 1564 493 q 1527 269 1564 333 q 1424 167 1490 204 q 1274 131 1358 131 q 1026 247 1128 131 q 944 167 988 196 q 846 139 900 139 q 728 179 792 139 q 624 47 703 97 q 429 -4 544 -4 q 187 69 292 -4 q 0 256 82 142 l 107 393 q 260 235 176 297 q 421 174 343 174 q 491 201 465 174 q 517 275 517 228 q 475 393 517 342 q 314 372 407 376 l 258 551 q 417 576 364 560 q 485 618 469 593 q 500 682 500 643 q 474 753 500 725 q 399 782 449 782 q 194 676 325 782 l 103 843 q 245 929 175 897 q 388 961 315 961 q 551 925 475 961 q 674 819 628 889 q 721 650 721 749 q 639 469 721 539 q 659 449 647 463 q 679 425 671 435 q 753 346 721 374 q 818 318 785 318 q 872 351 846 318 q 943 456 899 383 q 1034 590 993 538 q 1133 682 1075 643 q 1261 721 1190 721 m 1247 310 q 1317 342 1292 310 q 1343 426 1343 375 q 1320 508 1343 475 q 1261 542 1297 542 q 1192 503 1224 542 q 1113 385 1160 465 q 1247 310 1171 310 m 639 469 z "},"̦":{"ha":694,"x_min":-494,"x_max":-211,"o":"m -494 -261 q -387 -201 -387 -260 q -404 -167 -387 -181 q -457 -151 -421 -153 l -410 -37 q -258 -90 -306 -47 q -211 -192 -211 -132 q -278 -318 -211 -269 q -461 -368 -346 -367 l -494 -261 z "},"´":{"ha":694,"x_min":157,"x_max":551,"o":"m 292 1114 l 551 1114 l 343 819 l 157 819 l 292 1114 z "},"˘":{"ha":694,"x_min":83,"x_max":611,"o":"m 347 817 q 155 890 224 817 q 83 1111 86 964 l 246 1114 q 276 1011 249 1046 q 347 976 303 976 q 419 1011 392 976 q 449 1115 446 1046 l 611 1111 q 540 890 608 964 q 347 817 471 817 z "},"ˇ":{"ha":694,"x_min":68,"x_max":626,"o":"m 626 1111 l 467 819 l 228 819 l 68 1111 l 254 1111 l 347 961 l 440 1111 l 626 1111 z "},"¸":{"ha":694,"x_min":203,"x_max":506,"o":"m 382 -60 q 470 -99 435 -67 q 506 -178 506 -132 q 481 -253 506 -217 q 396 -315 456 -290 q 240 -340 336 -340 l 210 -233 q 304 -222 279 -233 q 329 -187 329 -210 q 317 -163 329 -172 q 283 -154 304 -154 q 246 -161 265 -154 l 203 -101 l 296 69 l 451 69 l 382 -60 z "},"ˆ":{"ha":694,"x_min":68,"x_max":626,"o":"m 440 819 l 347 969 l 254 819 l 68 819 l 228 1111 l 467 1111 l 626 819 l 440 819 z "},"¨":{"ha":694,"x_min":42,"x_max":653,"o":"m 168 893 q 79 931 117 893 q 42 1019 42 968 q 79 1108 42 1071 q 168 1146 117 1146 q 257 1108 219 1146 q 294 1019 294 1071 q 257 931 294 968 q 168 893 219 893 m 526 893 q 438 931 475 893 q 400 1019 400 968 q 438 1108 400 1071 q 526 1146 475 1146 q 615 1108 578 1146 q 653 1019 653 1071 q 615 931 653 968 q 526 893 578 893 z "},"˙":{"ha":694,"x_min":221,"x_max":474,"o":"m 347 893 q 258 931 296 893 q 221 1019 221 968 q 258 1108 221 1071 q 347 1146 296 1146 q 436 1108 399 1146 q 474 1019 474 1071 q 436 931 474 968 q 347 893 399 893 z "},"`":{"ha":694,"x_min":143,"x_max":538,"o":"m 143 1114 l 403 1114 l 538 819 l 351 819 l 143 1114 z "},"˝":{"ha":694,"x_min":46,"x_max":690,"o":"m 181 1114 l 399 1114 l 190 819 l 46 819 l 181 1114 m 472 1114 l 690 1114 l 482 819 l 338 819 l 472 1114 z "},"¯":{"ha":694,"x_min":69,"x_max":625,"o":"m 69 1086 l 625 1086 l 625 917 l 69 917 l 69 1086 z "},"˛":{"ha":694,"x_min":179,"x_max":575,"o":"m 369 -383 q 231 -340 283 -383 q 179 -218 179 -296 q 218 -92 179 -157 q 325 21 257 -26 l 513 21 q 406 -82 443 -33 q 369 -167 369 -131 q 383 -199 369 -187 q 418 -210 396 -210 q 514 -165 461 -210 l 575 -299 q 489 -357 547 -331 q 369 -383 431 -383 z "},"˚":{"ha":694,"x_min":136,"x_max":558,"o":"m 347 840 q 233 864 281 840 q 160 926 185 888 q 136 1008 136 965 q 160 1090 136 1051 q 233 1153 185 1129 q 347 1176 281 1176 q 462 1153 414 1176 q 534 1090 510 1129 q 558 1008 558 1051 q 534 926 558 965 q 462 864 510 888 q 347 840 414 840 m 347 942 q 394 960 376 942 q 413 1008 413 979 q 394 1056 413 1038 q 347 1075 376 1075 q 300 1056 318 1075 q 282 1008 282 1038 q 300 960 282 979 q 347 942 318 942 z "},"˜":{"ha":694,"x_min":69,"x_max":625,"o":"m 69 867 q 124 1047 76 981 q 243 1113 171 1113 q 294 1103 269 1113 q 353 1078 319 1094 q 401 1056 383 1063 q 438 1049 419 1049 q 494 1126 475 1049 l 625 1121 q 569 945 618 1015 q 451 875 521 875 q 396 885 422 875 q 332 913 369 894 q 289 933 306 926 q 257 939 272 939 q 224 920 238 939 q 200 861 210 901 l 69 867 z "},"ु":{"ha":0,"x_min":-635,"x_max":76,"o":"m -235 -472 q -635 -264 -440 -472 l -528 -133 q -381 -251 -447 -210 q -235 -293 -315 -293 q -171 -275 -197 -293 q -144 -228 -144 -257 q -170 -181 -144 -199 q -235 -164 -196 -164 q -374 -194 -303 -164 l -433 -33 q -235 15 -342 15 q -75 -15 -146 15 q 36 -99 -4 -44 q 76 -228 76 -154 q 37 -356 76 -301 q -74 -442 -3 -411 q -235 -472 -144 -472 z "},"ू":{"ha":0,"x_min":-549,"x_max":163,"o":"m -237 15 q 163 -193 -32 15 l 56 -324 q -91 -206 -25 -247 q -237 -164 -157 -164 q -301 -182 -275 -164 q -328 -229 -328 -200 q -302 -276 -328 -258 q -237 -293 -276 -293 q -99 -262 -169 -293 l -39 -424 q -237 -472 -132 -472 q -397 -442 -326 -472 q -508 -358 -468 -412 q -549 -229 -549 -303 q -509 -101 -549 -156 q -399 -15 -469 -46 q -237 15 -328 15 z "},"ृ":{"ha":0,"x_min":-440,"x_max":46,"o":"m -168 -411 q -310 -381 -249 -411 q -406 -300 -372 -351 q -440 -185 -440 -249 q -374 -26 -440 -99 q -172 97 -307 46 l -92 -62 q -214 -115 -175 -83 q -253 -181 -253 -146 q -231 -220 -253 -207 q -171 -233 -210 -233 q -95 -222 -136 -233 q -29 -190 -54 -210 l 46 -344 q -49 -392 6 -374 q -168 -411 -104 -411 z "},"ॄ":{"ha":0,"x_min":-440,"x_max":182,"o":"m 182 -624 q 87 -672 142 -653 q -32 -690 32 -690 q -174 -660 -112 -690 q -270 -579 -236 -631 q -304 -464 -304 -528 q -290 -390 -304 -424 q -401 -309 -361 -364 q -440 -185 -440 -254 q -374 -26 -440 -99 q -172 97 -307 46 l -92 -62 q -214 -115 -175 -83 q -253 -181 -253 -146 q -231 -220 -253 -207 q -171 -233 -210 -233 q -95 -222 -136 -233 q -29 -190 -54 -210 l 46 -344 q -89 -403 -11 -387 q -117 -460 -117 -429 q -95 -499 -117 -486 q -35 -512 -74 -512 q 41 -501 0 -512 q 107 -469 82 -489 l 182 -624 z "},"ॢ":{"ha":0,"x_min":-776,"x_max":101,"o":"m 101 -647 q 1 -702 50 -682 q -114 -722 -49 -722 q -269 -678 -203 -722 q -336 -561 -336 -635 q -308 -463 -336 -508 q -226 -356 -279 -418 q -178 -295 -193 -317 q -162 -256 -162 -274 q -171 -236 -162 -243 q -193 -229 -179 -229 q -260 -275 -228 -229 q -308 -393 -293 -321 l -496 -361 q -458 -231 -483 -286 q -504 -217 -482 -217 q -543 -235 -529 -217 q -557 -283 -557 -253 q -407 -507 -557 -400 l -531 -635 q -715 -452 -653 -539 q -776 -250 -776 -365 q -711 -97 -776 -156 q -549 -39 -646 -39 q -372 -111 -450 -39 l -344 -90 l -344 18 l -124 18 l -124 -60 q 6 -136 -44 -81 q 56 -258 56 -192 q 26 -346 56 -306 q -57 -440 -3 -386 q -103 -490 -89 -472 q -118 -522 -118 -508 q -83 -544 -118 -544 q -29 -528 -61 -544 q 32 -487 3 -511 l 101 -647 z "},"ॣ":{"ha":0,"x_min":-776,"x_max":201,"o":"m 201 -878 q 10 -936 115 -936 q -160 -883 -96 -936 q -224 -746 -224 -829 q -218 -704 -224 -722 q -303 -648 -271 -685 q -336 -561 -336 -611 q -308 -463 -336 -508 q -226 -356 -279 -418 q -178 -295 -193 -317 q -162 -256 -162 -274 q -171 -236 -162 -243 q -193 -229 -179 -229 q -260 -275 -228 -229 q -308 -393 -293 -321 l -496 -361 q -458 -231 -483 -286 q -504 -217 -482 -217 q -543 -235 -529 -217 q -557 -283 -557 -253 q -407 -507 -557 -400 l -531 -635 q -715 -452 -653 -539 q -776 -250 -776 -365 q -711 -97 -776 -156 q -549 -39 -646 -39 q -372 -111 -450 -39 l -344 -90 l -344 18 l -124 18 l -124 -60 q 6 -136 -44 -81 q 56 -258 56 -192 q 26 -346 56 -306 q -57 -440 -3 -386 q -103 -490 -89 -472 q -118 -522 -118 -508 q -83 -544 -118 -544 q -29 -528 -61 -544 q 32 -487 3 -511 l 101 -647 q 15 -696 53 -679 q -6 -729 -6 -711 q 38 -758 -6 -758 q 133 -721 74 -758 l 201 -878 z "},"ॅ":{"ha":0,"x_min":-557,"x_max":151,"o":"m -203 1010 q -415 1072 -321 1010 q -557 1232 -508 1133 l -415 1329 q -203 1188 -333 1188 q 10 1329 -72 1188 l 151 1232 q 7 1070 99 1131 q -203 1010 -85 1010 z "},"ँ":{"ha":0,"x_min":-557,"x_max":151,"o":"m 0 1010 m -203 1010 q -415 1072 -321 1010 q -557 1232 -508 1133 l -415 1329 q -203 1188 -333 1188 q 10 1329 -72 1188 l 151 1232 q 7 1070 99 1131 q -203 1010 -85 1010 m -342 1429 q -301 1527 -342 1486 q -203 1568 -260 1568 q -105 1527 -146 1568 q -64 1429 -64 1486 q -105 1331 -64 1372 q -203 1290 -146 1290 q -301 1331 -260 1290 q -342 1429 -342 1372 z "},"ॆ":{"ha":0,"x_min":-931,"x_max":-78,"o":"m -312 868 q -297 944 -297 896 q -319 1013 -297 985 q -393 1042 -340 1042 q -549 1033 -443 1042 q -694 1025 -649 1025 q -869 1072 -807 1025 q -931 1207 -931 1119 q -914 1301 -931 1251 q -871 1386 -897 1350 l -672 1340 q -711 1251 -711 1296 q -665 1204 -711 1204 q -528 1213 -622 1204 q -393 1221 -436 1221 q -159 1144 -240 1221 q -78 943 -78 1068 q -93 864 -78 899 l -312 868 z "},"े":{"ha":0,"x_min":-775,"x_max":-129,"o":"m -392 1007 q -484 1148 -433 1103 q -606 1193 -535 1193 q -737 1176 -674 1193 l -775 1343 q -607 1374 -700 1374 q -374 1292 -469 1374 q -197 1029 -279 1210 l -129 879 l -336 879 l -392 1007 z "},"ै":{"ha":0,"x_min":-789,"x_max":-99,"o":"m -207 879 l -200 867 l -374 867 l -449 976 q -518 1040 -478 1018 q -606 1061 -558 1061 q -751 1031 -681 1061 l -789 1197 q -607 1242 -706 1242 q -418 1174 -508 1242 q -480 1277 -454 1242 q -535 1328 -506 1313 q -606 1343 -564 1343 q -710 1326 -658 1343 l -747 1493 q -579 1524 -674 1524 q -418 1478 -486 1524 q -289 1327 -350 1432 q -156 1029 -228 1222 l -99 879 l -207 879 z "},"ं":{"ha":0,"x_min":-337,"x_max":-60,"o":"m -337 1126 q -297 1224 -337 1183 q -199 1265 -256 1265 q -101 1224 -142 1265 q -60 1126 -60 1183 q -101 1028 -60 1069 q -199 988 -142 988 q -297 1028 -256 988 q -337 1126 -337 1069 z "},"्":{"ha":0,"x_min":-532,"x_max":103,"o":"m 33 -369 q -122 -287 -47 -322 q -283 -231 -196 -253 l -283 -300 q -378 -318 -332 -318 q -489 -281 -446 -318 q -532 -196 -532 -244 q -484 -101 -532 -133 q -361 -69 -436 -69 q -126 -133 -258 -69 q 103 -269 6 -197 l 33 -369 z "},"़":{"ha":0,"x_min":-139,"x_max":139,"o":"m -139 -178 q -98 -80 -139 -121 q 0 -39 -57 -39 q 98 -80 57 -39 q 139 -178 139 -121 q 98 -276 139 -235 q 0 -317 57 -317 q -98 -276 -57 -317 q -139 -178 -139 -235 z "},"ऺ":{"ha":0,"x_min":-344,"x_max":-124,"o":"m -344 1307 l -124 1307 l -124 906 l -344 906 l -344 1307 z "},"ॖ":{"ha":0,"x_min":-690,"x_max":65,"o":"m -312 -347 q -539 -282 -440 -347 q -690 -106 -637 -217 l -533 -14 q -312 -169 -449 -169 q -92 -14 -176 -169 l 65 -106 q -87 -282 11 -217 q -312 -347 -185 -347 z "},"ॗ":{"ha":0,"x_min":-690,"x_max":65,"o":"m -312 -347 q -539 -282 -440 -347 q -690 -106 -637 -217 l -533 -14 q -312 -169 -449 -169 q -92 -14 -176 -169 l 65 -106 q -87 -282 11 -217 q -312 -347 -185 -347 m -312 -681 q -539 -615 -440 -681 q -690 -439 -637 -550 l -533 -347 q -312 -503 -449 -503 q -92 -347 -176 -503 l 65 -439 q -87 -615 11 -550 q -312 -681 -185 -681 z "},"॑":{"ha":0,"x_min":-344,"x_max":-124,"o":"m -344 1451 l -124 1451 l -124 1050 l -344 1050 l -344 1451 z "},"॒":{"ha":0,"x_min":-631,"x_max":161,"o":"m -631 -224 l 161 -224 l 161 -401 l -631 -401 l -631 -224 z "},"॓":{"ha":0,"x_min":-661,"x_max":-97,"o":"m -661 1451 l -419 1451 l -97 1050 l -317 1050 l -661 1451 z "},"॔":{"ha":0,"x_min":-361,"x_max":203,"o":"m -39 1451 l 203 1451 l -142 1050 l -361 1050 l -39 1451 z "},"ः":{"ha":592,"x_min":150,"x_max":442,"o":"m 296 514 q 193 557 236 514 q 150 660 150 600 q 193 763 150 721 q 296 806 236 806 q 399 763 357 806 q 442 660 442 721 q 399 557 442 600 q 296 514 357 514 m 296 75 q 193 118 236 75 q 150 221 150 161 q 193 324 150 282 q 296 367 236 367 q 399 324 357 367 q 442 221 442 282 q 399 118 442 161 q 296 75 357 75 z "}}}
